<svg width="173" height="50" viewBox="0 0 173 50" fill="none" xmlns="http://www.w3.org/2000/svg">
<path d="M172.039 44.2336C172.039 46.8982 169.837 49.0565 167.112 49.0565H5.89396C3.1712 49.0565 0.961121 46.8982 0.961121 44.2336V5.77256C0.961121 3.10926 3.1712 0.943359 5.89396 0.943359H167.111C169.837 0.943359 172.038 3.10926 172.038 5.77256L172.039 44.2336Z" fill="white"/>
<path d="M166.593 1.00161C169.559 1.00161 171.973 3.3563 171.973 6.25004V43.75C171.973 46.6438 169.559 48.9984 166.593 48.9984H6.40741C3.44078 48.9984 1.02679 46.6438 1.02679 43.75V6.25004C1.02679 3.3563 3.44078 1.00161 6.40741 1.00161H166.593ZM166.593 4.95911e-05H6.40741C2.88494 4.95911e-05 0 2.81411 0 6.25004V43.75C0 47.1859 2.88494 50 6.40741 50H166.593C170.115 50 173 47.1859 173 43.75V6.25004C173 2.81411 170.115 4.95911e-05 166.593 4.95911e-05Z" fill="#A6A6A6"/>
<path d="M38.6085 24.7297C38.5713 20.701 41.9903 18.741 42.1466 18.6497C40.2103 15.896 37.2091 15.5197 36.1544 15.4897C33.6338 15.231 31.1887 16.961 29.9046 16.961C28.595 16.961 26.6176 15.5147 24.4865 15.5572C21.7442 15.5985 19.1786 17.1472 17.7716 19.5522C14.8677 24.456 17.0334 31.6622 19.8155 35.626C21.2072 37.5672 22.8334 39.7347 24.962 39.6585C27.0444 39.5747 27.8222 38.3635 30.3352 38.3635C32.8251 38.3635 33.5556 39.6585 35.7264 39.6097C37.9613 39.5747 39.3684 37.6597 40.7114 35.701C42.3196 33.476 42.9655 31.2847 42.9911 31.1722C42.9386 31.1547 38.6508 29.5585 38.6085 24.7297Z" fill="black"/>
<path d="M34.5077 12.8822C35.6277 11.516 36.3941 9.65724 36.1813 7.771C34.5603 7.841 32.533 8.86475 31.3655 10.201C30.3327 11.3785 29.41 13.3085 29.6483 15.1235C31.4693 15.256 33.339 14.2272 34.5077 12.8822Z" fill="black"/>
<path d="M62.8567 12.5114C62.8567 13.9826 62.4043 15.0901 61.5009 15.8339C60.664 16.5201 59.4748 16.8639 57.9345 16.8639C57.1707 16.8639 56.5172 16.8314 55.97 16.7664V8.72762C56.6838 8.61512 57.4526 8.55762 58.283 8.55762C59.7503 8.55762 60.8563 8.86887 61.6021 9.49137C62.4376 10.1951 62.8567 11.2014 62.8567 12.5114ZM61.4406 12.5476C61.4406 11.5939 61.1818 10.8626 60.664 10.3526C60.1463 9.84387 59.3902 9.58887 58.3945 9.58887C57.9716 9.58887 57.6115 9.61637 57.313 9.67387V15.7851C57.4783 15.8101 57.7807 15.8214 58.2203 15.8214C59.248 15.8214 60.0412 15.5426 60.6 14.9851C61.1587 14.4276 61.4406 13.6151 61.4406 12.5476Z" fill="black"/>
<path d="M70.3648 13.7963C70.3648 14.7026 70.0996 15.4451 69.569 16.0276C69.0129 16.6263 68.276 16.9251 67.3559 16.9251C66.4691 16.9251 65.763 16.6388 65.2364 16.0638C64.7109 15.4901 64.4482 14.7663 64.4482 13.8938C64.4482 12.9813 64.7186 12.2326 65.262 11.6513C65.8053 11.0701 66.5358 10.7788 67.4559 10.7788C68.3427 10.7788 69.0552 11.0651 69.5947 11.6388C70.1073 12.1963 70.3648 12.9163 70.3648 13.7963ZM68.9719 13.8388C68.9719 13.2951 68.8514 12.8288 68.6118 12.4401C68.3299 11.9701 67.9288 11.7351 67.4072 11.7351C66.8677 11.7351 66.4576 11.9701 66.1757 12.4401C65.9348 12.8288 65.8156 13.3026 65.8156 13.8626C65.8156 14.4063 65.936 14.8726 66.1757 15.2613C66.4666 15.7313 66.8715 15.9663 67.3944 15.9663C67.907 15.9663 68.3093 15.7276 68.599 15.2488C68.8476 14.8526 68.9719 14.3826 68.9719 13.8388Z" fill="black"/>
<path d="M80.4322 10.8984L78.542 16.7909H77.3118L76.5288 14.2322C76.3302 13.5934 76.1687 12.9584 76.0431 12.3284H76.0188C75.9022 12.9759 75.7407 13.6097 75.5331 14.2322L74.7014 16.7909H73.4571L71.6797 10.8984H73.0598L73.7429 13.6997C73.9082 14.3622 74.044 14.9934 74.1529 15.5909H74.1773C74.2772 15.0984 74.4426 14.4709 74.6758 13.7122L75.5331 10.8997H76.6275L77.4489 13.6522C77.6475 14.3234 77.809 14.9697 77.9333 15.5922H77.9705C78.0615 14.9859 78.1986 14.3397 78.3806 13.6522L79.1136 10.8997H80.4322V10.8984Z" fill="black"/>
<path d="M87.3944 16.7911H86.0514V13.4162C86.0514 12.3762 85.6465 11.8562 84.834 11.8562C84.4355 11.8562 84.1138 11.9987 83.864 12.2849C83.6166 12.5712 83.491 12.9087 83.491 13.2949V16.7899H82.1481V12.5824C82.1481 12.0649 82.1314 11.5037 82.0994 10.8962H83.2796L83.3424 11.8174H83.3796C83.5359 11.5312 83.7691 11.2949 84.0754 11.1062C84.4393 10.8862 84.8468 10.7749 85.2928 10.7749C85.8567 10.7749 86.3257 10.9524 86.6986 11.3087C87.1625 11.7449 87.3944 12.3962 87.3944 13.2612V16.7911Z" fill="black"/>
<path d="M91.0979 16.7911H89.7562V8.19482H91.0979V16.7911Z" fill="black"/>
<path d="M99.0047 13.7963C99.0047 14.7026 98.7395 15.4451 98.2089 16.0276C97.6528 16.6263 96.9146 16.9251 95.9958 16.9251C95.1078 16.9251 94.4016 16.6388 93.8762 16.0638C93.3508 15.4901 93.0881 14.7663 93.0881 13.8938C93.0881 12.9813 93.3585 12.2326 93.9019 11.6513C94.4452 11.0701 95.1757 10.7788 96.0945 10.7788C96.9826 10.7788 97.6938 11.0651 98.2346 11.6388C98.7471 12.1963 99.0047 12.9163 99.0047 13.7963ZM97.6105 13.8388C97.6105 13.2951 97.49 12.8288 97.2504 12.4401C96.9697 11.9701 96.5674 11.7351 96.0471 11.7351C95.5063 11.7351 95.0962 11.9701 94.8156 12.4401C94.5747 12.8288 94.4555 13.3026 94.4555 13.8626C94.4555 14.4063 94.5759 14.8726 94.8156 15.2613C95.1065 15.7313 95.5114 15.9663 96.0343 15.9663C96.5469 15.9663 96.948 15.7276 97.2376 15.2488C97.4875 14.8526 97.6105 14.3826 97.6105 13.8388Z" fill="black"/>
<path d="M105.504 16.7913H104.299L104.199 16.1126H104.161C103.749 16.6538 103.161 16.9251 102.397 16.9251C101.827 16.9251 101.365 16.7463 101.018 16.3913C100.703 16.0688 100.545 15.6676 100.545 15.1913C100.545 14.4713 100.853 13.9226 101.472 13.5426C102.089 13.1626 102.958 12.9763 104.077 12.9851V12.8751C104.077 12.0988 103.659 11.7113 102.822 11.7113C102.226 11.7113 101.701 11.8576 101.247 12.1476L100.974 11.2876C101.536 10.9488 102.229 10.7788 103.047 10.7788C104.625 10.7788 105.417 11.5913 105.417 13.2163V15.3863C105.417 15.9751 105.447 16.4438 105.504 16.7913ZM104.11 14.7663V13.8576C102.629 13.8326 101.888 14.2288 101.888 15.0451C101.888 15.3526 101.973 15.5826 102.146 15.7363C102.319 15.8901 102.539 15.9663 102.802 15.9663C103.096 15.9663 103.372 15.8751 103.623 15.6938C103.876 15.5113 104.031 15.2801 104.088 14.9963C104.102 14.9326 104.11 14.8551 104.11 14.7663Z" fill="black"/>
<path d="M113.136 16.7911H111.944L111.881 15.8448H111.844C111.463 16.5648 110.815 16.9248 109.904 16.9248C109.176 16.9248 108.57 16.6461 108.089 16.0886C107.609 15.5311 107.369 14.8073 107.369 13.9186C107.369 12.9648 107.629 12.1923 108.152 11.6023C108.658 11.0523 109.278 10.7773 110.017 10.7773C110.828 10.7773 111.395 11.0436 111.718 11.5773H111.744V8.19482H113.088V15.2036C113.088 15.7773 113.104 16.3061 113.136 16.7911ZM111.744 14.3061V13.3236C111.744 13.1536 111.731 13.0161 111.707 12.9111C111.631 12.5961 111.468 12.3311 111.221 12.1173C110.971 11.9036 110.67 11.7961 110.323 11.7961C109.822 11.7961 109.43 11.9898 109.141 12.3786C108.856 12.7673 108.711 13.2636 108.711 13.8698C108.711 14.4523 108.848 14.9248 109.123 15.2886C109.414 15.6761 109.806 15.8698 110.297 15.8698C110.738 15.8698 111.09 15.7086 111.358 15.3848C111.617 15.0861 111.744 14.7261 111.744 14.3061Z" fill="black"/>
<path d="M124.622 13.7963C124.622 14.7026 124.356 15.4451 123.826 16.0276C123.27 16.6263 122.534 16.9251 121.613 16.9251C120.727 16.9251 120.021 16.6388 119.493 16.0638C118.968 15.4901 118.705 14.7663 118.705 13.8938C118.705 12.9813 118.975 12.2326 119.519 11.6513C120.062 11.0701 120.792 10.7788 121.714 10.7788C122.599 10.7788 123.313 11.0651 123.851 11.6388C124.364 12.1963 124.622 12.9163 124.622 13.7963ZM123.23 13.8388C123.23 13.2951 123.109 12.8288 122.87 12.4401C122.587 11.9701 122.187 11.7351 121.664 11.7351C121.126 11.7351 120.716 11.9701 120.432 12.4401C120.191 12.8288 120.072 13.3026 120.072 13.8626C120.072 14.4063 120.193 14.8726 120.432 15.2613C120.723 15.7313 121.128 15.9663 121.651 15.9663C122.164 15.9663 122.567 15.7276 122.857 15.2488C123.104 14.8526 123.23 14.3826 123.23 13.8388Z" fill="black"/>
<path d="M131.843 16.7911H130.501V13.4162C130.501 12.3762 130.096 11.8562 129.282 11.8562C128.884 11.8562 128.562 11.9987 128.313 12.2849C128.065 12.5712 127.941 12.9087 127.941 13.2949V16.7899H126.596V12.5824C126.596 12.0649 126.581 11.5037 126.549 10.8962H127.728L127.791 11.8174H127.828C127.985 11.5312 128.219 11.2949 128.524 11.1062C128.889 10.8862 129.295 10.7749 129.742 10.7749C130.305 10.7749 130.774 10.9524 131.147 11.3087C131.612 11.7449 131.843 12.3962 131.843 13.2612V16.7911Z" fill="black"/>
<path d="M140.881 11.8799H139.402V14.7424C139.402 15.4699 139.665 15.8336 140.185 15.8336C140.426 15.8336 140.626 15.8136 140.784 15.7724L140.818 16.7661C140.553 16.8636 140.204 16.9124 139.775 16.9124C139.245 16.9124 138.832 16.7549 138.533 16.4399C138.233 16.1249 138.085 15.5949 138.085 14.8511V11.8799H137.202V10.8987H138.085V9.81865L139.401 9.43115V10.8974H140.88V11.8799H140.881Z" fill="black"/>
<path d="M147.991 16.7911H146.646V13.4411C146.646 12.3848 146.241 11.8561 145.43 11.8561C144.807 11.8561 144.382 12.1623 144.149 12.7748C144.109 12.9036 144.086 13.0611 144.086 13.2461V16.7898H142.744V8.19482H144.086V11.7461H144.112C144.535 11.0998 145.141 10.7773 145.926 10.7773C146.482 10.7773 146.942 10.9548 147.308 11.3111C147.763 11.7548 147.991 12.4148 147.991 13.2873V16.7911Z" fill="black"/>
<path d="M155.325 13.5663C155.325 13.8013 155.307 13.9988 155.275 14.1601H151.247C151.265 14.7426 151.457 15.1863 151.83 15.4938C152.171 15.7688 152.61 15.9063 153.149 15.9063C153.744 15.9063 154.288 15.8138 154.777 15.6276L154.988 16.5376C154.415 16.7801 153.741 16.9013 152.96 16.9013C152.025 16.9013 151.288 16.6326 150.755 16.0951C150.219 15.5576 149.954 14.8363 149.954 13.9313C149.954 13.0426 150.201 12.3026 150.7 11.7126C151.22 11.0826 151.923 10.7676 152.812 10.7676C153.68 10.7676 154.34 11.0826 154.786 11.7126C155.146 12.2126 155.325 12.8313 155.325 13.5663ZM154.043 13.2276C154.053 12.8388 153.965 12.5038 153.783 12.2213C153.55 11.8576 153.195 11.6751 152.714 11.6751C152.276 11.6751 151.918 11.8526 151.645 12.2088C151.422 12.4926 151.29 12.8313 151.247 13.2276H154.043Z" fill="black"/>
<path d="M68.7451 39.3801H65.8349L64.2407 34.4939H58.6996L57.181 39.3801H54.3477L59.8375 22.7451H63.2283L68.7451 39.3801ZM63.7601 32.4439L62.3185 28.1001C62.166 27.6564 61.8802 26.6114 61.4586 24.9664H61.4073C61.2395 25.6739 60.9691 26.7189 60.5974 28.1001L59.1814 32.4439H63.7601Z" fill="black"/>
<path d="M82.8632 33.2349C82.8632 35.2749 82.298 36.8874 81.1678 38.0712C80.1554 39.1249 78.8983 39.6512 77.3976 39.6512C75.7779 39.6512 74.6143 39.0837 73.9056 37.9487H73.8543V44.2674H71.1222V31.3337C71.1222 30.0512 71.0876 28.7349 71.021 27.3849H73.4238L73.5763 29.2862H73.6275C74.5387 27.8537 75.9214 27.1387 77.777 27.1387C79.2276 27.1387 80.4386 27.6974 81.4074 28.8162C82.3788 29.9362 82.8632 31.4087 82.8632 33.2349ZM80.0798 33.3324C80.0798 32.1649 79.8107 31.2024 79.2699 30.4449C78.6791 29.6549 77.8859 29.2599 76.8915 29.2599C76.2174 29.2599 75.6049 29.4799 75.0577 29.9137C74.5092 30.3512 74.1504 30.9224 73.9825 31.6299C73.8979 31.9599 73.8556 32.2299 73.8556 32.4424V34.4424C73.8556 35.3149 74.1299 36.0512 74.6783 36.6524C75.2268 37.2537 75.9393 37.5537 76.8159 37.5537C77.8449 37.5537 78.6458 37.1662 79.2186 36.3937C79.7927 35.6199 80.0798 34.5999 80.0798 33.3324Z" fill="black"/>
<path d="M97.0069 33.2349C97.0069 35.2749 96.4418 36.8874 95.3102 38.0712C94.2991 39.1249 93.042 39.6512 91.5414 39.6512C89.9216 39.6512 88.758 39.0837 88.0506 37.9487H87.9994V44.2674H85.2673V31.3337C85.2673 30.0512 85.2327 28.7349 85.166 27.3849H87.5688L87.7213 29.2862H87.7725C88.6824 27.8537 90.0651 27.1387 91.922 27.1387C93.3713 27.1387 94.5823 27.6974 95.5537 28.8162C96.5212 29.9362 97.0069 31.4087 97.0069 33.2349ZM94.2235 33.3324C94.2235 32.1649 93.9531 31.2024 93.4123 30.4449C92.8216 29.6549 92.0309 29.2599 91.0352 29.2599C90.3599 29.2599 89.7486 29.4799 89.2001 29.9137C88.6516 30.3512 88.2941 30.9224 88.1262 31.6299C88.0429 31.9599 87.9994 32.2299 87.9994 32.4424V34.4424C87.9994 35.3149 88.2736 36.0512 88.8195 36.6524C89.368 37.2524 90.0805 37.5537 90.9596 37.5537C91.9886 37.5537 92.7896 37.1662 93.3624 36.3937C93.9365 35.6199 94.2235 34.5999 94.2235 33.3324Z" fill="black"/>
<path d="M112.82 34.7152C112.82 36.1302 112.317 37.2815 111.306 38.1702C110.195 39.1415 108.648 39.6265 106.66 39.6265C104.825 39.6265 103.354 39.2815 102.24 38.5902L102.873 36.369C104.073 37.0765 105.389 37.4315 106.823 37.4315C107.852 37.4315 108.653 37.204 109.228 36.7515C109.801 36.299 110.087 35.6915 110.087 34.934C110.087 34.259 109.851 33.6902 109.378 33.229C108.908 32.7677 108.122 32.339 107.025 31.9427C104.04 30.8565 102.548 29.2652 102.548 27.1727C102.548 25.8052 103.071 24.684 104.118 23.8115C105.161 22.9377 106.553 22.5015 108.293 22.5015C109.845 22.5015 111.134 22.7652 112.163 23.2915L111.48 25.464C110.519 24.954 109.432 24.699 108.216 24.699C107.255 24.699 106.504 24.9302 105.966 25.3902C105.511 25.8015 105.283 26.3027 105.283 26.8965C105.283 27.554 105.543 28.0977 106.066 28.5252C106.521 28.9202 107.347 29.3477 108.547 29.809C110.014 30.3852 111.092 31.059 111.785 31.8315C112.476 32.6015 112.82 33.5652 112.82 34.7152Z" fill="black"/>
<path d="M121.853 29.3847H118.842V35.2085C118.842 36.6897 119.373 37.4297 120.436 37.4297C120.924 37.4297 121.329 37.3885 121.65 37.306L121.725 39.3297C121.187 39.526 120.478 39.6247 119.601 39.6247C118.522 39.6247 117.678 39.3035 117.07 38.6622C116.464 38.0197 116.159 36.9422 116.159 35.4285V29.3822H114.365V27.3822H116.159V25.186L118.842 24.396V27.3822H121.853V29.3847Z" fill="black"/>
<path d="M135.441 33.2839C135.441 35.1276 134.9 36.6414 133.821 37.8251C132.69 39.0439 131.188 39.6514 129.316 39.6514C127.511 39.6514 126.075 39.0676 125.003 37.9001C123.932 36.7326 123.396 35.2589 123.396 33.4826C123.396 31.6239 123.947 30.1014 125.053 28.9176C126.157 27.7326 127.646 27.1401 129.518 27.1401C131.322 27.1401 132.774 27.7239 133.87 28.8926C134.918 30.0264 135.441 31.4901 135.441 33.2839ZM132.606 33.3701C132.606 32.2639 132.364 31.3151 131.873 30.5239C131.301 29.5664 130.482 29.0889 129.421 29.0889C128.322 29.0889 127.488 29.5676 126.915 30.5239C126.425 31.3164 126.182 32.2801 126.182 33.4201C126.182 34.5264 126.425 35.4751 126.915 36.2651C127.506 37.2226 128.331 37.7001 129.396 37.7001C130.439 37.7001 131.258 37.2126 131.849 36.2401C132.353 35.4339 132.606 34.4751 132.606 33.3701Z" fill="black"/>
<path d="M144.322 29.7287C144.051 29.6799 143.763 29.6549 143.461 29.6549C142.499 29.6549 141.756 30.0087 141.233 30.7174C140.778 31.3424 140.55 32.1324 140.55 33.0862V39.3799H137.819L137.845 31.1624C137.845 29.7799 137.81 28.5212 137.743 27.3862H140.122L140.222 29.6812H140.298C140.586 28.8924 141.041 28.2574 141.664 27.7812C142.273 27.3524 142.93 27.1387 143.639 27.1387C143.891 27.1387 144.119 27.1562 144.322 27.1874V29.7287Z" fill="black"/>
<path d="M156.541 32.815C156.541 33.2925 156.509 33.695 156.441 34.0237H148.244C148.276 35.2087 148.672 36.115 149.434 36.74C150.124 37.2987 151.017 37.5787 152.114 37.5787C153.328 37.5787 154.435 37.3899 155.431 37.0112L155.859 38.8612C154.695 39.3562 153.322 39.6024 151.736 39.6024C149.83 39.6024 148.333 39.0549 147.244 37.9612C146.157 36.8674 145.612 35.3987 145.612 33.5562C145.612 31.7475 146.118 30.2412 147.132 29.04C148.193 27.7575 149.627 27.1162 151.431 27.1162C153.204 27.1162 154.545 27.7575 155.457 29.04C156.178 30.0587 156.541 31.3187 156.541 32.815ZM153.935 32.1237C153.953 31.3337 153.775 30.6512 153.405 30.075C152.932 29.3337 152.205 28.9637 151.228 28.9637C150.334 28.9637 149.608 29.325 149.053 30.05C148.598 30.6262 148.328 31.3175 148.244 32.1225H153.935V32.1237Z" fill="black"/>
</svg>
