<svg width="173" height="50" viewBox="0 0 173 50" fill="none" xmlns="http://www.w3.org/2000/svg">
<path d="M166.593 50H6.40741C2.88494 50 0 47.1859 0 43.75V6.25004C0 2.81411 2.88494 4.76837e-05 6.40741 4.76837e-05H166.593C170.115 4.76837e-05 173 2.81411 173 6.25004V43.75C173 47.1859 170.115 50 166.593 50Z" fill="white"/>
<path d="M166.593 1.00161C169.559 1.00161 171.973 3.35629 171.973 6.25004V43.75C171.973 46.6438 169.559 48.9984 166.593 48.9984H6.40741C3.44078 48.9984 1.02679 46.6438 1.02679 43.75V6.25004C1.02679 3.35629 3.44078 1.00161 6.40741 1.00161H166.593ZM166.593 4.76837e-05H6.40741C2.88494 4.76837e-05 0 2.81411 0 6.25004V43.75C0 47.1859 2.88494 50 6.40741 50H166.593C170.115 50 173 47.1859 173 43.75V6.25004C173 2.81411 170.115 4.76837e-05 166.593 4.76837e-05Z" fill="#A6A6A6"/>
<path d="M13.3722 9.42376C12.9958 9.80813 12.778 10.4066 12.778 11.1816V38.8253C12.778 39.6003 12.9958 40.1987 13.3722 40.5831L13.4651 40.6675L29.3459 25.1831V24.8175L13.4651 9.33313L13.3722 9.42376Z" fill="url(#paint0_linear_1600_12115)"/>
<path d="M34.6335 30.3472L29.3458 25.1831V24.8175L34.6399 19.6534L34.7585 19.7206L41.0281 23.2003C42.8174 24.1878 42.8174 25.8128 41.0281 26.8065L34.7585 30.28L34.6335 30.3472V30.3472Z" fill="url(#paint1_linear_1600_12115)"/>
<path d="M34.7585 30.2801L29.3459 25.0004L13.3722 40.5832C13.9665 41.1926 14.9356 41.266 16.0377 40.6566L34.7585 30.2801" fill="url(#paint2_linear_1600_12115)"/>
<path d="M34.7585 19.7208L16.0377 9.34426C14.9356 8.74113 13.9665 8.81457 13.3722 9.42394L29.3459 25.0005L34.7585 19.7208Z" fill="url(#paint3_linear_1600_12115)"/>
<path d="M60.7646 12.805C60.7646 13.8487 60.4442 14.6847 59.8131 15.3081C59.0875 16.0472 58.1424 16.419 56.9842 16.419C55.8774 16.419 54.9323 16.0409 54.157 15.2956C53.3801 14.5393 52.9924 13.6112 52.9924 12.5003C52.9924 11.3894 53.3801 10.4612 54.157 9.71123C54.9323 8.95967 55.8774 8.58154 56.9842 8.58154C57.5353 8.58154 58.0607 8.69248 58.5621 8.89873C59.0618 9.10654 59.4687 9.38779 59.7635 9.73467L59.0939 10.394C58.5797 9.80186 57.8797 9.50967 56.9842 9.50967C56.1769 9.50967 55.4769 9.78467 54.8826 10.3394C54.2947 10.8956 54 11.6159 54 12.5003C54 13.3847 54.2947 14.1112 54.8826 14.6675C55.4769 15.2159 56.1769 15.4972 56.9842 15.4972C57.8412 15.4972 58.5621 15.2159 59.1307 14.6612C59.5056 14.294 59.7186 13.7878 59.7747 13.1409H56.9842V12.2378H60.7069C60.7518 12.4331 60.7646 12.6222 60.7646 12.805V12.805Z" fill="black" stroke="black" stroke-width="0.051282" stroke-miterlimit="10"/>
<path d="M66.6706 9.67373H63.1738V12.0487H66.3262V12.9518H63.1738V15.3268H66.6706V16.2472H62.1838V8.75342H66.6706V9.67373Z" fill="black" stroke="black" stroke-width="0.051282" stroke-miterlimit="10"/>
<path d="M70.8387 16.2472H69.8487V9.67373H67.7039V8.75342H72.9852V9.67373H70.8387V16.2472V16.2472Z" fill="black" stroke="black" stroke-width="0.051282" stroke-miterlimit="10"/>
<path d="M76.8073 16.2472V8.75342H77.7956V16.2472H76.8073Z" fill="black" stroke="black" stroke-width="0.051282" stroke-miterlimit="10"/>
<path d="M82.1766 16.2472H81.1946V9.67373H79.0417V8.75342H84.3294V9.67373H82.1766V16.2472Z" fill="black" stroke="black" stroke-width="0.051282" stroke-miterlimit="10"/>
<path d="M94.3282 15.2831C93.5705 16.0409 92.6318 16.419 91.5121 16.419C90.386 16.419 89.4473 16.0409 88.6896 15.2831C87.9336 14.5268 87.5571 13.5987 87.5571 12.5003C87.5571 11.4019 87.9336 10.4737 88.6896 9.71748C89.4473 8.95967 90.386 8.58154 91.5121 8.58154C92.6254 8.58154 93.5641 8.95967 94.3218 9.72373C95.0842 10.4862 95.4607 11.4081 95.4607 12.5003C95.4607 13.5987 95.0842 14.5268 94.3282 15.2831ZM89.4217 14.655C89.9919 15.2159 90.6855 15.4972 91.5121 15.4972C92.3322 15.4972 93.0323 15.2159 93.5961 14.655C94.1648 14.094 94.4531 13.3737 94.4531 12.5003C94.4531 11.6269 94.1648 10.9065 93.5961 10.3456C93.0323 9.78467 92.3322 9.50342 91.5121 9.50342C90.6855 9.50342 89.9919 9.78467 89.4217 10.3456C88.853 10.9065 88.5647 11.6269 88.5647 12.5003C88.5647 13.3737 88.853 14.094 89.4217 14.655V14.655Z" fill="black" stroke="black" stroke-width="0.051282" stroke-miterlimit="10"/>
<path d="M96.8495 16.2472V8.75342H98.0509L101.786 14.5815H101.83L101.786 13.1409V8.75342H102.775V16.2472H101.743L97.8314 10.1315H97.7882L97.8314 11.5784V16.2472H96.8495V16.2472Z" fill="black" stroke="black" stroke-width="0.051282" stroke-miterlimit="10"/>
<path d="M87.3136 27.1909C84.3038 27.1909 81.8449 29.4253 81.8449 32.5081C81.8449 35.5659 84.3038 37.8237 87.3136 37.8237C90.3299 37.8237 92.7888 35.5659 92.7888 32.5081C92.7888 29.4253 90.3299 27.1909 87.3136 27.1909ZM87.3136 35.73C85.6621 35.73 84.2413 34.4003 84.2413 32.5081C84.2413 30.5909 85.6621 29.2847 87.3136 29.2847C88.9652 29.2847 90.3924 30.5909 90.3924 32.5081C90.3924 34.4003 88.9652 35.73 87.3136 35.73V35.73ZM75.3815 27.1909C72.3652 27.1909 69.9127 29.4253 69.9127 32.5081C69.9127 35.5659 72.3652 37.8237 75.3815 37.8237C78.3961 37.8237 80.8502 35.5659 80.8502 32.5081C80.8502 29.4253 78.3961 27.1909 75.3815 27.1909ZM75.3815 35.73C73.7283 35.73 72.3027 34.4003 72.3027 32.5081C72.3027 30.5909 73.7283 29.2847 75.3815 29.2847C77.033 29.2847 78.4538 30.5909 78.4538 32.5081C78.4538 34.4003 77.033 35.73 75.3815 35.73ZM61.1826 28.8206V31.08H66.7138C66.552 32.3425 66.1196 33.2706 65.4564 33.9175C64.6491 34.6987 63.3916 35.5659 61.1826 35.5659C57.7787 35.5659 55.1132 32.8862 55.1132 29.5659C55.1132 26.2456 57.7787 23.5659 61.1826 23.5659C63.0232 23.5659 64.3623 24.2675 65.3507 25.1769L66.983 23.5847C65.6006 22.2972 63.7616 21.3081 61.1826 21.3081C56.5149 21.3081 52.5919 25.0128 52.5919 29.5659C52.5919 34.1191 56.5149 37.8237 61.1826 37.8237C63.7056 37.8237 65.6006 37.0175 67.0903 35.505C68.6168 34.0159 69.0926 31.9222 69.0926 30.2316C69.0926 29.7066 69.0477 29.2237 68.9676 28.8206H61.1826ZM119.243 30.5722C118.793 29.3831 117.404 27.1909 114.576 27.1909C111.772 27.1909 109.438 29.3456 109.438 32.5081C109.438 35.4862 111.748 37.8237 114.845 37.8237C117.348 37.8237 118.793 36.3347 119.388 35.4675L117.529 34.2597C116.909 35.1441 116.065 35.73 114.845 35.73C113.632 35.73 112.762 35.1878 112.205 34.1191L119.495 31.1769L119.243 30.5722V30.5722ZM111.811 32.3425C111.748 30.2925 113.443 29.2425 114.657 29.2425C115.609 29.2425 116.416 29.7066 116.685 30.3706L111.811 32.3425V32.3425ZM105.886 37.5003H108.282V21.8753H105.886V37.5003ZM101.961 28.3753H101.881C101.343 27.7534 100.316 27.1909 99.0152 27.1909C96.2856 27.1909 93.7899 29.5284 93.7899 32.5253C93.7899 35.505 96.2856 37.8237 99.0152 37.8237C100.316 37.8237 101.343 37.2565 101.881 36.6159H101.961V37.3784C101.961 39.4112 100.848 40.5034 99.052 40.5034C97.5879 40.5034 96.6797 39.4722 96.3048 38.605L94.2208 39.4534C94.8215 40.8628 96.4122 42.5972 99.052 42.5972C101.862 42.5972 104.232 40.9847 104.232 37.0612V27.5144H101.961V28.3753V28.3753ZM99.2202 35.73C97.5687 35.73 96.1863 34.3816 96.1863 32.5253C96.1863 30.6519 97.5687 29.2847 99.2202 29.2847C100.848 29.2847 102.131 30.6519 102.131 32.5253C102.131 34.3816 100.848 35.73 99.2202 35.73V35.73ZM130.463 21.8753H124.731V37.5003H127.121V31.58H130.463C133.117 31.58 135.72 29.7066 135.72 26.7269C135.72 23.7488 133.111 21.8753 130.463 21.8753V21.8753ZM130.525 29.4066H127.121V24.0488H130.525C132.31 24.0488 133.328 25.4941 133.328 26.7269C133.328 27.9362 132.31 29.4066 130.525 29.4066ZM145.299 27.1612C143.572 27.1612 141.777 27.905 141.038 29.5534L143.159 30.4206C143.616 29.5534 144.455 29.2722 145.342 29.2722C146.582 29.2722 147.84 29.9987 147.859 31.2816V31.4456C147.426 31.2019 146.5 30.8409 145.362 30.8409C143.077 30.8409 140.75 32.0675 140.75 34.3566C140.75 36.4503 142.621 37.7987 144.724 37.7987C146.332 37.7987 147.22 37.0909 147.777 36.2675H147.859V37.4753H150.167V31.4816C150.167 28.7112 148.046 27.1612 145.299 27.1612ZM145.011 35.7237C144.229 35.7237 143.14 35.3456 143.14 34.4003C143.14 33.1909 144.498 32.7269 145.674 32.7269C146.726 32.7269 147.22 32.9534 147.859 33.2519C147.671 34.6987 146.395 35.7237 145.011 35.7237V35.7237ZM158.577 27.5034L155.83 34.2769H155.748L152.908 27.5034H150.33L154.598 36.969L152.163 42.2362H154.66L161.236 27.5034H158.577V27.5034ZM137.034 37.5003H139.43V21.8753H137.034V37.5003Z" fill="black"/>
<defs>
<linearGradient id="paint0_linear_1600_12115" x1="27.9359" y1="39.1132" x2="6.96439" y2="17.6135" gradientUnits="userSpaceOnUse">
<stop stop-color="#00A0FF"/>
<stop offset="0.0066" stop-color="#00A1FF"/>
<stop offset="0.2601" stop-color="#00BEFF"/>
<stop offset="0.5122" stop-color="#00D2FF"/>
<stop offset="0.7604" stop-color="#00DFFF"/>
<stop offset="1" stop-color="#00E3FF"/>
</linearGradient>
<linearGradient id="paint1_linear_1600_12115" x1="43.3581" y1="24.9985" x2="12.3502" y2="24.9985" gradientUnits="userSpaceOnUse">
<stop stop-color="#FFE000"/>
<stop offset="0.4087" stop-color="#FFBD00"/>
<stop offset="0.7754" stop-color="#FFA500"/>
<stop offset="1" stop-color="#FF9C00"/>
</linearGradient>
<linearGradient id="paint2_linear_1600_12115" x1="31.8153" y1="22.1303" x2="3.37622" y2="-7.02503" gradientUnits="userSpaceOnUse">
<stop stop-color="#FF3A44"/>
<stop offset="1" stop-color="#C31162"/>
</linearGradient>
<linearGradient id="paint3_linear_1600_12115" x1="9.35129" y1="49.7802" x2="22.0506" y2="36.7612" gradientUnits="userSpaceOnUse">
<stop stop-color="#32A071"/>
<stop offset="0.0685" stop-color="#2DA771"/>
<stop offset="0.4762" stop-color="#15CF74"/>
<stop offset="0.8009" stop-color="#06E775"/>
<stop offset="1" stop-color="#00F076"/>
</linearGradient>
</defs>
</svg>
