<svg width="67" height="75" viewBox="0 0 67 75" fill="none" xmlns="http://www.w3.org/2000/svg">
<g clip-path="url(#clip0_91_784)">
<path fill-rule="evenodd" clip-rule="evenodd" d="M33.0099 74.4634C51.104 69.8801 61.2316 54.7722 63.6893 29.6489C64.1555 24.726 64.3674 19.4213 64.2402 13.7346C59.918 10.7639 56.7822 6.77477 54.9178 2.19146C48.7734 1.08807 40.8917 0.536377 33.0099 0.536377C25.1706 0.536377 17.2888 1.08807 11.1021 2.19146C9.23759 6.77477 6.05948 10.7639 1.77961 13.7346C1.69486 18.8272 1.82199 23.5802 2.20337 28.0362C4.36449 54.1356 14.5345 69.7953 33.0099 74.4634Z" fill="#9E6F00"/>
<path fill-rule="evenodd" clip-rule="evenodd" d="M11.8651 3.08277C18.7722 1.93695 25.9335 1.38525 33.0526 1.38525C40.1715 1.38525 47.3329 1.93695 54.24 3.08277C56.3164 7.92071 59.7911 11.3158 63.4777 14.5411C63.5202 20.4399 63.2659 25.9144 62.6726 31.0071C60.003 54.2631 50.7229 69.0315 33.0526 73.2329C15.3822 69.0315 6.05973 54.2631 3.39011 31.0071C2.83923 25.9144 2.54261 20.3975 2.58499 14.5411C6.27161 11.3158 9.74635 7.87828 11.8651 3.08277Z" fill="#A2A2A2"/>
<path fill-rule="evenodd" clip-rule="evenodd" d="M13.0515 4.56797C19.4501 3.50702 26.2301 2.95532 33.0525 2.95532C39.8748 2.95532 46.6124 3.50702 53.011 4.56797C55.5535 9.02398 58.5621 12.5039 62.164 15.6443C62.1217 20.9491 61.8674 26.0841 61.2742 30.8796C58.8164 51.2923 50.977 66.6124 33.0101 72.0021C14.9584 66.6124 7.11899 51.165 4.746 30.5825C4.19513 25.8295 3.94088 20.8218 3.8985 15.6018C7.50037 12.5039 10.509 9.02398 13.0515 4.56797Z" fill="url(#paint0_radial_91_784)"/>
<path fill-rule="evenodd" clip-rule="evenodd" d="M13.9414 5.50189C20.1706 4.48337 26.6116 3.97412 33.0525 3.97412C39.4935 3.97412 45.9345 4.48337 52.1637 5.50189C55.2994 10.5096 58.3503 13.8198 61.2319 16.1538C61.2742 21.3312 60.9777 26.2541 60.4268 30.9223C57.8842 51.6321 49.2821 66.6975 33.0949 71.0687C17.0772 66.74 8.4751 52.014 5.80548 31.7711C5.16985 26.8483 4.87323 21.6283 4.87323 16.1114C7.75472 13.8198 10.8057 10.4672 13.9414 5.50189Z" fill="#3B3B3B"/>
<path fill-rule="evenodd" clip-rule="evenodd" d="M33.0525 65.976C33.0525 65.9336 33.0525 65.9336 33.0525 65.976C45.1717 61.5625 52.7992 52.5232 55.2146 37.3303C55.9349 32.7046 56.1892 27.4848 55.9349 21.6283C52.6298 19.5488 50.5109 16.748 48.7736 13.0559C45.426 12.1646 39.2392 11.7402 33.0525 11.7402C26.8657 11.7402 20.679 12.207 17.3314 13.0559C15.594 16.748 13.4753 19.5488 10.17 21.6283C9.9158 27.4423 10.1276 32.6622 10.8904 37.3303C13.2634 52.4808 20.9332 61.5201 33.0525 65.976C33.0101 65.9336 33.0101 65.9336 33.0525 65.976C33.0101 65.9336 33.0101 65.9336 33.0525 65.976C33.0525 65.9336 33.0525 65.9336 33.0525 65.976Z" fill="url(#paint1_radial_91_784)"/>
<path fill-rule="evenodd" clip-rule="evenodd" d="M33.0524 65.0424C33.01 65.0424 33.01 65.0424 33.0524 65.0424C33.01 65.0424 33.01 65.0424 33.0524 65.0424C21.7383 60.6712 14.0684 52.0563 11.7802 37.1605C11.1022 32.7894 10.8903 27.909 11.1869 22.3921C14.3227 19.8882 16.5261 17.1298 18.0516 13.8196C22.3315 13.0133 27.7132 12.6313 33.0948 12.6313C38.4764 12.6313 43.858 13.0133 48.0955 13.8196C49.6209 17.0874 51.8245 19.8882 54.9602 22.3921C55.2569 27.8666 55.0449 32.7894 54.367 37.1605C52.0363 52.0563 44.3665 60.6712 33.0524 65.0424Z" fill="#A2A2A2"/>
<path fill-rule="evenodd" clip-rule="evenodd" d="M7.41567 44.3326C4.91555 37.3303 1.7798 23.9623 11.1447 10.7217C3.81381 20.3975 2.20356 31.2192 7.0343 44.9267C12.4159 60.2044 22.7554 71.8748 44.3666 73.4875C44.3666 73.0207 44.409 72.5963 44.409 72.1294C23.391 70.8139 14.1533 61.7322 7.41567 44.3326Z" fill="url(#paint2_radial_91_784)"/>
<path fill-rule="evenodd" clip-rule="evenodd" d="M58.6471 44.3326C61.1472 37.3303 64.2829 23.9623 54.918 10.7217C62.2066 20.3975 63.8168 31.2192 58.9861 44.9267C53.6045 60.2044 43.265 71.8748 21.6538 73.4875C21.6538 73.0207 21.6114 72.5963 21.6114 72.1294C42.6718 70.8139 51.9094 61.7322 58.6471 44.3326Z" fill="url(#paint3_radial_91_784)"/>
<path fill-rule="evenodd" clip-rule="evenodd" d="M51.189 48.1519C49.4516 52.0562 47.1634 55.324 44.3666 57.9976C42.5868 56.3 41.6122 52.9474 41.4427 48.0246C40.68 36.8635 37.0781 34.2747 33.3068 28.97C42.036 31.5586 46.4853 36.7361 49.4516 44.9267C49.833 46.1574 50.4686 47.3032 51.189 48.1519Z" fill="url(#paint4_radial_91_784)"/>
<path fill-rule="evenodd" clip-rule="evenodd" d="M21.6959 57.9976C18.8992 55.324 16.611 52.0562 14.8735 48.1519C15.6363 47.3456 16.2296 46.1574 16.6533 44.9267C19.5772 36.7361 24.0266 31.5586 32.7558 28.97C28.9844 34.2747 25.3826 36.8635 24.5774 47.9822C24.408 52.9474 23.4757 56.2576 21.6959 57.9976Z" fill="url(#paint5_radial_91_784)"/>
<path fill-rule="evenodd" clip-rule="evenodd" d="M14.1109 7.49646C14.0685 7.1994 14.0685 6.98721 14.1533 6.77502C14.1957 6.56283 14.2804 6.43552 14.4075 6.3082C14.4922 6.18088 14.6618 6.13845 14.8313 6.09601C15.0855 6.05357 15.2974 6.13845 15.4668 6.3082C15.6364 6.47795 15.7635 6.77502 15.8059 7.1994C15.8482 7.58135 15.8059 7.92084 15.6788 8.17547C15.5516 8.38767 15.3821 8.51498 15.1279 8.55742C14.8736 8.59986 14.6618 8.51498 14.5346 8.34522C14.2804 8.17547 14.1533 7.87841 14.1109 7.49646ZM14.4499 7.41159C14.4922 7.66622 14.5346 7.87841 14.6618 8.00572C14.7889 8.13304 14.8736 8.17547 15.0007 8.17547C15.1279 8.13304 15.255 8.04816 15.2974 7.92084C15.3821 7.75109 15.3821 7.5389 15.3397 7.28428C15.2974 6.98721 15.255 6.81746 15.1279 6.69014C15.0431 6.56283 14.916 6.52039 14.7889 6.56283C14.6618 6.60526 14.5346 6.69014 14.4922 6.81746C14.4499 6.90233 14.4075 7.11452 14.4499 7.41159ZM16.4415 6.90233L16.1025 6.94477V6.60526C16.1025 6.43552 16.1025 6.26576 16.1025 6.18088C16.1449 6.05357 16.1873 5.9687 16.3144 5.92626L16.3991 6.09601C16.3567 6.13845 16.3144 6.18088 16.272 6.22332C16.2296 6.26576 16.2296 6.35064 16.2296 6.43552L16.3991 6.39308L16.4415 6.90233ZM16.9076 8.21791L16.8652 7.79353L17.628 6.13845L16.8229 6.22332L16.7805 5.79894L18.0093 5.62919L18.0518 6.01113L17.289 7.75109L18.2636 7.62378L18.306 8.04816L16.9076 8.21791ZM18.3907 5.62919L19.0688 5.54432C19.2382 5.50188 19.3653 5.54432 19.4501 5.54432C19.5349 5.58675 19.5773 5.62919 19.662 5.71407C19.7044 5.79894 19.7467 5.92626 19.7891 6.05357C19.7891 6.18088 19.7891 6.26576 19.7467 6.39308C19.7044 6.47795 19.662 6.56283 19.5773 6.60526C19.662 6.6477 19.7467 6.69014 19.8315 6.77502C19.9162 6.8599 19.9162 6.98721 19.9586 7.11452C19.9586 7.28428 19.9586 7.45402 19.8738 7.58135C19.8315 7.70866 19.7467 7.79353 19.6196 7.83597C19.5349 7.87841 19.4077 7.87841 19.1535 7.92084L18.5603 8.00572L18.3907 5.62919ZM18.7721 5.9687L18.8145 6.52039L19.0264 6.47795C19.1535 6.47795 19.2382 6.43552 19.2806 6.43552C19.323 6.43552 19.3653 6.39308 19.4077 6.35064C19.4501 6.3082 19.4501 6.22332 19.4501 6.13845C19.4501 6.05357 19.4077 6.01113 19.4077 5.9687C19.3653 5.92626 19.323 5.88382 19.323 5.88382C19.2806 5.88382 19.1959 5.88382 18.984 5.92626L18.7721 5.9687ZM18.8569 6.94477L18.8992 7.58135L19.1959 7.5389C19.323 7.5389 19.4077 7.49646 19.4501 7.49646C19.4925 7.45402 19.5349 7.45402 19.5349 7.36915C19.5773 7.32671 19.5773 7.24184 19.5773 7.15696C19.5773 7.07208 19.5349 7.02964 19.5349 6.98721C19.4925 6.94477 19.4501 6.90233 19.4077 6.90233C19.3653 6.90233 19.2806 6.90233 19.1112 6.90233L18.8569 6.94477ZM20.4671 7.79353L20.2976 5.37456L21.5689 5.24725L21.6113 5.67163L20.679 5.7565L20.7214 6.3082L21.5689 6.22332L21.6113 6.6477L20.7637 6.73258L20.8061 7.36915L21.7384 7.28428L21.7807 7.70866L20.4671 7.79353ZM22.1621 7.62378L22.035 5.20481L22.374 5.16237L22.4587 6.22332L23.0944 5.11994L23.5605 5.0775L22.9673 6.05357L23.73 7.45402L23.3062 7.49646L22.7554 6.39308L22.5012 6.81746L22.5435 7.5389L22.1621 7.62378ZM23.9843 7.49646L23.8571 5.0775H24.1961L24.3232 7.49646H23.9843ZM24.6622 6.6477L25.0013 6.56283C25.0436 6.8599 25.1707 7.02964 25.3826 6.98721C25.4674 6.98721 25.5521 6.94477 25.6369 6.8599C25.6792 6.77502 25.7216 6.73258 25.7216 6.60526C25.7216 6.56283 25.7216 6.52039 25.6792 6.47795C25.6369 6.43552 25.6369 6.39308 25.5945 6.39308C25.5521 6.35064 25.4674 6.35064 25.2978 6.3082C25.1707 6.26576 25.0436 6.22332 24.9589 6.18088C24.8741 6.13845 24.8317 6.05357 24.7893 5.9687C24.747 5.88382 24.7046 5.7565 24.7046 5.67163C24.7046 5.54432 24.7046 5.417 24.747 5.33212C24.7893 5.20481 24.8741 5.11994 24.9589 5.0775C25.0436 5.03506 25.1707 4.99262 25.2978 4.99262C25.5098 4.99262 25.6369 5.03506 25.764 5.16237C25.8911 5.28968 25.9335 5.45944 25.9759 5.67163L25.6369 5.71407C25.6369 5.58675 25.5945 5.50188 25.5098 5.45944C25.4674 5.417 25.3826 5.37456 25.2978 5.37456C25.2131 5.37456 25.1284 5.417 25.086 5.45944C25.0436 5.50188 25.0013 5.54432 25.0013 5.62919C25.0013 5.71407 25.0436 5.7565 25.086 5.79894C25.1284 5.84138 25.2555 5.88382 25.425 5.92626C25.5945 5.9687 25.7216 6.01113 25.8063 6.09601C25.8911 6.13845 25.9335 6.22332 25.9759 6.35064C26.0183 6.43552 26.0606 6.56283 26.0606 6.73258C26.0606 6.94477 26.0183 7.11452 25.9335 7.28428C25.8487 7.45402 25.6792 7.49646 25.425 7.5389C25.0013 7.45402 24.747 7.1994 24.6622 6.6477ZM26.9081 7.28428L26.8657 5.28968H26.3572V4.8653L27.7132 4.82287V5.24725H27.2047L27.2471 7.24184L26.9081 7.28428ZM27.9675 6.05357C27.9675 5.7565 28.0099 5.54432 28.0522 5.33212C28.137 5.16237 28.2217 4.99262 28.3488 4.90774C28.476 4.82287 28.6031 4.78043 28.7726 4.78043C29.0269 4.78043 29.1963 4.8653 29.3658 5.0775C29.5354 5.28968 29.6201 5.58675 29.6201 6.01113C29.6201 6.39308 29.5354 6.73258 29.4083 6.94477C29.2811 7.15696 29.0692 7.24184 28.8149 7.24184C28.5607 7.24184 28.3912 7.15696 28.2217 6.94477C28.0522 6.73258 27.9675 6.43552 27.9675 6.05357ZM28.3064 6.01113C28.3064 6.3082 28.3488 6.47795 28.4336 6.6477C28.5184 6.77502 28.6455 6.8599 28.7726 6.8599C28.8997 6.8599 29.0269 6.77502 29.1116 6.6477C29.1963 6.52039 29.2387 6.3082 29.2387 6.01113C29.2387 5.71407 29.1963 5.54432 29.1116 5.37456C29.0269 5.24725 28.8997 5.16237 28.7726 5.16237C28.6455 5.16237 28.5184 5.24725 28.4336 5.37456C28.3488 5.50188 28.3064 5.71407 28.3064 6.01113ZM30.0439 7.15696V4.73799H30.3829L31.0609 6.35064V4.73799H31.3999V7.15696H31.0609L30.3829 5.58675V7.15696H30.0439ZM33.0525 7.11452V4.69556H33.7728C33.9424 4.69556 34.0695 4.73799 34.1542 4.78043C34.2389 4.82287 34.2813 4.90774 34.3661 4.99262C34.4085 5.11994 34.4509 5.24725 34.4509 5.37456C34.4509 5.54432 34.4085 5.71407 34.3237 5.84138C34.2389 5.9687 34.1542 6.01113 33.9847 6.05357C34.0695 6.09601 34.1118 6.18088 34.1542 6.26576C34.1966 6.35064 34.2813 6.47795 34.3661 6.6477L34.578 7.11452H34.1542L33.9 6.60526C33.8152 6.43552 33.7304 6.3082 33.7304 6.26576C33.6881 6.22332 33.6457 6.18088 33.6457 6.18088C33.6033 6.18088 33.561 6.13845 33.4762 6.13845H33.3915V7.15696L33.0525 7.11452ZM33.3915 5.71407H33.6457C33.8152 5.71407 33.9 5.71407 33.9424 5.67163C33.9847 5.67163 34.0271 5.62919 34.0271 5.58675C34.0695 5.54432 34.0695 5.45944 34.0695 5.37456C34.0695 5.28968 34.0695 5.24725 34.0271 5.20481C33.9847 5.16237 33.9847 5.11994 33.9 5.11994C33.8576 5.11994 33.7728 5.11994 33.6033 5.11994H33.3491V5.71407H33.3915ZM34.917 7.11452L34.9594 4.69556L36.2305 4.73799V5.16237H35.2983V5.71407H36.1458V6.13845H35.2983V6.77502H36.2305V7.1994L34.917 7.11452ZM36.5696 6.39308L36.9086 6.35064C36.951 6.6477 37.0781 6.81746 37.29 6.81746C37.3747 6.81746 37.4595 6.77502 37.5442 6.73258C37.5866 6.69014 37.6289 6.60526 37.6289 6.52039C37.6289 6.47795 37.6289 6.43552 37.5866 6.39308C37.5866 6.35064 37.5442 6.3082 37.5018 6.3082C37.4595 6.26576 37.3747 6.22332 37.2052 6.18088C37.0781 6.13845 36.951 6.05357 36.8662 6.01113C36.7815 5.9687 36.739 5.88382 36.6967 5.7565C36.6543 5.67163 36.6543 5.54432 36.6543 5.45944C36.6543 5.33212 36.6967 5.20481 36.739 5.11994C36.7815 5.03506 36.8662 4.95018 36.951 4.8653C37.0357 4.82287 37.1628 4.78043 37.29 4.78043C37.5018 4.78043 37.6289 4.8653 37.7561 4.99262C37.8832 5.11994 37.9256 5.28968 37.9256 5.54432H37.5866C37.5866 5.417 37.5442 5.33212 37.5018 5.28968C37.4595 5.24725 37.3747 5.20481 37.29 5.20481C37.2052 5.20481 37.1204 5.20481 37.0781 5.24725C37.0357 5.28969 36.9933 5.33212 36.9933 5.417C36.9933 5.50188 36.9933 5.54432 37.0781 5.58675C37.1204 5.62919 37.2052 5.67163 37.3747 5.7565C37.5442 5.79894 37.6713 5.88382 37.7561 5.9687C37.8409 6.05357 37.8832 6.13845 37.9256 6.22332C37.968 6.3082 37.968 6.43552 37.968 6.60526C37.968 6.81746 37.9256 6.98721 37.7985 7.11452C37.6713 7.24184 37.5018 7.32671 37.29 7.32671C36.8239 7.24184 36.6119 6.94477 36.5696 6.39308ZM38.307 7.28428L38.3917 4.8653L38.9426 4.90774C39.1544 4.90774 39.2816 4.95018 39.324 4.95018C39.4087 4.99262 39.4935 5.0775 39.5782 5.20481C39.6206 5.33212 39.6629 5.50188 39.6629 5.67163C39.6629 5.84138 39.6206 6.01113 39.5782 6.09601C39.5358 6.22332 39.4511 6.3082 39.3664 6.35064C39.2816 6.39308 39.1544 6.39308 38.9426 6.39308H38.7307L38.6883 7.28428H38.307ZM38.7307 5.28968V5.9687H38.9002C39.0273 5.9687 39.1121 5.9687 39.1544 5.9687C39.1968 5.9687 39.2392 5.92626 39.2816 5.84138C39.324 5.79894 39.324 5.71407 39.324 5.62919C39.324 5.54432 39.324 5.50188 39.2816 5.417C39.2392 5.37456 39.1968 5.33212 39.1544 5.28968C39.1121 5.28968 39.0273 5.24725 38.8579 5.24725L38.7307 5.28968ZM40.129 4.95018H40.4681L40.4257 6.26576C40.4257 6.47795 40.4257 6.60526 40.4257 6.6477C40.4257 6.77502 40.4681 6.8599 40.5104 6.90233C40.5528 6.94477 40.6375 6.98721 40.7223 6.98721C40.8071 6.98721 40.8495 6.98721 40.9342 6.94477C40.9766 6.90233 41.0189 6.8599 41.0613 6.77502C41.1037 6.69014 41.1037 6.56283 41.1037 6.3082L41.146 4.99262H41.4851L41.4427 6.26576C41.4427 6.60526 41.4003 6.81746 41.358 6.94477C41.3156 7.07208 41.2309 7.1994 41.146 7.28428C41.0189 7.36915 40.8918 7.41159 40.7223 7.41159C40.5528 7.41159 40.4257 7.36915 40.2986 7.28428C40.2138 7.1994 40.129 7.11452 40.0867 6.94477C40.0443 6.81746 40.0443 6.56283 40.0443 6.18088L40.129 4.95018ZM42.0359 5.03506L42.714 5.0775C42.8835 5.0775 43.0106 5.11994 43.0953 5.16237C43.1801 5.20481 43.2225 5.28968 43.2649 5.37456C43.3072 5.45944 43.3496 5.58675 43.3072 5.71407C43.3072 5.84138 43.2649 5.92626 43.2225 6.01113C43.18 6.09601 43.0953 6.18088 43.0529 6.22332C43.1377 6.26576 43.2225 6.35064 43.2649 6.43552C43.3072 6.52039 43.3496 6.6477 43.3072 6.81746C43.3072 6.98721 43.2649 7.15696 43.18 7.24184C43.0953 7.36915 43.0106 7.41159 42.9258 7.45402C42.8411 7.45402 42.714 7.45402 42.4597 7.45402L41.8665 7.41159L42.0359 5.03506ZM42.3326 5.45944L42.2902 6.01113H42.5021C42.6292 6.01113 42.714 6.01113 42.7564 6.01113C42.7987 6.01113 42.8835 5.9687 42.8835 5.92626C42.9258 5.88382 42.9258 5.84138 42.9258 5.7565C42.9258 5.67163 42.9258 5.62919 42.8835 5.58675C42.8411 5.54432 42.8411 5.50188 42.7987 5.50188C42.7564 5.50188 42.6715 5.45944 42.4597 5.45944H42.3326ZM42.2902 6.43552L42.2479 7.07208L42.5444 7.11452C42.6715 7.11452 42.7564 7.11452 42.7987 7.11452C42.8411 7.11452 42.8835 7.07208 42.8835 7.02964C42.9258 6.98721 42.9258 6.90233 42.9258 6.8599C42.9258 6.77502 42.9258 6.73258 42.8835 6.6477C42.8411 6.60526 42.8411 6.56283 42.7564 6.52039C42.714 6.47795 42.6292 6.47795 42.4597 6.47795L42.2902 6.43552ZM43.731 7.62378L43.8581 5.24725L44.1971 5.28968L44.0699 7.28428L44.9174 7.36915L44.8751 7.79353L43.731 7.62378ZM45.2988 7.79353L45.4683 5.37456L45.8073 5.417L45.6378 7.83597L45.2988 7.79353ZM46.1039 7.83597L46.3158 5.45944L46.6549 5.50188L46.57 6.56283L47.3752 5.58675L47.8413 5.62919L47.1209 6.47795L47.6719 8.00572L47.2481 7.96328L46.8667 6.77502L46.57 7.15696L46.4853 7.8784L46.1039 7.83597ZM49.4515 8.26035L49.0701 8.21791L48.9854 7.66622L48.3074 7.58135L48.138 8.0906L47.7566 8.04816L48.6465 5.71407L49.0278 5.7565L49.4515 8.26035ZM48.9007 7.24184L48.7312 6.3082L48.4345 7.15696L48.9007 7.24184ZM49.7482 7.5389H50.0872C50.0872 7.83597 50.2143 8.00573 50.4262 8.04816C50.5109 8.04816 50.5957 8.04816 50.6805 8.00572C50.7652 7.96328 50.7652 7.87841 50.8076 7.79353C50.8076 7.75109 50.8076 7.70866 50.8076 7.66622C50.8076 7.62378 50.7652 7.58135 50.7228 7.5389C50.6805 7.49646 50.5957 7.45402 50.4262 7.36915C50.2991 7.28428 50.172 7.24184 50.1296 7.15696C50.0872 7.07208 50.0024 6.98721 50.0024 6.90233C49.96 6.81746 49.96 6.69014 49.96 6.56283C49.96 6.43552 50.0024 6.3082 50.0872 6.22332C50.1296 6.13845 50.2143 6.05357 50.3414 6.01113C50.4262 5.9687 50.5533 5.9687 50.6805 5.9687C50.8923 6.01113 51.0194 6.09601 51.1042 6.22332C51.189 6.35064 51.2313 6.56283 51.2313 6.77502L50.8923 6.73258C50.8923 6.60526 50.8499 6.52039 50.8076 6.43552C50.7652 6.39308 50.6805 6.35064 50.5957 6.3082C50.5109 6.3082 50.4262 6.3082 50.3838 6.35064C50.3414 6.39308 50.2991 6.43552 50.2991 6.52039C50.2991 6.60526 50.2991 6.6477 50.3414 6.69014C50.3838 6.73258 50.4685 6.81746 50.6381 6.8599C50.8076 6.94477 50.9347 7.02964 50.977 7.11452C51.0618 7.1994 51.1042 7.28428 51.1466 7.36915C51.189 7.49646 51.189 7.58135 51.189 7.75109C51.1466 7.96328 51.1042 8.13304 50.977 8.26035C50.8499 8.38766 50.6805 8.43011 50.4262 8.38767C49.9177 8.38767 49.7482 8.0906 49.7482 7.5389ZM51.4432 8.59986L51.7398 6.22332L52.0788 6.26576L51.7822 8.64229L51.4432 8.59986Z" fill="url(#paint6_radial_91_784)"/>
<path fill-rule="evenodd" clip-rule="evenodd" d="M18.6452 11.9523L18.0943 11.9948L17.7976 11.3582L16.823 11.4855L16.6959 12.2069L16.1874 12.2918L16.7383 9.15147L17.2468 9.06657L18.6452 11.9523ZM17.5434 10.849L17.0349 9.78799L16.8654 10.9338L17.5434 10.849ZM18.7299 8.85438L19.6622 8.7695C19.874 8.72706 20.0859 8.7695 20.213 8.81193C20.3401 8.85438 20.4672 8.93927 20.5521 9.02417C20.6792 9.15147 20.7639 9.27877 20.8486 9.49098C20.9334 9.66069 20.9757 9.9153 21.0182 10.2124C21.0606 10.467 21.0606 10.7216 21.0182 10.8914C20.9757 11.1036 20.9334 11.2733 20.8486 11.3582C20.7639 11.4855 20.6792 11.5704 20.5521 11.6553C20.4249 11.7401 20.2554 11.7826 20.0859 11.7826L19.0689 11.8674L18.7299 8.85438ZM19.3231 9.32118L19.5351 11.3158L19.9164 11.2733C20.0859 11.2733 20.213 11.2309 20.2554 11.1884C20.3401 11.146 20.3825 11.1036 20.4249 11.0187C20.4672 10.9338 20.5097 10.849 20.5097 10.7216C20.5097 10.5943 20.5097 10.4246 20.5097 10.2124C20.4672 10.0002 20.4672 9.83048 20.4249 9.70318C20.3825 9.57579 20.3401 9.49098 20.2554 9.40608C20.1707 9.32118 20.0859 9.27877 20.0011 9.27877C19.9164 9.27877 19.7893 9.27877 19.5774 9.27877L19.3231 9.32118ZM21.7385 11.5279L21.5267 8.51487L22.0352 8.47244L22.2046 10.9763L23.4335 10.8914L23.4759 11.4006L21.7385 11.5279ZM24.0268 11.3582L23.8149 8.30268L24.3234 8.26024L24.5353 11.3158L24.0268 11.3582ZM25.8488 11.2733L25.7641 10.0002L24.7471 8.30268L25.3404 8.26024L25.976 9.44848L26.4845 8.21781L27.0778 8.17537L26.2726 10.0002L26.3573 11.2733H25.8488ZM29.6626 11.1036H29.1118L28.8575 10.4246L27.8829 10.467L27.7134 11.146H27.1625L28.01 8.09049H28.5609L29.6626 11.1036ZM28.688 9.91529L28.3066 8.81193L28.01 9.95779L28.688 9.91529ZM32.3747 11.0611L31.4848 8.00562H32.0356L32.6712 10.2548L33.2645 8.00562H33.8154L32.9255 11.0611H32.3747ZM36.2307 11.0611H35.6798L35.468 10.3821H34.4934L34.2814 11.0611H33.7306L34.7052 8.00562H35.2561L36.2307 11.0611ZM35.2985 9.83048L34.9595 8.68462L34.6205 9.83048H35.2985ZM36.485 11.1036V10.5519L37.8834 8.64219L36.7392 8.59975V8.09049L38.5613 8.17537V8.64219L37.1206 10.6368L38.519 10.6792V11.1884L36.485 11.1036ZM38.9851 11.1884L39.1122 8.13293H39.6207L39.4936 11.1884H38.9851ZM40.1716 11.2309L40.3835 8.17537L41.4429 8.26024C41.6971 8.26024 41.909 8.30268 42.0361 8.38755C42.1632 8.43 42.248 8.55731 42.2904 8.68462C42.3751 8.81194 42.3751 8.98167 42.3751 9.19387C42.3751 9.44848 42.2904 9.61828 42.1632 9.74559C42.0361 9.87289 41.8666 9.95779 41.6547 10.0002C41.7395 10.0851 41.8243 10.17 41.909 10.2548C41.9937 10.3397 42.0785 10.5095 42.1632 10.7641L42.4175 11.3582L41.8243 11.3158L41.5276 10.6368C41.4005 10.3821 41.3158 10.2124 41.2734 10.17C41.231 10.1275 41.1886 10.0426 41.1462 10.0426C41.1038 10.0002 41.0191 10.0002 40.892 10.0002H40.8073L40.7225 11.2733L40.1716 11.2309ZM40.8073 9.53338L41.1886 9.57579C41.4005 9.57579 41.57 9.57579 41.6123 9.57579C41.6547 9.57579 41.7395 9.53338 41.7819 9.44848C41.8243 9.40608 41.8666 9.32118 41.8666 9.19387C41.8666 9.10897 41.8666 9.02416 41.8243 8.93927C41.7819 8.89682 41.7395 8.85438 41.6971 8.81193C41.6547 8.81193 41.5276 8.7695 41.2734 8.7695L40.892 8.72706L40.8073 9.53338ZM42.8836 11.4431L43.0954 8.43L43.6039 8.47244L43.4345 10.9763L44.6634 11.0611L44.6209 11.5704L42.8836 11.4431ZM45.1719 11.6553L45.4685 8.64219L45.977 8.68462L45.6804 11.6977L45.1719 11.6553ZM47.6296 10.849L47.672 10.3397L48.7314 10.467L48.6042 11.6553C48.4771 11.7826 48.3076 11.8674 48.0957 11.9099C47.8838 11.9948 47.672 11.9948 47.4601 11.9948C47.2059 11.9523 46.9939 11.8674 46.8245 11.7401C46.655 11.6128 46.5278 11.4006 46.4431 11.146C46.3583 10.8914 46.3584 10.5943 46.4007 10.2973C46.4431 9.95779 46.5278 9.70318 46.655 9.44848C46.7821 9.23628 46.9516 9.06657 47.1635 8.98167C47.3753 8.89682 47.5872 8.85438 47.7991 8.89682C48.0957 8.93927 48.3076 9.02416 48.4771 9.19387C48.6466 9.36367 48.7314 9.61828 48.7314 9.91529L48.2229 9.95779C48.2229 9.78799 48.1381 9.66069 48.0533 9.57579C47.9686 9.49098 47.8415 9.40608 47.7144 9.40608C47.5024 9.36367 47.333 9.44848 47.1635 9.57579C46.9939 9.74559 46.9092 9.95779 46.8668 10.2973C46.8245 10.6792 46.8668 10.9338 46.9939 11.146C47.0787 11.3158 47.2482 11.4431 47.4601 11.4431C47.5448 11.4431 47.672 11.4431 47.7567 11.4006C47.8838 11.3582 47.9686 11.3158 48.0533 11.2309L48.0957 10.849H47.6296ZM49.1975 12.2069L49.6636 9.19387L50.1721 9.27877L49.706 12.2918L49.1975 12.2069Z" fill="url(#paint7_radial_91_784)"/>
<path fill-rule="evenodd" clip-rule="evenodd" d="M48.4768 53.1171C47.4599 54.6448 46.3157 56.0029 45.0868 57.276C43.2223 55.5785 42.3324 53.0322 42.2053 47.0485C41.2307 37.9667 38.9848 34.7415 35.5948 30.7947C40.5527 35.2083 43.8156 38.5185 45.1292 45.945C45.4258 49.8069 46.6971 51.9713 48.4768 53.1171Z" fill="#92AAFF"/>
<path fill-rule="evenodd" clip-rule="evenodd" d="M50.8076 48.9584C50.2143 50.2315 49.5364 51.4197 48.8159 52.5232C46.6125 50.8681 46.1887 48.8311 45.6802 45.5633C45.1717 42.1258 43.9005 37.0757 37.3324 31.5164C40.9766 32.747 44.6632 36.8211 46.8667 40.7678C48.5617 44.46 48.9855 47.3457 50.8076 48.9584Z" fill="#92AAFF"/>
<path fill-rule="evenodd" clip-rule="evenodd" d="M15.4669 18.9971C15.6365 18.7849 15.8059 18.5727 15.9754 18.3606L28.0099 13.268C29.6625 13.2256 31.3576 13.1831 33.0525 13.1831C34.7476 13.1831 36.4002 13.2256 38.0527 13.3104L50.0873 18.403C50.2567 18.6152 50.4262 18.8274 50.5958 19.0395L36.8239 13.3953L51.7399 22.1375C51.6975 22.2224 51.6128 22.3497 51.5704 22.4346L36.5273 13.8621L50.172 24.4717C50.0873 24.5566 50.0449 24.6414 49.9601 24.7687L36.2307 14.3289L48.3922 26.636C48.3075 26.7208 48.2228 26.8057 48.138 26.8906L35.8493 14.7109L46.2735 28.5033C46.1888 28.5882 46.104 28.6306 45.9768 28.7155L35.3832 15.0504L43.9429 30.0735C43.8581 30.1159 43.731 30.2008 43.6463 30.2432L34.917 15.3051L41.4428 31.3466C41.3157 31.389 41.2309 31.4315 41.1037 31.4739L34.4085 15.5173L38.7732 32.2379C38.646 32.2803 38.5612 32.2803 38.4341 32.3227L33.8577 15.687L36.0188 32.832C35.8917 32.832 35.7646 32.8744 35.6798 32.8744L33.3492 15.7295L33.2645 33.0442C33.1373 33.0442 33.0102 33.0442 32.9254 33.0442L32.8407 15.7295L30.51 32.8744C30.3829 32.8744 30.2558 32.832 30.171 32.832L32.205 15.687L27.6285 32.3652C27.5014 32.3227 27.4167 32.3227 27.2895 32.2803L31.6541 15.5597L24.959 31.4739C24.8318 31.4315 24.747 31.389 24.6199 31.3466L31.1456 15.3051L22.4588 30.2432C22.374 30.2008 22.2469 30.1159 22.1622 30.0735L30.7219 15.0504L20.1282 28.7155C20.0435 28.6306 19.9587 28.5882 19.8315 28.5033L30.2557 14.7109L17.9671 26.8482C17.8823 26.7633 17.7975 26.6784 17.7128 26.5935L29.8744 14.2865L16.1026 24.7687C16.0179 24.6839 15.9754 24.599 15.8907 24.4717L29.5354 13.8621L14.4923 22.4346C14.4499 22.3497 14.3652 22.2224 14.3228 22.1375L29.2388 13.3953L15.4669 18.9971ZM17.5857 15.8992C17.6704 15.7295 17.7552 15.5597 17.8823 15.39L24.5352 13.5651C25.4251 13.4802 26.3149 13.4378 27.2471 13.3529L17.5857 15.8992ZM38.8155 13.3529C39.7478 13.3953 40.6377 13.4802 41.5275 13.5651L48.1804 15.39C48.2651 15.5597 48.3499 15.7295 48.477 15.8992L38.8155 13.3529Z" fill="url(#paint8_radial_91_784)"/>
<path fill-rule="evenodd" clip-rule="evenodd" d="M20.9757 57.276C19.7469 56.0029 18.6028 54.6024 17.5858 53.1171C19.3231 51.9713 20.5944 49.8069 20.9334 45.945C22.247 38.5185 25.5099 35.2083 30.4678 30.7947C27.0778 34.7415 24.8319 38.0092 23.8572 47.0485C23.7301 53.0322 22.8403 55.5785 20.9757 57.276Z" fill="#92AAFF"/>
<path fill-rule="evenodd" clip-rule="evenodd" d="M17.2466 52.5655C16.5263 51.4621 15.8482 50.2314 15.255 49.0007C17.0771 47.388 17.5009 44.5023 19.1959 40.8526C21.3994 36.9059 25.086 32.8318 28.7302 31.6011C22.1621 37.1605 20.8484 42.2106 20.3823 45.6481C19.8738 48.831 19.4502 50.8679 17.2466 52.5655Z" fill="#92AAFF"/>
<path fill-rule="evenodd" clip-rule="evenodd" d="M33.0525 18.4453C33.4338 18.4453 33.7304 18.7423 33.7304 19.1243C33.7304 19.4213 33.561 19.6335 33.3067 19.7608L33.3914 20.0155C33.3914 20.6521 33.3914 21.2886 33.3914 21.9676C33.6457 22.0949 33.7728 22.392 33.8575 22.7315C33.8575 23.2407 33.8575 23.7076 33.8575 24.2169C33.8152 24.514 33.7728 24.7686 33.6033 24.9383C33.6033 25.0656 33.6033 25.2354 33.6033 25.3627C33.8575 25.4476 34.0694 25.6173 34.2389 25.7871C35.0017 25.3627 35.6373 25.1505 36.1458 25.193C37.7984 25.193 38.5188 26.3388 40.0019 26.6782C40.9766 26.9753 41.9088 27.0177 42.5868 26.848C42.4597 26.6358 42.4173 26.4236 42.4173 26.169C42.4173 25.4476 43.0105 24.811 43.7732 24.811C44.4937 24.811 45.1293 25.4051 45.1293 26.169C45.1293 26.8904 44.7479 27.3572 44.197 27.6543L48.0955 37.2454H49.7482C48.6887 38.7307 47.1632 39.9613 43.9428 40.0462C41.2308 40.0462 39.1968 39.1126 37.9256 37.2878H39.4087L43.18 27.9514C42.0783 28.1636 40.7646 27.9514 40.0867 27.824C39.0697 27.6967 37.6289 27.1875 36.4425 26.848C35.7644 26.7207 35.0441 26.9329 34.4084 27.1451C34.2813 27.527 33.9423 27.8665 33.5609 27.9938C33.5609 29.7763 33.5609 31.5586 33.5609 33.3411C34.6627 33.4684 34.4084 34.9537 33.5609 35.1234C33.9423 35.4205 34.1965 35.8448 34.2813 36.439V39.3248C34.2389 41.0648 34.0271 42.5925 33.7304 43.993V45.0539H41.2731V45.733H42.6291V46.1998H44.2394V46.9212H33.0525H21.8231V46.1998H23.4333V45.733H24.7893V45.0539H32.332V43.993C32.0355 42.5925 31.8235 41.0648 31.7812 39.3248V36.439C31.8659 35.8448 32.1202 35.4205 32.5016 35.1234C31.6541 34.9537 31.3998 33.4684 32.5016 33.3411C32.5016 31.5586 32.5016 29.7763 32.5016 27.9938C32.1202 27.8665 31.7812 27.527 31.6541 27.1451C30.9761 26.8904 30.298 26.7207 29.6201 26.848C28.4335 27.1875 26.9928 27.6967 26.0182 27.824C25.3402 27.9938 24.0265 28.1636 22.9248 27.9514L26.6962 37.2878H28.1793C26.908 39.155 24.8741 40.0462 22.1621 40.0462C18.9416 39.9613 17.4161 38.7307 16.3567 37.2454H18.0093L21.9078 27.6543C21.3569 27.3572 20.9756 26.8904 20.9756 26.169C20.9756 25.4476 21.5688 24.811 22.3316 24.811C23.0519 24.811 23.6876 25.4051 23.6876 26.169C23.6876 26.4236 23.6452 26.6358 23.518 26.848C24.1961 27.0177 25.1284 26.9329 26.103 26.6782C27.5861 26.2963 28.3488 25.193 29.959 25.193C30.51 25.193 31.1456 25.4051 31.8659 25.7871C32.0355 25.5749 32.2473 25.4476 32.5016 25.3627C32.5016 25.2354 32.5016 25.0656 32.5016 24.9383C32.332 24.7686 32.2473 24.4715 32.2473 24.2169C32.2473 23.7076 32.2473 23.2407 32.2473 22.7315C32.2897 22.3496 32.4592 22.0949 32.7134 21.9676C32.7134 21.3311 32.7134 20.6945 32.7134 20.0155L32.7982 19.7608C32.544 19.676 32.3744 19.4213 32.3744 19.1243C32.3744 18.7423 32.6711 18.4453 33.0525 18.4453ZM47.2904 37.2454L43.9852 28.8851V37.2454H47.2904ZM40.129 37.2454L43.4343 28.8851V37.2454H40.129ZM18.7721 37.2454L22.0773 28.8851V37.2454H18.7721ZM25.9334 37.2454L22.6282 28.8851V37.2454H25.9334Z" fill="url(#paint9_radial_91_784)"/>
<path fill-rule="evenodd" clip-rule="evenodd" d="M25.3402 67.4611C26.5691 63.8963 22.3316 61.0954 22.4163 60.9681C22.5434 60.8832 19.8315 64.4055 25.3402 67.4611Z" fill="url(#paint10_radial_91_784)"/>
<path fill-rule="evenodd" clip-rule="evenodd" d="M24.1961 67.4189C20.5519 69.753 15.4669 65.2121 15.6364 65.1272C15.7212 65.0848 19.2383 63.8116 24.1961 67.4189Z" fill="url(#paint11_radial_91_784)"/>
<path fill-rule="evenodd" clip-rule="evenodd" d="M40.7223 67.4611C39.4934 63.8963 43.731 61.0954 43.6462 60.9681C43.519 60.8832 46.2311 64.4055 40.7223 67.4611Z" fill="url(#paint12_radial_91_784)"/>
<path fill-rule="evenodd" clip-rule="evenodd" d="M41.8664 67.4189C45.5106 69.753 50.5957 65.2121 50.4261 65.1272C50.3414 65.0848 46.8243 63.8116 41.8664 67.4189Z" fill="url(#paint13_radial_91_784)"/>
<path d="M4.23767 52.9051C6.44116 57.3612 10.9329 58.804 13.3059 57.0641C13.3059 57.0641 13.3059 57.0641 13.3059 57.0216C13.3059 57.0641 9.23795 55.6636 8.43278 54.9846C8.43278 55.0271 12.3737 56.4699 13.3059 57.0216C10.5515 53.7964 6.90728 51.5047 4.23767 52.9051Z" fill="url(#paint14_linear_91_784)"/>
<path d="M2.07642 47.3458C3.81379 51.7169 7.92415 53.3295 10.2972 51.8018C10.2972 51.8018 10.2972 51.8018 10.2972 51.7594C10.2972 51.8018 6.56816 50.2315 5.89016 49.5525C5.89016 49.595 9.44968 51.2077 10.2972 51.7594C7.96653 48.4916 4.70366 46.115 2.07642 47.3458Z" fill="url(#paint15_linear_91_784)"/>
<path d="M0.593262 41.4892C1.65264 45.7754 5.29688 47.7276 7.75462 46.5393C7.75462 46.5393 7.75462 46.5393 7.75462 46.4969C7.75462 46.5393 4.49175 44.6721 3.8985 43.9507C3.8985 43.9931 7.03425 45.8603 7.75462 46.4969C5.97487 43.1443 3.2205 40.5556 0.593262 41.4892Z" fill="url(#paint16_linear_91_784)"/>
<path d="M0.169556 36.0146C0.593306 40.2159 3.68668 42.4651 6.14442 41.6163C6.14442 41.6163 6.14442 41.6163 6.14442 41.5739C6.14442 41.6163 3.34768 39.4521 2.92392 38.7305C2.92392 38.773 5.59354 40.8949 6.14442 41.5739C5.00029 38.1788 2.75443 35.4204 0.169556 36.0146Z" fill="url(#paint17_linear_91_784)"/>
<path d="M0 30.7524C0 34.784 2.66962 37.1605 5.00024 36.5239C5.00024 36.5239 5.00024 36.5239 5.00024 36.4815C4.95787 36.5239 2.58487 34.2323 2.24587 33.5533C2.2035 33.5958 4.53412 35.8025 5.00024 36.4815C4.27987 33.1289 2.45775 30.328 0 30.7524Z" fill="url(#paint18_linear_91_784)"/>
<path d="M0.720319 25.4901C0.0846953 29.3519 2.20344 31.8983 4.44931 31.6012C4.40694 31.6436 2.58482 29.1822 2.37294 28.4608C2.33056 28.5032 4.11031 30.8797 4.44931 31.6012C4.27981 28.291 3.00856 25.4052 0.720319 25.4901Z" fill="url(#paint19_linear_91_784)"/>
<path d="M2.11888 20.5247C1.01712 24.1743 2.62737 26.8055 4.74612 26.7631C4.70374 26.8055 3.34775 24.2592 3.263 23.5377C3.22062 23.5802 4.53425 26.0416 4.74612 26.7631C5.00037 23.5377 4.23762 20.6096 2.11888 20.5247Z" fill="url(#paint20_linear_91_784)"/>
<path d="M4.15277 15.8567C2.62727 19.2518 3.64428 21.9677 5.59352 22.1375C5.55114 22.1799 4.70364 19.5488 4.74602 18.8698C4.70364 18.9123 5.55114 21.4161 5.59352 22.1375C6.35627 19.082 6.10202 16.1538 4.15277 15.8567Z" fill="url(#paint21_linear_91_784)"/>
<path d="M6.69514 11.4006C4.78827 14.5411 5.29676 17.2572 7.03414 17.6391C6.99177 17.6391 6.61039 15.0503 6.73752 14.3713C6.69514 14.3713 7.07652 16.9177 7.03414 17.6391C8.22064 14.7957 8.43251 11.9099 6.69514 11.4006Z" fill="url(#paint22_linear_91_784)"/>
<path d="M14.9582 48.5339C16.399 51.8441 15.9752 55.4514 13.4328 57.0215C13.4328 57.0215 13.4328 57.0215 13.3903 57.0215C13.3479 56.9791 13.7717 53.1597 13.814 52.3534C13.7717 52.3109 13.0514 55.9606 13.3903 57.0215C10.975 53.287 12.0344 49.2554 14.9582 48.5339Z" fill="url(#paint23_linear_91_784)"/>
<path d="M12.5429 43.696C13.6871 46.9638 12.9666 50.4013 10.4242 51.7593C10.4242 51.7593 10.4242 51.7593 10.3818 51.7593C10.3394 51.7168 11.0597 48.0671 11.1869 47.3033C11.1445 47.2608 10.1699 50.7408 10.3818 51.7593C8.43253 48.0672 9.70376 44.2478 12.5429 43.696Z" fill="url(#paint24_linear_91_784)"/>
<path d="M10.8903 38.9854C11.5683 42.2531 10.4242 45.436 7.88168 46.4544C7.88168 46.4544 7.88168 46.4544 7.83932 46.4544C7.79694 46.412 8.94105 43.017 9.1529 42.2955C9.11058 42.2531 7.75456 45.4784 7.83932 46.4544C6.48331 42.7623 8.13594 39.2825 10.8903 38.9854Z" fill="url(#paint25_linear_91_784)"/>
<path d="M10.0852 34.4446C10.2123 37.6698 8.72922 40.5557 6.18672 41.2346C6.14434 41.1922 7.75459 38.0942 8.05122 37.4577C8.00884 37.4152 6.27147 40.301 6.18672 41.2346C5.42397 37.5001 7.50034 34.3597 10.0852 34.4446Z" fill="url(#paint26_linear_91_784)"/>
<path d="M9.36482 30.2009C9.2377 33.3414 7.5851 36.015 5.12735 36.4818C5.08497 36.4394 6.86472 33.596 7.16134 32.9594C7.11897 32.917 5.25448 35.5906 5.12735 36.4818C4.78835 32.8746 6.99185 29.9888 9.36482 30.2009Z" fill="url(#paint27_linear_91_784)"/>
<path d="M9.40723 26.0841C8.81396 29.0972 6.86471 31.4737 4.53409 31.6011C4.49171 31.5586 6.56809 29.0547 6.94946 28.4606C6.94946 28.4182 4.78834 30.7523 4.53409 31.6011C4.78834 28.1636 7.24609 25.6173 9.40723 26.0841Z" fill="url(#paint28_linear_91_784)"/>
<path d="M10.0428 21.8829C9.06821 24.7688 6.94944 26.8482 4.83069 26.7633C4.83069 26.7209 7.03419 24.5141 7.50031 24.0048C7.50031 23.9624 5.21207 25.9994 4.83069 26.7633C5.50869 23.4531 8.13594 21.2039 10.0428 21.8829Z" fill="url(#paint29_linear_91_784)"/>
<path d="M11.2294 17.9786C9.87342 20.6945 7.66989 22.477 5.72064 22.1375C5.72064 22.0951 8.09363 20.1853 8.55976 19.7185C8.55976 19.676 6.18677 21.4161 5.72064 22.1375C6.82239 19.0819 9.53436 17.1298 11.2294 17.9786Z" fill="url(#paint30_linear_91_784)"/>
<path d="M12.8398 14.1593C11.1871 16.7056 8.8565 18.2333 7.1615 17.6816C7.1615 17.6392 9.61923 16.0266 10.1277 15.6447C10.1277 15.6022 7.67 17.0451 7.1615 17.6816C8.64462 14.7959 11.4414 13.1832 12.8398 14.1593Z" fill="url(#paint31_linear_91_784)"/>
<path d="M13.1787 9.02412C12.4159 11.9524 10.721 14.1166 8.8988 14.1591C8.8988 14.1591 10.6785 11.825 11.0599 11.3158C11.0599 11.3158 9.19544 13.4377 8.8988 14.1591C9.36488 10.9763 11.4837 8.5573 13.1787 9.02412Z" fill="url(#paint32_linear_91_784)"/>
<path d="M61.8251 52.9051C59.6216 57.3612 55.1299 58.804 52.7569 57.0641C52.7569 57.0641 52.7569 57.0641 52.7569 57.0216C52.7569 57.0641 56.8249 55.6636 57.63 54.9846C57.63 55.0271 53.6892 56.4699 52.7569 57.0216C55.5113 53.7964 59.1555 51.5047 61.8251 52.9051Z" fill="url(#paint33_linear_91_784)"/>
<path d="M63.986 47.3458C62.2486 51.7169 58.1383 53.3295 55.7653 51.8018C55.7653 51.8018 55.7653 51.8018 55.7653 51.7594C55.7653 51.8018 59.4943 50.2315 60.1723 49.5525C60.1723 49.595 56.6128 51.2077 55.7653 51.7594C58.0959 48.4916 61.3588 46.115 63.986 47.3458Z" fill="url(#paint34_linear_91_784)"/>
<path d="M65.4693 41.4892C64.41 45.7754 60.7657 47.7276 58.3079 46.5393C58.3079 46.5393 58.3079 46.5393 58.3079 46.4969C58.3079 46.5393 61.5708 44.6721 62.1641 43.9507C62.1641 43.9931 59.0283 45.8603 58.3079 46.4969C60.0453 43.1443 62.842 40.5556 65.4693 41.4892Z" fill="url(#paint35_linear_91_784)"/>
<path d="M65.8931 36.0146C65.4693 40.2159 62.3759 42.4651 59.9182 41.6163C59.9182 41.6163 59.9182 41.6163 59.9182 41.5739C59.9182 41.6163 62.7149 39.4521 63.1387 38.7305C63.1387 38.773 60.4691 40.8949 59.9182 41.5739C61.0623 38.1788 63.3081 35.4204 65.8931 36.0146Z" fill="url(#paint36_linear_91_784)"/>
<path d="M66.0624 30.7524C66.0624 34.784 63.3929 37.1605 61.0622 36.5239C61.0622 36.5239 61.0622 36.5239 61.0622 36.4815C61.1046 36.5239 63.4776 34.2323 63.8166 33.5533C63.859 33.5958 61.5284 35.8025 61.0622 36.4815C61.7826 33.1289 63.6047 30.328 66.0624 30.7524Z" fill="url(#paint37_linear_91_784)"/>
<path d="M65.3422 25.4901C65.9777 29.3519 63.859 31.8983 61.6132 31.6012C61.6556 31.6436 63.4776 29.1822 63.6896 28.4608C63.7319 28.5032 61.9521 30.8797 61.6132 31.6012C61.7827 28.291 63.0539 25.4052 65.3422 25.4901Z" fill="url(#paint38_linear_91_784)"/>
<path d="M63.9437 20.5247C65.0454 24.1743 63.4351 26.8055 61.3164 26.7631C61.3588 26.8055 62.7148 24.2592 62.7995 23.5377C62.8419 23.5802 61.5283 26.0416 61.3164 26.7631C61.0198 23.5377 61.8249 20.6096 63.9437 20.5247Z" fill="url(#paint39_linear_91_784)"/>
<path d="M61.9097 15.8567C63.4352 19.2518 62.4182 21.9677 60.4689 22.1375C60.5113 22.1799 61.3588 19.5488 61.3165 18.8698C61.3588 18.9123 60.5113 21.4161 60.4689 22.1375C59.7062 19.082 59.9604 16.1538 61.9097 15.8567Z" fill="url(#paint40_linear_91_784)"/>
<path d="M59.3672 11.4006C61.2741 14.5411 60.7656 17.2572 59.0282 17.6391C59.0705 17.6391 59.4519 15.0503 59.3248 14.3713C59.3672 14.3713 58.9858 16.9177 59.0282 17.6391C57.8417 14.7957 57.6298 11.9099 59.3672 11.4006Z" fill="url(#paint41_linear_91_784)"/>
<path d="M51.104 48.5339C49.6632 51.8441 50.087 55.4514 52.6295 57.0215C52.6295 57.0215 52.6295 57.0215 52.6719 57.0215C52.7142 56.9791 52.2905 53.1597 52.2481 52.3534C52.2905 52.3109 53.0108 55.9606 52.6719 57.0215C55.0872 53.287 54.0279 49.2554 51.104 48.5339Z" fill="url(#paint42_linear_91_784)"/>
<path d="M53.5194 43.696C52.3753 46.9638 53.0957 50.4013 55.6382 51.7593C55.6382 51.7593 55.6382 51.7593 55.6805 51.7593C55.7229 51.7168 55.0026 48.0671 54.8754 47.3033C54.9178 47.2608 55.8924 50.7408 55.6805 51.7593C57.6298 48.0672 56.3161 44.2478 53.5194 43.696Z" fill="url(#paint43_linear_91_784)"/>
<path d="M55.172 38.9854C54.494 42.2531 55.6382 45.436 58.1807 46.4544C58.1807 46.4544 58.1806 46.4544 58.223 46.4544C58.2654 46.412 57.1213 43.017 56.9094 42.2955C56.9517 42.2531 58.3077 45.4784 58.223 46.4544C59.579 42.7623 57.884 39.2825 55.172 38.9854Z" fill="url(#paint44_linear_91_784)"/>
<path d="M55.9773 34.4446C55.8502 37.6698 57.3333 40.5557 59.8758 41.2346C59.9182 41.1922 58.3079 38.0942 58.0113 37.4577C58.0537 37.4152 59.791 40.301 59.8758 41.2346C60.5962 37.5001 58.5622 34.3597 55.9773 34.4446Z" fill="url(#paint45_linear_91_784)"/>
<path d="M56.6975 30.2009C56.8246 33.3414 58.4773 36.015 60.935 36.4818C60.9774 36.4394 59.1976 33.596 58.901 32.9594C58.9434 32.917 60.8078 35.5906 60.935 36.4818C61.2739 32.8746 59.0705 29.9888 56.6975 30.2009Z" fill="url(#paint46_linear_91_784)"/>
<path d="M56.6554 26.0841C57.2487 29.0972 59.1979 31.4737 61.5286 31.6011C61.5709 31.5586 59.4946 29.0547 59.1132 28.4606C59.1132 28.4182 61.2743 30.7523 61.5286 31.6011C61.2743 28.1636 58.8165 25.6173 56.6554 26.0841Z" fill="url(#paint47_linear_91_784)"/>
<path d="M56.0197 21.8829C56.9943 24.7688 59.113 26.8482 61.2317 26.7633C61.2317 26.7209 59.0283 24.5141 58.5622 24.0048C58.5622 23.9624 60.8504 25.9994 61.2317 26.7633C60.5538 23.4531 57.9265 21.2039 56.0197 21.8829Z" fill="url(#paint48_linear_91_784)"/>
<path d="M54.8331 17.9786C56.1891 20.6945 58.3927 22.477 60.3419 22.1375C60.3419 22.0951 57.9689 20.1853 57.5028 19.7185C57.5028 19.676 59.8758 21.4161 60.3419 22.1375C59.2401 19.0819 56.5281 17.1298 54.8331 17.9786Z" fill="url(#paint49_linear_91_784)"/>
<path d="M53.2229 14.1593C54.8755 16.7056 57.2061 18.2333 58.9012 17.6816C58.9012 17.6392 56.4434 16.0266 55.9349 15.6447C55.9349 15.6022 58.3927 17.0451 58.9012 17.6816C57.418 14.7959 54.6213 13.1832 53.2229 14.1593Z" fill="url(#paint50_linear_91_784)"/>
<path d="M52.8839 9.02412C53.6467 11.9524 55.3417 14.1166 57.1638 14.1591C57.1638 14.1591 55.384 11.825 55.0027 11.3158C55.0027 11.3158 56.8672 13.4377 57.1638 14.1591C56.6977 10.9763 54.5365 8.5573 52.8839 9.02412Z" fill="url(#paint51_linear_91_784)"/>
<path fill-rule="evenodd" clip-rule="evenodd" d="M16.0177 59.3132C12.5853 59.1859 11.1446 58.8888 10.6784 58.0825C11.3564 64.1512 12.6277 68.098 14.8311 69.074C27.3742 67.9706 38.6883 67.9706 51.2312 69.074C53.4348 68.098 54.7059 64.1088 55.384 58.0825C54.9179 58.8888 53.4771 59.1434 50.0447 59.3132C38.7306 58.125 27.3318 58.125 16.0177 59.3132Z" fill="url(#paint52_radial_91_784)"/>
<path d="M18.9415 65.297C18.9415 65.297 18.899 65.297 18.8567 65.297C18.8143 65.297 18.8143 65.297 18.7719 65.297C18.7296 65.297 18.6872 65.297 18.6872 65.297H18.2634H18.1363H18.0092C17.9669 65.297 17.9668 65.297 17.9244 65.2545L17.882 65.2121C17.882 65.1696 17.882 65.1696 17.9244 65.1696L17.9669 65.1272C17.9669 65.1272 17.9669 65.0847 17.9669 65.0423C17.9669 64.8301 17.9668 64.4906 17.9244 64.1511C17.882 63.7692 17.8397 63.5146 17.7973 63.3448C17.7973 63.3024 17.7549 63.26 17.7549 63.2175C17.7126 63.1751 17.6702 63.1326 17.6278 63.1326C17.5431 63.1326 17.5007 63.1751 17.5007 63.26C17.5007 63.3024 17.5007 63.3024 17.5007 63.3024V63.3448C17.5007 63.3448 17.5007 63.3873 17.5007 63.4297C17.5007 63.4721 17.5007 63.5146 17.5007 63.5146V64.9999C17.5007 65.0423 17.5007 65.0847 17.5007 65.0847C17.5431 65.0847 17.5431 65.1272 17.5431 65.1272C17.5855 65.1696 17.5855 65.1696 17.5855 65.2121C17.5855 65.2545 17.5431 65.297 17.5007 65.297C17.4583 65.297 17.4159 65.297 17.3735 65.297C17.3312 65.297 17.3312 65.297 17.2888 65.297H16.8227C16.7803 65.297 16.738 65.297 16.6956 65.297C16.6532 65.297 16.6109 65.297 16.6109 65.297C16.5685 65.297 16.5261 65.2545 16.5261 65.2121C16.5261 65.1696 16.5261 65.1696 16.5685 65.1272C16.5685 65.1272 16.6109 65.0847 16.6532 65.0847C16.6532 65.0847 16.6532 65.0423 16.6956 64.9999C16.6956 64.9574 16.6956 64.915 16.6956 64.8726C16.6956 64.8301 16.6956 64.6604 16.6956 64.3633C16.6956 64.0663 16.6956 63.8116 16.6956 63.557V62.9629V62.7083C16.6956 62.6234 16.6956 62.5385 16.6956 62.4536C16.6956 62.3688 16.6956 62.2839 16.6956 62.199C16.6956 62.1142 16.6956 62.0717 16.6532 62.0717C16.6109 62.0293 16.6109 62.0293 16.6109 62.0293C16.6109 61.9868 16.6532 61.9868 16.6956 61.9868H16.738C16.7803 61.9868 16.7803 61.9868 16.8227 61.9868H17.3735H17.4583H17.5431C17.5855 61.9868 17.5855 61.9868 17.6278 61.9868L17.6702 62.0293C17.6702 62.0717 17.6702 62.0717 17.6278 62.1142L17.5855 62.1566V62.199C17.5855 62.2415 17.5855 62.2839 17.5855 62.3263V62.7507C17.5855 62.7932 17.5855 62.7931 17.5855 62.8356C17.5855 62.878 17.5855 62.878 17.5855 62.9205V62.9629C17.5855 63.0053 17.5855 63.0053 17.6278 63.0053C17.6702 63.0053 17.6702 63.0478 17.7126 63.0478C17.7549 63.0478 17.7549 63.0478 17.7973 63.0478C17.8397 63.0478 17.8397 63.0053 17.882 63.0053C17.9668 62.9629 18.0516 62.878 18.094 62.7931C18.1363 62.7083 18.1787 62.6234 18.2211 62.4536C18.2634 62.3263 18.3058 62.199 18.3482 62.1142C18.4329 61.9868 18.5601 61.902 18.6872 61.902C18.7719 61.902 18.8143 61.9444 18.899 61.9868C18.9414 62.0293 18.9839 62.1142 18.9839 62.199C18.9839 62.2839 18.9414 62.3263 18.899 62.3688C18.8567 62.4112 18.7719 62.4536 18.7296 62.4536C18.6872 62.4536 18.6872 62.4537 18.6448 62.4112C18.6025 62.4112 18.5601 62.3688 18.5601 62.3688C18.5177 62.3688 18.4754 62.3688 18.4754 62.4112C18.4329 62.4537 18.4329 62.4961 18.4329 62.581C18.4329 62.6234 18.4329 62.6658 18.4754 62.7083C18.4754 62.7507 18.5177 62.8356 18.5601 62.878C18.6872 63.1326 18.7719 63.3024 18.8143 63.4297C18.899 63.6843 18.9415 64.0238 18.9415 64.3633C18.9415 64.4906 18.9415 64.6179 18.9415 64.7028C18.9415 64.7877 18.9414 64.915 18.9839 64.9999C18.9839 65.0423 19.0262 65.0847 19.0262 65.0847L19.0686 65.1272L19.111 65.1696C18.9415 65.2545 18.9415 65.297 18.9415 65.297ZM20.9331 62.0293C20.8907 62.0717 20.8907 62.1142 20.8483 62.1142C20.8059 62.1566 20.8059 62.2415 20.8059 62.3263V64.1936C20.8059 64.6179 20.7636 64.8726 20.7212 65.0423C20.6365 65.2545 20.3822 65.3818 20.0009 65.3818C19.6618 65.3818 19.45 65.297 19.3228 65.0847C19.2381 64.9574 19.1957 64.7452 19.1957 64.4906V62.2415C19.1957 62.199 19.1957 62.199 19.1957 62.1566C19.1957 62.1142 19.1957 62.0717 19.1533 62.0717C19.1533 62.0717 19.1533 62.0717 19.111 62.0293C19.0686 62.0293 19.0686 61.9868 19.0686 61.9444C19.0686 61.902 19.111 61.8595 19.1533 61.8595C19.1957 61.8595 19.2381 61.8595 19.2381 61.8595C19.2804 61.8595 19.3228 61.8595 19.3652 61.8595H19.7042C19.7042 61.8595 19.7466 61.8595 19.7889 61.8595C19.8313 61.8595 19.8737 61.8595 19.8737 61.8595H19.9585C20.0432 61.8595 20.0432 61.8595 20.0432 61.902C20.0432 61.9444 20.0432 61.9444 20.0009 61.9868L19.9585 62.0293C19.9585 62.0293 19.9161 62.0717 19.9161 62.1142C19.9161 62.1142 19.9161 62.1566 19.9161 62.2415C19.9161 62.2839 19.9161 62.3263 19.9161 62.3688V63.8116C19.9161 64.0238 19.9161 64.1511 19.9161 64.236C19.9161 64.3209 19.9161 64.3633 19.9161 64.3633C19.9161 64.5331 19.9161 64.6179 19.9585 64.7028C20.0009 64.8301 20.0856 64.8726 20.2127 64.8726C20.3398 64.8726 20.4246 64.7877 20.467 64.6179C20.467 64.5331 20.5094 64.3633 20.5094 64.1087V62.5385C20.5094 62.4961 20.5094 62.4537 20.5094 62.4112C20.5094 62.3688 20.5094 62.3263 20.5094 62.2839C20.5094 62.2415 20.5094 62.199 20.5094 62.1566C20.5094 62.1142 20.467 62.1142 20.467 62.0717C20.467 62.0717 20.4246 62.0293 20.3822 62.0293C20.3398 61.9868 20.3398 61.9868 20.3398 61.9444C20.3398 61.902 20.3822 61.902 20.4246 61.902C20.4246 61.902 20.467 61.902 20.5094 61.902C20.5517 61.902 20.5517 61.902 20.5941 61.902H20.7636C20.8483 61.902 20.8907 61.902 20.9331 61.902C20.9755 61.902 21.0178 61.902 21.0178 61.9444C20.9755 61.9868 20.9331 62.0293 20.9331 62.0293ZM22.8399 62.4961C22.8399 62.581 22.8399 62.6658 22.7975 62.7083C22.7552 62.7507 22.7552 62.7507 22.7128 62.7507C22.6281 62.7507 22.5857 62.7083 22.5857 62.6658C22.5857 62.581 22.5433 62.4961 22.5433 62.4112C22.501 62.2839 22.4586 62.1566 22.3738 62.1142C22.3314 62.0293 22.2467 62.0293 22.2043 62.0293C22.1619 62.0293 22.1619 62.0293 22.1196 62.0717L22.0772 62.1142C22.0772 62.1142 22.0772 62.1566 22.0772 62.199C22.0772 62.2839 22.0772 62.3263 22.0772 62.3263C22.0772 62.3263 22.0772 62.3688 22.0772 62.4112V63.9389V64.5755V64.8301V64.9574C22.0772 65.0423 22.0772 65.1272 22.1196 65.1696C22.1619 65.2121 22.2043 65.2121 22.289 65.2121C22.3314 65.2121 22.3738 65.1696 22.4162 65.1272C22.4586 65.0847 22.4586 65.0423 22.4586 64.9574V64.915C22.4586 64.8726 22.4586 64.8726 22.4586 64.8726C22.4586 64.8301 22.4586 64.7877 22.501 64.7028C22.5433 64.6604 22.5857 64.6179 22.6281 64.6179C22.6704 64.6179 22.7128 64.6179 22.7552 64.6604C22.7975 64.7028 22.7975 64.7452 22.7975 64.7877C22.7975 64.915 22.7552 64.9999 22.6281 65.1272C22.501 65.2545 22.3738 65.297 22.2043 65.297C21.9501 65.297 21.6958 65.1272 21.5263 64.8301C21.3144 64.4906 21.1873 64.0238 21.1873 63.4297C21.1873 62.9205 21.272 62.4961 21.484 62.199C21.6534 61.902 21.8229 61.7747 22.0772 61.7747C22.1196 61.7747 22.2043 61.7747 22.2467 61.8171C22.289 61.8595 22.3314 61.8595 22.3738 61.8595C22.3738 61.8595 22.4162 61.8595 22.4586 61.8595C22.501 61.8595 22.5433 61.8595 22.5433 61.8171C22.5857 61.7747 22.5857 61.7747 22.6281 61.7747C22.7128 61.7747 22.7552 61.7747 22.7552 61.8171C22.7552 61.8595 22.7552 61.9444 22.7975 61.9868C22.8399 62.0717 22.8399 62.1566 22.8399 62.2415C22.8399 62.3263 22.8399 62.4112 22.8399 62.4961ZM25.1706 65.2545C25.1706 65.297 25.1282 65.3394 25.0858 65.3394C25.0858 65.3394 25.0435 65.3394 25.0011 65.3394C24.9587 65.3394 24.9164 65.3394 24.874 65.3394H24.4926C24.4502 65.3394 24.4502 65.3394 24.4079 65.3394C24.3654 65.3394 24.323 65.3394 24.2807 65.3394C24.2383 65.3394 24.1959 65.3394 24.1959 65.297C24.1959 65.2545 24.1959 65.2545 24.2383 65.2121C24.2383 65.2121 24.2807 65.1696 24.2807 65.1272C24.2807 65.0847 24.2807 65.0847 24.2807 65.0847V63.8965C24.2807 63.7692 24.2807 63.6419 24.2383 63.5995C24.1959 63.557 24.1536 63.5146 24.1112 63.5146C24.0265 63.5146 23.9841 63.5146 23.9841 63.557C23.9841 63.5995 23.9417 63.6419 23.9417 63.6843V63.7692V63.9389V65.0423C23.9417 65.0847 23.9417 65.1272 23.9841 65.1696L24.0265 65.2121C24.0265 65.2121 24.0688 65.2545 24.0688 65.297C24.0688 65.3394 24.0265 65.3818 23.9841 65.3818C23.9841 65.3818 23.9417 65.3818 23.8994 65.3818C23.8569 65.3818 23.8145 65.3818 23.8145 65.3818H23.4332C23.3908 65.3818 23.3484 65.3818 23.306 65.3818C23.2637 65.3818 23.2213 65.3818 23.1789 65.3818C23.1366 65.3818 23.0942 65.3819 23.0942 65.3394C23.0942 65.297 23.0942 65.2545 23.1366 65.2545C23.1789 65.2545 23.1789 65.1696 23.1789 65.0847C23.1789 64.8726 23.1789 64.6604 23.1789 64.4058C23.1789 64.1511 23.1789 63.9814 23.1789 63.9389C23.1789 63.7692 23.1789 63.5146 23.1789 63.1751C23.1789 62.8356 23.1789 62.5385 23.1789 62.2415C23.1789 62.199 23.1789 62.1566 23.1366 62.1142C23.1366 62.1142 23.0942 62.1142 23.0942 62.0717V62.0293C23.0942 61.9868 23.1366 61.9868 23.1789 61.9868C23.2213 61.9868 23.2637 61.9868 23.306 61.9868H23.7722C23.8569 61.9868 23.8994 61.9868 23.9417 61.9868C23.9841 61.9868 23.9841 61.9868 24.0265 61.9868C24.0688 61.9868 24.1112 61.9868 24.1112 62.0293C24.1112 62.0293 24.1112 62.0717 24.0688 62.0717L24.0265 62.1142C24.0265 62.1142 24.0265 62.1566 23.9841 62.1566C23.9841 62.1566 23.9841 62.199 23.9841 62.2839V62.9205C23.9841 63.0053 23.9841 63.0902 23.9841 63.1751C23.9841 63.2175 23.9841 63.26 24.0265 63.3024C24.0265 63.3448 24.0688 63.3448 24.0688 63.3448C24.1112 63.3448 24.1112 63.3448 24.1536 63.3448C24.1959 63.3448 24.2383 63.3448 24.2807 63.3024C24.323 63.26 24.323 63.2175 24.323 63.1751V62.9205V62.2415C24.323 62.1566 24.323 62.1142 24.323 62.1142C24.323 62.0717 24.323 62.0717 24.323 62.0717L24.2807 62.0293L24.2383 61.9868C24.2383 61.9444 24.2807 61.9444 24.323 61.9444C24.3654 61.9444 24.3654 61.9444 24.4079 61.9444C24.4502 61.9444 24.4502 61.9444 24.4926 61.9444H25.0011C25.0435 61.9444 25.0435 61.9444 25.0858 61.9444C25.1282 61.9444 25.1282 61.9444 25.1282 61.9444C25.1705 61.9444 25.2129 61.9444 25.2129 61.9868C25.2129 62.0293 25.2129 62.0293 25.1706 62.0717C25.1282 62.0717 25.1282 62.1142 25.1282 62.1566C25.1282 62.199 25.1282 62.4112 25.1282 62.7507C25.1282 63.0902 25.1282 63.4297 25.1282 63.7268C25.1282 64.1511 25.1282 64.4482 25.1282 64.6179C25.1282 64.7877 25.1282 64.915 25.1282 65.0423C25.1282 65.1272 25.1282 65.1696 25.1706 65.1696C25.1282 65.1696 25.1706 65.2121 25.1706 65.2545ZM33.7727 65.2545C33.7727 65.297 33.7727 65.297 33.7303 65.297C33.7303 65.297 33.6879 65.3394 33.6455 65.3394C33.6032 65.3394 33.6031 65.3394 33.5608 65.3394H33.5184C33.4761 65.3394 33.4761 65.3394 33.4337 65.3394C33.3913 65.3394 33.3913 65.3394 33.349 65.3394H33.2642H33.0099H32.8405C32.7981 65.3394 32.7981 65.3394 32.7557 65.3394C32.7557 65.3394 32.7133 65.3394 32.6709 65.3394C32.5862 65.3394 32.5438 65.297 32.5438 65.2545C32.5438 65.2121 32.5862 65.1696 32.6285 65.1696C32.6709 65.1696 32.7133 65.1272 32.7133 65.1272C32.7557 65.0847 32.7557 65.0847 32.7557 65.0423V64.9574C32.7557 64.8301 32.6709 64.7452 32.5862 64.7028C32.5014 64.6604 32.4591 64.6604 32.3743 64.6604C32.2472 64.6604 32.1624 64.7028 32.0777 64.7877C32.0353 64.8301 32.0353 64.915 32.0353 64.9999C32.0353 65.0847 32.0353 65.1272 32.0777 65.1696C32.0777 65.2121 32.12 65.2121 32.1624 65.2121C32.2048 65.2121 32.2048 65.2545 32.2048 65.297C32.2048 65.3394 32.2048 65.3394 32.2048 65.3394C32.2048 65.3394 32.1624 65.3818 32.12 65.3818H31.9929H31.8235H31.6115H31.5692C31.5268 65.3818 31.4844 65.3394 31.4844 65.297C31.4844 65.2545 31.5268 65.2121 31.5692 65.2121C31.6115 65.2121 31.6539 65.1696 31.6539 65.1272C31.6539 65.0847 31.6963 65.0423 31.6963 64.9574C31.6963 64.8726 31.7387 64.7877 31.7387 64.7028C31.7811 64.2784 31.8658 63.9389 31.9082 63.6419C31.9506 63.4297 31.9929 63.2175 32.0777 63.0053C32.1624 62.7507 32.1624 62.6234 32.1624 62.6234C32.1624 62.5385 32.2048 62.4537 32.2048 62.4112C32.2048 62.3688 32.2048 62.3263 32.1624 62.2839C32.1624 62.2415 32.12 62.2415 32.0777 62.199C32.0353 62.1566 31.9929 62.1566 31.9929 62.0717C31.9929 62.0293 31.9929 62.0293 32.0353 61.9868C32.0777 61.9868 32.0777 61.9444 32.12 61.9444C32.1624 61.9444 32.2048 61.9444 32.2472 61.9444C32.332 61.9444 32.3743 61.9444 32.3743 61.9444H32.5014C32.5014 61.9444 32.5862 61.9444 32.6709 61.902C32.7557 61.902 32.8405 61.902 32.8828 61.902C32.9252 61.902 32.9676 61.902 33.0099 61.9444C33.0523 61.9444 33.0523 61.9868 33.0947 62.0717C33.137 62.199 33.2218 62.5385 33.3066 63.0478C33.3913 63.557 33.4761 64.1087 33.5184 64.7028C33.5184 64.8726 33.5608 64.9574 33.5608 64.9999C33.5608 65.0847 33.6032 65.1696 33.6455 65.2121L33.6879 65.2545C33.7727 65.1696 33.7727 65.2121 33.7727 65.2545ZM32.6709 64.236C32.6709 64.1511 32.6709 64.1087 32.6709 64.0663C32.6709 64.0238 32.6285 63.8541 32.5862 63.6419C32.5862 63.557 32.5438 63.5146 32.5438 63.4721C32.5438 63.4297 32.5438 63.3448 32.5438 63.3024V63.2175C32.5438 63.1751 32.5438 63.1326 32.5438 63.1326C32.5438 63.0902 32.5014 63.0902 32.4591 63.0902C32.3743 63.0902 32.2896 63.26 32.2048 63.5995C32.1624 63.8541 32.12 64.1087 32.12 64.236C32.12 64.3633 32.1624 64.4058 32.2048 64.4482C32.2472 64.4906 32.2896 64.4906 32.3743 64.4906H32.4591C32.5438 64.4906 32.6285 64.4482 32.6285 64.4058C32.6709 64.3633 32.6709 64.2784 32.6709 64.236ZM36.1456 63.557C36.1456 63.8116 36.1456 64.0663 36.1033 64.236C36.0609 64.5331 35.9338 64.7453 35.7643 64.9574C35.6371 65.1272 35.51 65.2121 35.3829 65.297C35.2558 65.3394 35.1286 65.3818 34.9592 65.3818H34.7897C34.7473 65.3818 34.7049 65.3818 34.6625 65.3818C34.6201 65.3818 34.6201 65.3818 34.5778 65.3818H34.2812C34.2388 65.3818 34.1964 65.3818 34.154 65.3818C34.1116 65.3818 34.0693 65.3818 34.0693 65.3818C34.0269 65.3818 34.0269 65.3819 33.9845 65.3394C33.9422 65.3394 33.9422 65.297 33.9422 65.297C33.9422 65.297 33.9422 65.2545 33.9845 65.2545C33.9845 65.2545 33.9845 65.2545 34.0269 65.2121C34.0693 65.2121 34.0693 65.1696 34.0693 65.1272C34.0693 65.0847 34.0693 65.0847 34.1116 65.0423C34.1116 64.9999 34.1116 64.9999 34.1116 64.9574C34.1116 64.915 34.1116 64.8301 34.1116 64.7453C34.1116 64.6604 34.1116 64.5755 34.1116 64.5755V62.2839C34.1116 62.199 34.1116 62.1566 34.1116 62.1566C34.1116 62.1142 34.1116 62.1142 34.0693 62.0717C34.0269 62.0717 34.0269 62.0293 34.0269 61.9868C34.0269 61.9444 34.0269 61.9444 34.0693 61.9444C34.0693 61.9444 34.1116 61.9444 34.154 61.9444C34.1964 61.9444 34.2388 61.9444 34.2812 61.9444C34.3236 61.9444 34.3236 61.9444 34.3659 61.9444H34.7473C34.7897 61.9444 34.8321 61.9444 34.8744 61.9444C35.0015 61.9444 35.0863 61.9444 35.1286 61.9444C35.2134 61.9444 35.2558 61.9444 35.3406 61.9868C35.4253 61.9868 35.4677 62.0293 35.5524 62.0717C35.8067 62.199 36.0185 62.4537 36.1033 62.7931C36.1033 62.9629 36.1456 63.2175 36.1456 63.557ZM35.2134 64.1087V62.9205C35.2134 62.6658 35.2134 62.5385 35.2134 62.4536C35.2134 62.3688 35.2134 62.2839 35.171 62.2415C35.171 62.199 35.1286 62.1142 35.0863 62.1142C35.0439 62.0717 35.0015 62.0717 34.9592 62.0717C34.9168 62.0717 34.8744 62.0717 34.8744 62.1142C34.8321 62.1566 34.8321 62.199 34.8321 62.2415C34.8321 62.2839 34.8321 62.3263 34.8321 62.3263C34.8321 62.3688 34.8321 62.3688 34.8321 62.3688C34.8321 62.4112 34.8744 62.4961 34.8744 62.581V64.236V64.7453C34.8744 64.8301 34.8744 64.8726 34.8744 64.915C34.8744 64.9574 34.8744 64.9999 34.8744 64.9999C34.8744 65.0847 34.8744 65.1272 34.9168 65.1272C34.9592 65.1272 34.9592 65.1696 35.0015 65.1696C35.0863 65.1696 35.1286 65.1272 35.171 65.0423C35.171 64.9999 35.2134 64.9574 35.2134 64.8726C35.2134 64.7877 35.2134 64.7028 35.2558 64.6179C35.2558 64.5331 35.2558 64.4058 35.2558 64.2784L35.2134 64.1087ZM38.561 63.5995C38.561 63.9814 38.5186 64.2784 38.4763 64.5331C38.3915 64.8301 38.2644 65.0423 38.0525 65.2121C37.8831 65.3394 37.7136 65.3818 37.544 65.3818C37.3746 65.3818 37.2475 65.3394 37.1203 65.2545C36.9084 65.1272 36.7813 64.9574 36.6541 64.7453C36.527 64.4482 36.4423 64.0663 36.4423 63.557C36.4423 63.0478 36.527 62.6658 36.739 62.3688C36.9084 62.0717 37.1626 61.902 37.5017 61.902C37.6288 61.902 37.756 61.9444 37.8831 61.9868C38.0102 62.0293 38.0949 62.1142 38.2221 62.199C38.3915 62.3688 38.4763 62.6234 38.561 62.9205C38.5186 63.1326 38.561 63.3448 38.561 63.5995ZM37.7136 65.0847C37.7136 65.0423 37.7136 64.9999 37.6712 64.9574C37.6712 64.915 37.6288 64.8726 37.6288 64.8726C37.6288 64.8301 37.5864 64.7028 37.5864 64.5331V64.3209V63.5995V62.4536C37.5864 62.2839 37.5864 62.199 37.544 62.1142C37.5017 62.0717 37.4593 62.0293 37.3746 62.0293C37.3322 62.0293 37.2898 62.0293 37.2475 62.0717C37.2051 62.1142 37.2051 62.1566 37.2051 62.1566C37.2051 62.199 37.2475 62.2415 37.2475 62.2839C37.2475 62.3263 37.2475 62.3263 37.2475 62.3688C37.2475 62.4112 37.2475 62.4961 37.2475 62.581C37.2475 62.7083 37.2475 62.878 37.2475 63.0053C37.2475 63.1326 37.2475 63.3024 37.2475 63.4297V64.7877C37.2475 64.915 37.2898 64.9999 37.3322 65.0847C37.3746 65.1696 37.4593 65.2121 37.544 65.2121C37.5864 65.2121 37.6288 65.2121 37.6712 65.1696C37.7136 65.1272 37.7136 65.1272 37.7136 65.0847ZM40.4679 64.6604C40.4679 64.7028 40.4679 64.7028 40.4679 64.7453C40.4679 64.7877 40.4679 64.8301 40.4255 64.8726C40.4255 64.915 40.3832 64.9999 40.3832 65.0847C40.3832 65.1696 40.3832 65.2545 40.3832 65.3394C40.3832 65.3819 40.3832 65.3818 40.3832 65.3818C40.3832 65.3818 40.3408 65.4243 40.2984 65.4243C40.2561 65.4243 40.2137 65.4243 40.1713 65.3818C40.1289 65.3818 40.1289 65.3394 40.0865 65.3394C40.0441 65.3394 39.9594 65.297 39.8747 65.297H39.0695H38.9848H38.9C38.8153 65.297 38.8153 65.2545 38.8153 65.2121C38.8153 65.1696 38.8153 65.1696 38.8577 65.1696C38.8577 65.1696 38.9 65.1272 38.9424 65.1272C38.9424 65.0847 38.9848 65.0423 38.9848 64.915V64.3209V62.9205C38.9848 62.7931 38.9848 62.6658 38.9848 62.581C38.9848 62.4537 38.9848 62.3688 38.9848 62.2415C38.9848 62.1566 38.9848 62.1142 38.9424 62.1142L38.9 62.0717C38.8577 62.0717 38.8577 62.0293 38.8577 62.0293C38.8577 61.9868 38.9 61.9868 38.9424 61.9868C38.9424 61.9868 38.9848 61.9868 39.0271 61.9868C39.0695 61.9868 39.1119 61.9868 39.1119 61.9868H39.578C39.6628 61.9868 39.7052 61.9868 39.7476 61.9868C39.7899 61.9868 39.7899 61.9868 39.8323 61.9868C39.8747 61.9868 39.917 62.0293 39.917 62.0717C39.917 62.1142 39.917 62.1142 39.8747 62.1566C39.8747 62.1566 39.8323 62.1566 39.8323 62.199C39.8323 62.199 39.8323 62.199 39.8323 62.2415V62.4536V62.7083C39.8323 62.8356 39.8323 62.9629 39.8323 63.1326C39.8323 63.26 39.8323 63.3873 39.8323 63.557V64.6179C39.8323 64.7452 39.8323 64.8301 39.8323 64.8726C39.8323 64.9574 39.8323 64.9999 39.8323 65.0847C39.8323 65.1696 39.8323 65.2121 39.8747 65.2545C39.917 65.297 39.9594 65.297 39.9594 65.297C40.0018 65.297 40.0441 65.297 40.1289 65.2545C40.2137 65.2121 40.2561 65.0847 40.2561 64.9999C40.2561 64.915 40.2984 64.8726 40.3408 64.8301C40.3832 64.7877 40.4255 64.7453 40.4679 64.7453C40.4255 64.5755 40.4679 64.6179 40.4679 64.6604ZM42.7985 65.2545C42.7985 65.297 42.7985 65.297 42.7562 65.297C42.7562 65.297 42.7138 65.3394 42.6714 65.3394C42.6291 65.3394 42.6291 65.3394 42.5866 65.3394H42.5442C42.5019 65.3394 42.5019 65.3394 42.4595 65.3394C42.4171 65.3394 42.4171 65.3394 42.3748 65.3394H42.2901H42.0357H41.8663C41.8239 65.3394 41.8239 65.3394 41.7816 65.3394C41.7816 65.3394 41.7392 65.3394 41.6968 65.3394C41.612 65.3394 41.5696 65.297 41.5696 65.2545C41.5696 65.2121 41.612 65.1696 41.6545 65.1696C41.6968 65.1696 41.7392 65.1272 41.7392 65.1272C41.7816 65.0847 41.7816 65.0847 41.7816 65.0423V64.9574C41.7816 64.8301 41.6968 64.7452 41.612 64.7028C41.5273 64.6604 41.4849 64.6604 41.4002 64.6604C41.2731 64.6604 41.1883 64.7028 41.1035 64.7877C41.0611 64.8301 41.0611 64.915 41.0611 64.9999C41.0611 65.0847 41.0611 65.1272 41.1035 65.1696C41.1035 65.2121 41.146 65.2121 41.1883 65.2121C41.2307 65.2121 41.2307 65.2545 41.2307 65.297C41.2307 65.3394 41.2307 65.3394 41.2307 65.3394C41.2307 65.3394 41.1883 65.3818 41.1459 65.3818H41.0188H40.8493H40.6374H40.595C40.5526 65.3818 40.5103 65.3394 40.5103 65.297C40.5103 65.2545 40.5526 65.2121 40.595 65.2121C40.6374 65.2121 40.6798 65.1696 40.6798 65.1272C40.6798 65.0847 40.7222 65.0423 40.7222 64.9574C40.7222 64.8726 40.7646 64.7877 40.7646 64.7028C40.8069 64.2784 40.8917 63.9389 40.934 63.6419C40.9764 63.4297 41.0188 63.2175 41.1035 63.0053C41.1883 62.7507 41.1883 62.6234 41.1883 62.6234C41.1883 62.5385 41.2307 62.4537 41.2307 62.4112C41.2307 62.3688 41.2307 62.3263 41.1883 62.2839C41.1883 62.2415 41.1459 62.2415 41.1035 62.199C41.0611 62.1566 41.0188 62.1566 41.0188 62.0717C41.0188 62.0293 41.0188 62.0293 41.0611 61.9868C41.1035 61.9868 41.1035 61.9444 41.1459 61.9444C41.1883 61.9444 41.2307 61.9444 41.2731 61.9444C41.3578 61.9444 41.4002 61.9444 41.4002 61.9444H41.5273C41.5273 61.9444 41.612 61.9444 41.6968 61.902C41.7816 61.902 41.8663 61.902 41.9087 61.902C41.951 61.902 41.9934 61.902 42.0357 61.9444C42.0781 61.9444 42.0781 61.9868 42.1206 62.0717C42.1629 62.199 42.2477 62.5385 42.3324 63.0478C42.4171 63.557 42.5019 64.1087 42.5442 64.7028C42.5442 64.8726 42.5866 64.9574 42.5866 64.9999C42.5866 65.0847 42.6291 65.1696 42.6714 65.2121L42.7138 65.2545C42.7562 65.1696 42.7985 65.2121 42.7985 65.2545ZM41.6968 64.236C41.6968 64.1511 41.6968 64.1087 41.6968 64.0663C41.6968 64.0238 41.6545 63.8541 41.612 63.6419C41.612 63.557 41.5696 63.5146 41.5696 63.4721C41.5696 63.4297 41.5696 63.3448 41.5696 63.3024V63.2175C41.5696 63.1751 41.5696 63.1326 41.5696 63.1326C41.5696 63.0902 41.5273 63.0902 41.4849 63.0902C41.4002 63.0902 41.3154 63.26 41.2307 63.5995C41.1883 63.8541 41.1459 64.1087 41.1459 64.236C41.1459 64.3633 41.1883 64.4058 41.2307 64.4482C41.2731 64.4906 41.3154 64.4906 41.4002 64.4906H41.4849C41.5696 64.4906 41.6545 64.4482 41.6545 64.4058C41.6968 64.3633 41.6968 64.2784 41.6968 64.236ZM44.6631 62.4536C44.6631 62.4961 44.6631 62.4961 44.6631 62.5385C44.6631 62.5385 44.6207 62.581 44.5783 62.581C44.5359 62.581 44.4511 62.581 44.4511 62.5385C44.4088 62.4961 44.4088 62.4537 44.4088 62.4112V62.3263V62.2415C44.4088 62.199 44.4088 62.1566 44.3664 62.1566C44.324 62.1142 44.324 62.1142 44.2817 62.1142C44.2393 62.1142 44.2393 62.1142 44.1969 62.1566C44.1969 62.1566 44.1546 62.199 44.1546 62.2415V62.2839C44.1546 62.2839 44.1546 62.3263 44.1546 62.3688C44.1546 62.4112 44.1546 62.4537 44.1546 62.4961C44.1546 62.5385 44.1546 62.6234 44.1546 62.7083V63.1326V63.8541V64.3209V64.6604V64.9999C44.1546 65.0847 44.1546 65.1272 44.1546 65.1272C44.1546 65.1696 44.1969 65.1696 44.2393 65.2121C44.2817 65.2545 44.2817 65.2545 44.2817 65.297C44.2817 65.3394 44.2393 65.3818 44.1546 65.3818C44.1122 65.3818 44.0698 65.3818 44.0274 65.3818C43.985 65.3818 43.9426 65.3818 43.9426 65.3818H43.4765C43.4341 65.3818 43.3918 65.3818 43.3494 65.3818C43.307 65.3818 43.2647 65.3818 43.2647 65.3818C43.2223 65.3818 43.1799 65.3394 43.1799 65.297C43.1799 65.2545 43.1799 65.2121 43.2223 65.2121C43.2223 65.2121 43.2647 65.2121 43.2647 65.1696L43.307 65.1272C43.307 65.0847 43.307 65.0423 43.307 64.9999V64.6179V63.7692V63.1326C43.307 62.9629 43.307 62.7931 43.307 62.6234C43.307 62.4537 43.307 62.3263 43.3494 62.2415V62.199C43.3494 62.1566 43.3494 62.1142 43.307 62.1142C43.307 62.1142 43.2647 62.0717 43.2223 62.0717C43.1799 62.0717 43.1376 62.0717 43.1376 62.1142C43.0951 62.1566 43.0952 62.199 43.0952 62.2415V62.3263V62.4112C43.0952 62.4961 43.0104 62.5385 42.9256 62.5385C42.8833 62.5385 42.8409 62.5385 42.8409 62.4961C42.8409 62.4961 42.7985 62.4537 42.7985 62.4112C42.7985 62.3688 42.7985 62.2839 42.8409 62.199C42.8833 62.1142 42.8833 62.0293 42.8833 61.9868C42.8833 61.9444 42.8833 61.902 42.8833 61.902C42.8833 61.902 42.9256 61.8595 42.968 61.8595C43.0104 61.8595 43.0104 61.8595 43.0527 61.8595C43.0527 61.8595 43.0951 61.8595 43.1376 61.902C43.1799 61.902 43.2223 61.9444 43.2647 61.9444H43.985C44.0274 61.9444 44.0697 61.9444 44.0697 61.9444C44.1122 61.9444 44.1546 61.9444 44.1969 61.902C44.2393 61.902 44.2393 61.902 44.2817 61.902C44.324 61.902 44.324 61.902 44.3664 61.902C44.4511 61.902 44.4935 61.9444 44.4935 62.0293L44.5359 62.2839C44.5359 62.3263 44.5359 62.3688 44.5783 62.4112C44.6631 62.3688 44.6631 62.4112 44.6631 62.4536Z" fill="url(#paint53_radial_91_784)"/>
<path d="M46.9938 63.557C46.9938 63.8116 46.9938 64.0662 46.9514 64.236C46.909 64.533 46.7819 64.7452 46.6124 64.9574C46.4853 65.1272 46.3582 65.212 46.2311 65.2969C46.1039 65.3393 45.9768 65.3818 45.8073 65.3818H45.6377C45.5954 65.3818 45.553 65.3818 45.5106 65.3818C45.4683 65.3818 45.4683 65.3818 45.4259 65.3818H45.1293C45.0869 65.3818 45.0445 65.3818 45.0022 65.3818C44.9598 65.3818 44.9174 65.3818 44.9174 65.3818C44.8751 65.3818 44.8751 65.3818 44.8327 65.3393C44.7903 65.3393 44.7903 65.2969 44.7903 65.2969C44.7903 65.2969 44.7903 65.2545 44.8327 65.2545C44.8327 65.2545 44.8327 65.2545 44.8751 65.212C44.9174 65.212 44.9174 65.1696 44.9174 65.1272C44.9174 65.0847 44.9174 65.0847 44.9598 65.0423C44.9598 64.9998 44.9598 64.9998 44.9598 64.9574C44.9598 64.915 44.9598 64.8301 44.9598 64.7452C44.9598 64.6603 44.9598 64.5755 44.9598 64.5755V62.2839C44.9598 62.199 44.9598 62.1566 44.9598 62.1566C44.9598 62.1141 44.9598 62.1141 44.9174 62.0717C44.8751 62.0717 44.8751 62.0292 44.8751 61.9868C44.8751 61.9444 44.8751 61.9443 44.9174 61.9443C44.9174 61.9443 44.9598 61.9443 45.0022 61.9443C45.0445 61.9443 45.0869 61.9443 45.1293 61.9443C45.1716 61.9443 45.1716 61.9443 45.214 61.9443H45.5954C45.6377 61.9443 45.6801 61.9443 45.7226 61.9443C45.8497 61.9443 45.9344 61.9443 45.9768 61.9443C46.0615 61.9443 46.1039 61.9444 46.1886 61.9868C46.2734 61.9868 46.3158 62.0292 46.4005 62.0717C46.6547 62.199 46.8667 62.4536 46.9514 62.7931C46.9938 62.9629 46.9938 63.2175 46.9938 63.557ZM46.1039 64.1087V62.9204C46.1039 62.6658 46.1039 62.5385 46.1039 62.4536C46.1039 62.3687 46.1039 62.2839 46.0615 62.2414C46.0615 62.199 46.0191 62.1141 45.9768 62.1141C45.9344 62.0717 45.892 62.0717 45.8497 62.0717C45.8073 62.0717 45.7649 62.0717 45.7649 62.1141C45.7225 62.1566 45.7226 62.199 45.7226 62.2414C45.7226 62.2839 45.7226 62.3263 45.7226 62.3263C45.7226 62.3687 45.7226 62.3687 45.7226 62.3687C45.7226 62.4112 45.7649 62.4961 45.7649 62.5809V64.236V64.7452C45.7649 64.8301 45.7649 64.8725 45.7649 64.915C45.7649 64.9574 45.7649 64.9998 45.7649 64.9998C45.7649 65.0847 45.7649 65.1272 45.8073 65.1272C45.8497 65.1272 45.8497 65.1696 45.892 65.1696C45.9768 65.1696 46.0191 65.1272 46.0615 65.0423C46.0615 64.9998 46.1039 64.9574 46.1039 64.8725C46.1039 64.7877 46.1039 64.7028 46.1462 64.6179C46.1462 64.533 46.1462 64.4057 46.1462 64.2784L46.1039 64.1087ZM49.4515 65.2545C49.4515 65.2969 49.4515 65.2969 49.4092 65.2969C49.4092 65.2969 49.3668 65.3393 49.3244 65.3393C49.2821 65.3393 49.2821 65.3393 49.2397 65.3393H49.1973C49.1549 65.3393 49.1549 65.3393 49.1125 65.3393C49.0701 65.3393 49.0701 65.3393 49.0278 65.3393H48.943H48.6888H48.5193C48.4769 65.3393 48.4769 65.3393 48.4345 65.3393C48.4345 65.3393 48.3922 65.3393 48.3498 65.3393C48.2651 65.3393 48.2227 65.2969 48.2227 65.2545C48.2227 65.212 48.2651 65.1696 48.3074 65.1696C48.3498 65.1696 48.3922 65.1272 48.3922 65.1272C48.4345 65.0847 48.4345 65.0847 48.4345 65.0423V64.9574C48.4345 64.8301 48.3498 64.7452 48.2651 64.7028C48.1803 64.6603 48.1379 64.6603 48.0531 64.6603C47.926 64.6603 47.8413 64.7028 47.7566 64.7877C47.7142 64.8301 47.7142 64.915 47.7142 64.9998C47.7142 65.0847 47.7142 65.1272 47.7566 65.1696C47.7566 65.212 47.7989 65.212 47.8413 65.212C47.8837 65.212 47.8837 65.2545 47.8837 65.2969C47.8837 65.3393 47.8837 65.3393 47.8837 65.3393C47.8837 65.3393 47.8413 65.3818 47.7989 65.3818H47.6718H47.5023H47.2904H47.2481C47.2057 65.3818 47.1632 65.3393 47.1632 65.2969C47.1632 65.2545 47.2057 65.212 47.2481 65.212C47.2904 65.212 47.3328 65.1696 47.3328 65.1272C47.3328 65.0847 47.3752 65.0423 47.3752 64.9574C47.3752 64.8725 47.4175 64.7877 47.4175 64.7028C47.4599 64.2784 47.5446 63.9389 47.587 63.6419C47.6294 63.4297 47.6717 63.2175 47.7566 63.0053C47.8413 62.7507 47.8413 62.6234 47.8413 62.6234C47.8413 62.5385 47.8837 62.4536 47.8837 62.4112C47.8837 62.3687 47.8837 62.3263 47.8413 62.2839C47.8413 62.2414 47.7989 62.2414 47.7566 62.199C47.7142 62.1565 47.6718 62.1566 47.6718 62.0717C47.6718 62.0292 47.6718 62.0292 47.7142 61.9868C47.7566 61.9868 47.7566 61.9443 47.7989 61.9443C47.8413 61.9443 47.8837 61.9443 47.926 61.9443C48.0108 61.9443 48.0531 61.9443 48.0531 61.9443H48.1803C48.1803 61.9443 48.2651 61.9443 48.3498 61.9019C48.4345 61.9019 48.5193 61.9019 48.5616 61.9019C48.604 61.9019 48.6464 61.9019 48.6888 61.9443C48.7312 61.9443 48.7312 61.9868 48.7736 62.0717C48.8159 62.199 48.9007 62.5385 48.9854 63.0477C49.0701 63.557 49.1549 64.1087 49.1973 64.7028C49.1973 64.8725 49.2397 64.9574 49.2397 64.9998C49.2397 65.0847 49.2821 65.1696 49.3244 65.212L49.3668 65.2545C49.4092 65.1696 49.4515 65.212 49.4515 65.2545ZM48.3498 64.236C48.3498 64.1511 48.3498 64.1087 48.3498 64.0662C48.3498 64.0238 48.3074 63.854 48.2651 63.6419C48.2651 63.557 48.2227 63.5145 48.2227 63.4721C48.2227 63.4297 48.2227 63.3448 48.2227 63.3024V63.2175C48.2227 63.175 48.2227 63.1326 48.2227 63.1326C48.2227 63.0902 48.1803 63.0902 48.1379 63.0902C48.0531 63.0902 47.9684 63.2599 47.8837 63.5994C47.8413 63.854 47.7989 64.1087 47.7989 64.236C47.7989 64.3633 47.8413 64.4057 47.8837 64.4482C47.926 64.4906 47.9684 64.4906 48.0531 64.4906H48.1379C48.2227 64.4906 48.3074 64.4482 48.3074 64.4057C48.3498 64.3633 48.3498 64.2784 48.3498 64.236ZM30.3828 63.1751H26.3995V62.9629H30.3828V63.1751Z" fill="url(#paint54_radial_91_784)"/>
</g>
<defs>
<radialGradient id="paint0_radial_91_784" cx="0" cy="0" r="1" gradientUnits="userSpaceOnUse" gradientTransform="translate(31.872 37.5035) scale(104.792 104.948)">
<stop stop-color="#FBF6A6"/>
<stop offset="1" stop-color="#CAA835"/>
</radialGradient>
<radialGradient id="paint1_radial_91_784" cx="0" cy="0" r="1" gradientUnits="userSpaceOnUse" gradientTransform="translate(33.0316 38.8363) scale(44.1073 44.1733)">
<stop stop-color="#FBF6A6"/>
<stop offset="1" stop-color="#D7C265"/>
</radialGradient>
<radialGradient id="paint2_radial_91_784" cx="0" cy="0" r="1" gradientUnits="userSpaceOnUse" gradientTransform="translate(20.3362 50.2416) scale(31.3197 31.3663)">
<stop stop-color="#F9EF3F"/>
<stop offset="1" stop-color="#A6762E"/>
</radialGradient>
<radialGradient id="paint3_radial_91_784" cx="0" cy="0" r="1" gradientUnits="userSpaceOnUse" gradientTransform="translate(45.7066 50.2438) scale(31.3197 31.3663)">
<stop stop-color="#F9EF3F"/>
<stop offset="1" stop-color="#A6762E"/>
</radialGradient>
<radialGradient id="paint4_radial_91_784" cx="0" cy="0" r="1" gradientUnits="userSpaceOnUse" gradientTransform="translate(42.2473 43.4743) scale(14.4884 14.51)">
<stop stop-color="#FBF6A6"/>
<stop offset="1" stop-color="#D7C265"/>
</radialGradient>
<radialGradient id="paint5_radial_91_784" cx="0" cy="0" r="1" gradientUnits="userSpaceOnUse" gradientTransform="translate(23.8159 43.4743) scale(14.4884 14.51)">
<stop stop-color="#FBF6A6"/>
<stop offset="1" stop-color="#D7C265"/>
</radialGradient>
<radialGradient id="paint6_radial_91_784" cx="0" cy="0" r="1" gradientUnits="userSpaceOnUse" gradientTransform="translate(32.6993 6.60585) scale(19.0004 19.0287)">
<stop stop-color="#FBF4CE"/>
<stop offset="0.9882" stop-color="#FDE99E"/>
<stop offset="1" stop-color="#FFDE6F"/>
</radialGradient>
<radialGradient id="paint7_radial_91_784" cx="0" cy="0" r="1" gradientUnits="userSpaceOnUse" gradientTransform="translate(32.827 10.0552) scale(17.7575 17.7845)">
<stop stop-color="#FBF4CE"/>
<stop offset="0.9882" stop-color="#FDE99E"/>
<stop offset="1" stop-color="#FFDE6F"/>
</radialGradient>
<radialGradient id="paint8_radial_91_784" cx="0" cy="0" r="1" gradientUnits="userSpaceOnUse" gradientTransform="translate(21.0624 23.514) scale(25.1849 25.2227)">
<stop stop-color="#F9F2C5"/>
<stop offset="1" stop-color="#CFB575"/>
</radialGradient>
<radialGradient id="paint9_radial_91_784" cx="0" cy="0" r="1" gradientUnits="userSpaceOnUse" gradientTransform="translate(33.0316 32.7009) scale(16.6406 16.6654)">
<stop stop-color="#FBF6A6"/>
<stop offset="1" stop-color="#D7C265"/>
</radialGradient>
<radialGradient id="paint10_radial_91_784" cx="0" cy="0" r="1" gradientUnits="userSpaceOnUse" gradientTransform="translate(20.49 64.7225) scale(44.7233 44.79)">
<stop stop-color="#F9EF3F"/>
<stop offset="1" stop-color="#A6762E"/>
</radialGradient>
<radialGradient id="paint11_radial_91_784" cx="0" cy="0" r="1" gradientUnits="userSpaceOnUse" gradientTransform="translate(19.6369 69.7223) scale(12.4694 12.4885)">
<stop stop-color="#F9EF3F"/>
<stop offset="1" stop-color="#A6762E"/>
</radialGradient>
<radialGradient id="paint12_radial_91_784" cx="0" cy="0" r="1" gradientUnits="userSpaceOnUse" gradientTransform="translate(45.4884 64.921) scale(3.23406 3.23887)">
<stop stop-color="#F9EF3F"/>
<stop offset="1" stop-color="#A6762E"/>
</radialGradient>
<radialGradient id="paint13_radial_91_784" cx="0" cy="0" r="1" gradientUnits="userSpaceOnUse" gradientTransform="translate(46.4124 69.7223) scale(4.28297 4.28936)">
<stop stop-color="#F9EF3F"/>
<stop offset="1" stop-color="#A6762E"/>
</radialGradient>
<linearGradient id="paint14_linear_91_784" x1="4.86684" y1="55.9173" x2="12.7287" y2="54.2612" gradientUnits="userSpaceOnUse">
<stop stop-color="#FCD550"/>
<stop offset="0.1686" stop-color="#FCD550"/>
<stop offset="0.3804" stop-color="#FFFF93"/>
<stop offset="0.5098" stop-color="#FCD550"/>
<stop offset="0.6392" stop-color="#EDC44B"/>
<stop offset="0.9098" stop-color="#DCB444"/>
<stop offset="1" stop-color="#FCD550"/>
</linearGradient>
<linearGradient id="paint15_linear_91_784" x1="3.01362" y1="50.6016" x2="9.38531" y2="48.6684" gradientUnits="userSpaceOnUse">
<stop stop-color="#FCD550"/>
<stop offset="0.1686" stop-color="#FCD550"/>
<stop offset="0.3804" stop-color="#FFFF93"/>
<stop offset="0.5098" stop-color="#FCD550"/>
<stop offset="0.6392" stop-color="#EDC44B"/>
<stop offset="0.9098" stop-color="#DCB444"/>
<stop offset="1" stop-color="#FCD550"/>
</linearGradient>
<linearGradient id="paint16_linear_91_784" x1="1.70932" y1="44.8755" x2="6.61062" y2="43.1811" gradientUnits="userSpaceOnUse">
<stop stop-color="#FCD550"/>
<stop offset="0.1686" stop-color="#FCD550"/>
<stop offset="0.3804" stop-color="#FFFF93"/>
<stop offset="0.5098" stop-color="#FCD550"/>
<stop offset="0.6392" stop-color="#EDC44B"/>
<stop offset="0.9098" stop-color="#DCB444"/>
<stop offset="1" stop-color="#FCD550"/>
</linearGradient>
<linearGradient id="paint17_linear_91_784" x1="1.1216" y1="39.5722" x2="4.95531" y2="38.1704" gradientUnits="userSpaceOnUse">
<stop stop-color="#FCD550"/>
<stop offset="0.1686" stop-color="#FCD550"/>
<stop offset="0.3804" stop-color="#FFFF93"/>
<stop offset="0.5098" stop-color="#FCD550"/>
<stop offset="0.6392" stop-color="#EDC44B"/>
<stop offset="0.9098" stop-color="#DCB444"/>
<stop offset="1" stop-color="#FCD550"/>
</linearGradient>
<linearGradient id="paint18_linear_91_784" x1="0.8337" y1="34.3641" x2="3.80387" y2="33.0462" gradientUnits="userSpaceOnUse">
<stop stop-color="#FCD550"/>
<stop offset="0.1686" stop-color="#FCD550"/>
<stop offset="0.3804" stop-color="#FFFF93"/>
<stop offset="0.5098" stop-color="#FCD550"/>
<stop offset="0.6392" stop-color="#EDC44B"/>
<stop offset="0.9098" stop-color="#DCB444"/>
<stop offset="1" stop-color="#FCD550"/>
</linearGradient>
<linearGradient id="paint19_linear_91_784" x1="0.994923" y1="29.2633" x2="3.77125" y2="28.0284" gradientUnits="userSpaceOnUse">
<stop stop-color="#FCD550"/>
<stop offset="0.1686" stop-color="#FCD550"/>
<stop offset="0.3804" stop-color="#FFFF93"/>
<stop offset="0.5098" stop-color="#FCD550"/>
<stop offset="0.6392" stop-color="#EDC44B"/>
<stop offset="0.9098" stop-color="#DCB444"/>
<stop offset="1" stop-color="#FCD550"/>
</linearGradient>
<linearGradient id="paint20_linear_91_784" x1="1.8672" y1="24.3762" x2="4.65865" y2="23.0139" gradientUnits="userSpaceOnUse">
<stop stop-color="#FCD550"/>
<stop offset="0.1686" stop-color="#FCD550"/>
<stop offset="0.3804" stop-color="#FFFF93"/>
<stop offset="0.5098" stop-color="#FCD550"/>
<stop offset="0.6392" stop-color="#EDC44B"/>
<stop offset="0.9098" stop-color="#DCB444"/>
<stop offset="1" stop-color="#FCD550"/>
</linearGradient>
<linearGradient id="paint21_linear_91_784" x1="3.27631" y1="19.8196" x2="6.24653" y2="18.2889" gradientUnits="userSpaceOnUse">
<stop stop-color="#FCD550"/>
<stop offset="0.1686" stop-color="#FCD550"/>
<stop offset="0.3804" stop-color="#FFFF93"/>
<stop offset="0.5098" stop-color="#FCD550"/>
<stop offset="0.6392" stop-color="#EDC44B"/>
<stop offset="0.9098" stop-color="#DCB444"/>
<stop offset="1" stop-color="#FCD550"/>
</linearGradient>
<linearGradient id="paint22_linear_91_784" x1="5.12957" y1="15.481" x2="8.45488" y2="13.6735" gradientUnits="userSpaceOnUse">
<stop stop-color="#FCD550"/>
<stop offset="0.1686" stop-color="#FCD550"/>
<stop offset="0.3804" stop-color="#FFFF93"/>
<stop offset="0.5098" stop-color="#FCD550"/>
<stop offset="0.6392" stop-color="#EDC44B"/>
<stop offset="0.9098" stop-color="#DCB444"/>
<stop offset="1" stop-color="#FCD550"/>
</linearGradient>
<linearGradient id="paint23_linear_91_784" x1="12.0042" y1="53.2416" x2="16.0004" y2="52.3998" gradientUnits="userSpaceOnUse">
<stop stop-color="#FCD550"/>
<stop offset="0.1686" stop-color="#FCD550"/>
<stop offset="0.3804" stop-color="#FFFF93"/>
<stop offset="0.5098" stop-color="#FCD550"/>
<stop offset="0.6392" stop-color="#EDC44B"/>
<stop offset="0.9098" stop-color="#DCB444"/>
<stop offset="1" stop-color="#FCD550"/>
</linearGradient>
<linearGradient id="paint24_linear_91_784" x1="9.2074" y1="48.4097" x2="13.5842" y2="47.0816" gradientUnits="userSpaceOnUse">
<stop stop-color="#FCD550"/>
<stop offset="0.1686" stop-color="#FCD550"/>
<stop offset="0.3804" stop-color="#FFFF93"/>
<stop offset="0.5098" stop-color="#FCD550"/>
<stop offset="0.6392" stop-color="#EDC44B"/>
<stop offset="0.9098" stop-color="#DCB444"/>
<stop offset="1" stop-color="#FCD550"/>
</linearGradient>
<linearGradient id="paint25_linear_91_784" x1="6.82269" y1="43.5797" x2="11.8684" y2="41.8349" gradientUnits="userSpaceOnUse">
<stop stop-color="#FCD550"/>
<stop offset="0.1686" stop-color="#FCD550"/>
<stop offset="0.3804" stop-color="#FFFF93"/>
<stop offset="0.5098" stop-color="#FCD550"/>
<stop offset="0.6392" stop-color="#EDC44B"/>
<stop offset="0.9098" stop-color="#DCB444"/>
<stop offset="1" stop-color="#FCD550"/>
</linearGradient>
<linearGradient id="paint26_linear_91_784" x1="5.19414" y1="38.8026" x2="10.9709" y2="36.6913" gradientUnits="userSpaceOnUse">
<stop stop-color="#FCD550"/>
<stop offset="0.1686" stop-color="#FCD550"/>
<stop offset="0.3804" stop-color="#FFFF93"/>
<stop offset="0.5098" stop-color="#FCD550"/>
<stop offset="0.6392" stop-color="#EDC44B"/>
<stop offset="0.9098" stop-color="#DCB444"/>
<stop offset="1" stop-color="#FCD550"/>
</linearGradient>
<linearGradient id="paint27_linear_91_784" x1="4.1989" y1="34.5511" x2="10.1977" y2="31.8878" gradientUnits="userSpaceOnUse">
<stop stop-color="#FCD550"/>
<stop offset="0.1686" stop-color="#FCD550"/>
<stop offset="0.3804" stop-color="#FFFF93"/>
<stop offset="0.5098" stop-color="#FCD550"/>
<stop offset="0.6392" stop-color="#EDC44B"/>
<stop offset="0.9098" stop-color="#DCB444"/>
<stop offset="1" stop-color="#FCD550"/>
</linearGradient>
<linearGradient id="paint28_linear_91_784" x1="3.82581" y1="30.1116" x2="10.0426" y2="27.3466" gradientUnits="userSpaceOnUse">
<stop stop-color="#FCD550"/>
<stop offset="0.1686" stop-color="#FCD550"/>
<stop offset="0.3804" stop-color="#FFFF93"/>
<stop offset="0.5098" stop-color="#FCD550"/>
<stop offset="0.6392" stop-color="#EDC44B"/>
<stop offset="0.9098" stop-color="#DCB444"/>
<stop offset="1" stop-color="#FCD550"/>
</linearGradient>
<linearGradient id="paint29_linear_91_784" x1="4.32602" y1="25.6812" x2="10.451" y2="22.6925" gradientUnits="userSpaceOnUse">
<stop stop-color="#FCD550"/>
<stop offset="0.1686" stop-color="#FCD550"/>
<stop offset="0.3804" stop-color="#FFFF93"/>
<stop offset="0.5098" stop-color="#FCD550"/>
<stop offset="0.6392" stop-color="#EDC44B"/>
<stop offset="0.9098" stop-color="#DCB444"/>
<stop offset="1" stop-color="#FCD550"/>
</linearGradient>
<linearGradient id="paint30_linear_91_784" x1="5.36863" y1="21.5257" x2="11.447" y2="18.3924" gradientUnits="userSpaceOnUse">
<stop stop-color="#FCD550"/>
<stop offset="0.1686" stop-color="#FCD550"/>
<stop offset="0.3804" stop-color="#FFFF93"/>
<stop offset="0.5098" stop-color="#FCD550"/>
<stop offset="0.6392" stop-color="#EDC44B"/>
<stop offset="0.9098" stop-color="#DCB444"/>
<stop offset="1" stop-color="#FCD550"/>
</linearGradient>
<linearGradient id="paint31_linear_91_784" x1="6.97286" y1="17.4425" x2="12.9012" y2="14.2209" gradientUnits="userSpaceOnUse">
<stop stop-color="#FCD550"/>
<stop offset="0.1686" stop-color="#FCD550"/>
<stop offset="0.3804" stop-color="#FFFF93"/>
<stop offset="0.5098" stop-color="#FCD550"/>
<stop offset="0.6392" stop-color="#EDC44B"/>
<stop offset="0.9098" stop-color="#DCB444"/>
<stop offset="1" stop-color="#FCD550"/>
</linearGradient>
<linearGradient id="paint32_linear_91_784" x1="8.25225" y1="13.1144" x2="13.6917" y2="9.89927" gradientUnits="userSpaceOnUse">
<stop stop-color="#FCD550"/>
<stop offset="0.1686" stop-color="#FCD550"/>
<stop offset="0.3804" stop-color="#FFFF93"/>
<stop offset="0.5098" stop-color="#FCD550"/>
<stop offset="0.6392" stop-color="#EDC44B"/>
<stop offset="0.9098" stop-color="#DCB444"/>
<stop offset="1" stop-color="#FCD550"/>
</linearGradient>
<linearGradient id="paint33_linear_91_784" x1="61.1885" y1="55.9173" x2="53.3266" y2="54.2612" gradientUnits="userSpaceOnUse">
<stop stop-color="#FCD550"/>
<stop offset="0.1686" stop-color="#FCD550"/>
<stop offset="0.3804" stop-color="#FFFF93"/>
<stop offset="0.5098" stop-color="#FCD550"/>
<stop offset="0.6392" stop-color="#EDC44B"/>
<stop offset="0.9098" stop-color="#DCB444"/>
<stop offset="1" stop-color="#FCD550"/>
</linearGradient>
<linearGradient id="paint34_linear_91_784" x1="63.0412" y1="50.6016" x2="56.6698" y2="48.6684" gradientUnits="userSpaceOnUse">
<stop stop-color="#FCD550"/>
<stop offset="0.1686" stop-color="#FCD550"/>
<stop offset="0.3804" stop-color="#FFFF93"/>
<stop offset="0.5098" stop-color="#FCD550"/>
<stop offset="0.6392" stop-color="#EDC44B"/>
<stop offset="0.9098" stop-color="#DCB444"/>
<stop offset="1" stop-color="#FCD550"/>
</linearGradient>
<linearGradient id="paint35_linear_91_784" x1="64.3459" y1="44.8754" x2="59.4443" y2="43.1811" gradientUnits="userSpaceOnUse">
<stop stop-color="#FCD550"/>
<stop offset="0.1686" stop-color="#FCD550"/>
<stop offset="0.3804" stop-color="#FFFF93"/>
<stop offset="0.5098" stop-color="#FCD550"/>
<stop offset="0.6392" stop-color="#EDC44B"/>
<stop offset="0.9098" stop-color="#DCB444"/>
<stop offset="1" stop-color="#FCD550"/>
</linearGradient>
<linearGradient id="paint36_linear_91_784" x1="64.9335" y1="39.5721" x2="61.0997" y2="38.1703" gradientUnits="userSpaceOnUse">
<stop stop-color="#FCD550"/>
<stop offset="0.1686" stop-color="#FCD550"/>
<stop offset="0.3804" stop-color="#FFFF93"/>
<stop offset="0.5098" stop-color="#FCD550"/>
<stop offset="0.6392" stop-color="#EDC44B"/>
<stop offset="0.9098" stop-color="#DCB444"/>
<stop offset="1" stop-color="#FCD550"/>
</linearGradient>
<linearGradient id="paint37_linear_91_784" x1="65.2213" y1="34.3642" x2="62.2513" y2="33.0462" gradientUnits="userSpaceOnUse">
<stop stop-color="#FCD550"/>
<stop offset="0.1686" stop-color="#FCD550"/>
<stop offset="0.3804" stop-color="#FFFF93"/>
<stop offset="0.5098" stop-color="#FCD550"/>
<stop offset="0.6392" stop-color="#EDC44B"/>
<stop offset="0.9098" stop-color="#DCB444"/>
<stop offset="1" stop-color="#FCD550"/>
</linearGradient>
<linearGradient id="paint38_linear_91_784" x1="65.0599" y1="29.2633" x2="62.284" y2="28.0285" gradientUnits="userSpaceOnUse">
<stop stop-color="#FCD550"/>
<stop offset="0.1686" stop-color="#FCD550"/>
<stop offset="0.3804" stop-color="#FFFF93"/>
<stop offset="0.5098" stop-color="#FCD550"/>
<stop offset="0.6392" stop-color="#EDC44B"/>
<stop offset="0.9098" stop-color="#DCB444"/>
<stop offset="1" stop-color="#FCD550"/>
</linearGradient>
<linearGradient id="paint39_linear_91_784" x1="64.1879" y1="24.3763" x2="61.3966" y2="23.0139" gradientUnits="userSpaceOnUse">
<stop stop-color="#FCD550"/>
<stop offset="0.1686" stop-color="#FCD550"/>
<stop offset="0.3804" stop-color="#FFFF93"/>
<stop offset="0.5098" stop-color="#FCD550"/>
<stop offset="0.6392" stop-color="#EDC44B"/>
<stop offset="0.9098" stop-color="#DCB444"/>
<stop offset="1" stop-color="#FCD550"/>
</linearGradient>
<linearGradient id="paint40_linear_91_784" x1="62.7787" y1="19.8197" x2="59.8085" y2="18.2888" gradientUnits="userSpaceOnUse">
<stop stop-color="#FCD550"/>
<stop offset="0.1686" stop-color="#FCD550"/>
<stop offset="0.3804" stop-color="#FFFF93"/>
<stop offset="0.5098" stop-color="#FCD550"/>
<stop offset="0.6392" stop-color="#EDC44B"/>
<stop offset="0.9098" stop-color="#DCB444"/>
<stop offset="1" stop-color="#FCD550"/>
</linearGradient>
<linearGradient id="paint41_linear_91_784" x1="60.9253" y1="15.4807" x2="57.5998" y2="13.6736" gradientUnits="userSpaceOnUse">
<stop stop-color="#FCD550"/>
<stop offset="0.1686" stop-color="#FCD550"/>
<stop offset="0.3804" stop-color="#FFFF93"/>
<stop offset="0.5098" stop-color="#FCD550"/>
<stop offset="0.6392" stop-color="#EDC44B"/>
<stop offset="0.9098" stop-color="#DCB444"/>
<stop offset="1" stop-color="#FCD550"/>
</linearGradient>
<linearGradient id="paint42_linear_91_784" x1="54.0506" y1="53.2416" x2="50.0544" y2="52.3998" gradientUnits="userSpaceOnUse">
<stop stop-color="#FCD550"/>
<stop offset="0.1686" stop-color="#FCD550"/>
<stop offset="0.3804" stop-color="#FFFF93"/>
<stop offset="0.5098" stop-color="#FCD550"/>
<stop offset="0.6392" stop-color="#EDC44B"/>
<stop offset="0.9098" stop-color="#DCB444"/>
<stop offset="1" stop-color="#FCD550"/>
</linearGradient>
<linearGradient id="paint43_linear_91_784" x1="56.8475" y1="48.4096" x2="52.4708" y2="47.0817" gradientUnits="userSpaceOnUse">
<stop stop-color="#FCD550"/>
<stop offset="0.1686" stop-color="#FCD550"/>
<stop offset="0.3804" stop-color="#FFFF93"/>
<stop offset="0.5098" stop-color="#FCD550"/>
<stop offset="0.6392" stop-color="#EDC44B"/>
<stop offset="0.9098" stop-color="#DCB444"/>
<stop offset="1" stop-color="#FCD550"/>
</linearGradient>
<linearGradient id="paint44_linear_91_784" x1="59.2322" y1="43.5796" x2="54.1863" y2="41.8348" gradientUnits="userSpaceOnUse">
<stop stop-color="#FCD550"/>
<stop offset="0.1686" stop-color="#FCD550"/>
<stop offset="0.3804" stop-color="#FFFF93"/>
<stop offset="0.5098" stop-color="#FCD550"/>
<stop offset="0.6392" stop-color="#EDC44B"/>
<stop offset="0.9098" stop-color="#DCB444"/>
<stop offset="1" stop-color="#FCD550"/>
</linearGradient>
<linearGradient id="paint45_linear_91_784" x1="60.861" y1="38.8026" x2="55.0843" y2="36.6913" gradientUnits="userSpaceOnUse">
<stop stop-color="#FCD550"/>
<stop offset="0.1686" stop-color="#FCD550"/>
<stop offset="0.3804" stop-color="#FFFF93"/>
<stop offset="0.5098" stop-color="#FCD550"/>
<stop offset="0.6392" stop-color="#EDC44B"/>
<stop offset="0.9098" stop-color="#DCB444"/>
<stop offset="1" stop-color="#FCD550"/>
</linearGradient>
<linearGradient id="paint46_linear_91_784" x1="61.8558" y1="34.551" x2="55.8572" y2="31.8878" gradientUnits="userSpaceOnUse">
<stop stop-color="#FCD550"/>
<stop offset="0.1686" stop-color="#FCD550"/>
<stop offset="0.3804" stop-color="#FFFF93"/>
<stop offset="0.5098" stop-color="#FCD550"/>
<stop offset="0.6392" stop-color="#EDC44B"/>
<stop offset="0.9098" stop-color="#DCB444"/>
<stop offset="1" stop-color="#FCD550"/>
</linearGradient>
<linearGradient id="paint47_linear_91_784" x1="62.2292" y1="30.1115" x2="56.0124" y2="27.3465" gradientUnits="userSpaceOnUse">
<stop stop-color="#FCD550"/>
<stop offset="0.1686" stop-color="#FCD550"/>
<stop offset="0.3804" stop-color="#FFFF93"/>
<stop offset="0.5098" stop-color="#FCD550"/>
<stop offset="0.6392" stop-color="#EDC44B"/>
<stop offset="0.9098" stop-color="#DCB444"/>
<stop offset="1" stop-color="#FCD550"/>
</linearGradient>
<linearGradient id="paint48_linear_91_784" x1="61.729" y1="25.6808" x2="55.6039" y2="22.6928" gradientUnits="userSpaceOnUse">
<stop stop-color="#FCD550"/>
<stop offset="0.1686" stop-color="#FCD550"/>
<stop offset="0.3804" stop-color="#FFFF93"/>
<stop offset="0.5098" stop-color="#FCD550"/>
<stop offset="0.6392" stop-color="#EDC44B"/>
<stop offset="0.9098" stop-color="#DCB444"/>
<stop offset="1" stop-color="#FCD550"/>
</linearGradient>
<linearGradient id="paint49_linear_91_784" x1="60.6863" y1="21.5254" x2="54.6081" y2="18.3925" gradientUnits="userSpaceOnUse">
<stop stop-color="#FCD550"/>
<stop offset="0.1686" stop-color="#FCD550"/>
<stop offset="0.3804" stop-color="#FFFF93"/>
<stop offset="0.5098" stop-color="#FCD550"/>
<stop offset="0.6392" stop-color="#EDC44B"/>
<stop offset="0.9098" stop-color="#DCB444"/>
<stop offset="1" stop-color="#FCD550"/>
</linearGradient>
<linearGradient id="paint50_linear_91_784" x1="59.0826" y1="17.4423" x2="53.154" y2="14.2214" gradientUnits="userSpaceOnUse">
<stop stop-color="#FCD550"/>
<stop offset="0.1686" stop-color="#FCD550"/>
<stop offset="0.3804" stop-color="#FFFF93"/>
<stop offset="0.5098" stop-color="#FCD550"/>
<stop offset="0.6392" stop-color="#EDC44B"/>
<stop offset="0.9098" stop-color="#DCB444"/>
<stop offset="1" stop-color="#FCD550"/>
</linearGradient>
<linearGradient id="paint51_linear_91_784" x1="57.8028" y1="13.1143" x2="52.3634" y2="9.89918" gradientUnits="userSpaceOnUse">
<stop stop-color="#FCD550"/>
<stop offset="0.1686" stop-color="#FCD550"/>
<stop offset="0.3804" stop-color="#FFFF93"/>
<stop offset="0.5098" stop-color="#FCD550"/>
<stop offset="0.6392" stop-color="#EDC44B"/>
<stop offset="0.9098" stop-color="#DCB444"/>
<stop offset="1" stop-color="#FCD550"/>
</linearGradient>
<radialGradient id="paint52_radial_91_784" cx="0" cy="0" r="1" gradientUnits="userSpaceOnUse" gradientTransform="translate(32.139 63.6072) scale(25.0865 25.1237)">
<stop stop-color="#FBF6A6"/>
<stop offset="1" stop-color="#CAA835"/>
</radialGradient>
<radialGradient id="paint53_radial_91_784" cx="0" cy="0" r="1" gradientUnits="userSpaceOnUse" gradientTransform="translate(33.6833 65.1927) scale(18.3265 18.3544)">
<stop stop-color="#F3C85D"/>
<stop offset="1" stop-color="#A9915D"/>
</radialGradient>
<radialGradient id="paint54_radial_91_784" cx="0" cy="0" r="1" gradientUnits="userSpaceOnUse" gradientTransform="translate(33.6897 65.1925) scale(16.7008 16.7261)">
<stop stop-color="#F3C85D"/>
<stop offset="1" stop-color="#A9915D"/>
</radialGradient>
<clipPath id="clip0_91_784">
<rect width="66.0625" height="74.9899" fill="white" transform="translate(0 0.00512695)"/>
</clipPath>
</defs>
</svg>
