<svg width="101" height="100" viewBox="0 0 101 100" fill="none" xmlns="http://www.w3.org/2000/svg">
<path fill-rule="evenodd" clip-rule="evenodd" d="M50.0545 4.29299e-05C61.635 0.00015785 72.8572 4.01137 81.8089 11.35C90.7606 18.6886 96.888 28.9005 99.1471 40.246C101.406 51.5915 99.6572 63.3685 94.1982 73.5703C88.7391 83.7721 79.9077 91.7676 69.2088 96.1943C58.5098 100.621 46.6053 101.205 35.5236 97.8469C24.4418 94.4889 14.8685 87.3967 8.43488 77.7784C2.00122 68.1601 -0.894756 56.6109 0.240409 45.0989C1.37557 33.5868 6.47164 22.8241 14.6603 14.6445C19.3032 9.99467 24.8202 6.30701 30.8944 3.79383C36.9685 1.28065 43.48 -0.00857588 50.0545 4.29299e-05ZM64.4319 82.0335C59.0803 84.429 53.2137 85.4489 47.3666 85C41.5196 84.551 35.8779 82.6477 30.9557 79.4634C26.0335 76.2791 21.9872 71.915 19.1856 66.7688C16.3839 61.6227 14.9159 55.858 14.9155 50C14.9155 48.9006 14.9598 47.8454 15.0484 46.8345C15.1432 45.782 15.2864 44.734 15.4778 43.6904C15.5483 43.2929 15.4578 42.8837 15.2263 42.5528C14.9949 42.222 14.6414 41.9967 14.2435 41.9262C13.8457 41.8558 13.4362 41.9462 13.105 42.1775C12.7738 42.4087 12.5481 42.7616 12.4776 43.159C12.2711 44.2886 12.1161 45.4241 12.0124 46.5651C11.9052 47.7504 11.8515 48.897 11.8515 50.0052C11.85 56.3728 13.4443 62.6397 16.4889 68.2341C19.5336 73.8285 23.9317 78.5723 29.2824 82.0335C34.633 85.4946 40.7659 87.5629 47.1219 88.0494C53.4778 88.536 59.8546 87.4254 65.6708 84.8191C65.8586 84.7409 66.0288 84.6262 66.1715 84.4813C66.3142 84.3364 66.4265 84.1645 66.5016 83.9756C66.5767 83.7867 66.6132 83.5846 66.6089 83.3814C66.6047 83.1782 66.5597 82.9779 66.4767 82.7923C66.3938 82.6068 66.2745 82.4397 66.1258 82.3009C65.9772 82.1621 65.8023 82.0544 65.6114 81.9842C65.4205 81.914 65.2174 81.8824 65.0141 81.8918C64.8108 81.9012 64.6116 81.9511 64.4279 82.0386L64.4319 82.0335ZM43.9519 15.4293C44.955 15.2523 45.9684 15.1195 46.992 15.0309C48.0155 14.9424 49.0346 14.898 50.0493 14.898C59.3687 14.898 68.3065 18.5962 74.8964 25.1788C81.4862 31.7615 85.1883 40.6895 85.1883 49.9988C85.1883 51.0061 85.1441 52.0072 85.0554 53.0022C84.9668 53.9972 84.8392 54.989 84.6726 55.9778C84.6045 56.3768 84.698 56.7864 84.9323 57.1166C85.1666 57.4468 85.5227 57.6707 85.9221 57.7387C86.3215 57.8067 86.7316 57.7131 87.0622 57.479C87.3927 57.245 87.6166 56.8893 87.6847 56.4903C87.8717 55.4095 88.0112 54.3304 88.1034 53.2531C88.1956 52.1758 88.2421 51.0907 88.243 49.9975C88.243 39.8775 84.2184 30.1722 77.0547 23.0163C69.891 15.8604 60.1749 11.8401 50.0439 11.8401C48.9344 11.8401 47.8267 11.8885 46.7207 11.985C45.6148 12.0815 44.5142 12.2265 43.4189 12.4204C43.0195 12.4908 42.6644 12.717 42.4318 13.049C42.1992 13.3809 42.1082 13.7914 42.1787 14.1904C42.2492 14.5894 42.4755 14.9442 42.8078 15.1765C43.1401 15.4088 43.5511 15.4998 43.9506 15.4293H43.9519ZM80.2249 64.9298C79.6522 64.5737 79.0552 64.2583 78.4383 63.9858C78.1145 63.8421 77.7468 63.8328 77.4162 63.9599C77.0855 64.087 76.8189 64.3402 76.6751 64.6637C76.5313 64.9871 76.522 65.3545 76.6492 65.6848C76.7765 66.0151 77.0299 66.2815 77.3537 66.4252C77.8488 66.6434 78.328 66.8957 78.7879 67.1805C79.2103 67.4406 79.6105 67.7351 79.9843 68.061C80.4035 68.4285 80.7393 68.8812 80.9692 69.3888C81.1999 69.901 81.3191 70.4564 81.3188 71.0181V72.9738C81.3188 73.1807 81.2367 73.3792 81.0904 73.5256C80.9441 73.6719 80.7457 73.7541 80.5386 73.7544H59.7861C59.5789 73.7541 59.3803 73.6719 59.2338 73.5256C59.0873 73.3792 59.0049 73.1808 59.0045 72.9738V71.0181C59.0042 70.4564 59.1234 69.901 59.3541 69.3888C59.5841 68.8812 59.9198 68.4285 60.339 68.061C61.5882 67.0192 63.0403 66.2478 64.6033 65.7957C66.4051 65.2527 68.2792 64.9868 70.161 65.007C72.0653 65.0109 73.9106 64.3475 75.3756 63.1323C76.8406 61.9171 77.8325 60.2271 78.1786 58.3566C78.5247 56.4861 78.2031 54.5536 77.2697 52.8956C76.3363 51.2376 74.8503 49.9593 73.0704 49.283C71.2906 48.6067 69.3296 48.5753 67.5291 49.1945C65.7286 49.8137 64.2025 51.0441 63.2166 52.6716C62.2308 54.299 61.8475 56.2202 62.1337 58.1008C62.4199 59.9814 63.3573 61.7021 64.7828 62.9634C63.6907 63.2329 62.6283 63.6107 61.6112 64.0908C60.5146 64.6032 59.4939 65.264 58.5778 66.0547C57.8715 66.6756 57.3059 67.4398 56.9188 68.2963C56.5316 69.1529 56.3318 70.0821 56.3327 71.022V72.9777C56.3327 73.8933 56.6968 74.7716 57.345 75.419C57.9931 76.0665 58.8721 76.4301 59.7887 76.4301H80.5412C81.4578 76.4301 82.3369 76.0665 82.985 75.419C83.6332 74.7716 83.9973 73.8933 83.9973 72.9777V71.022C83.9982 70.0821 83.7984 69.1529 83.4112 68.2963C83.0241 67.4398 82.4585 66.6756 81.7522 66.0547C81.2756 65.639 80.7662 65.2622 80.2288 64.9285L80.2249 64.9298ZM66.3181 53.0635C65.4311 53.9517 64.8797 55.1194 64.758 56.3681C64.6362 57.6168 64.9515 58.8691 65.6503 59.9116C66.349 60.9542 67.388 61.7226 68.5901 62.0858C69.7923 62.4491 71.0834 62.3848 72.2435 61.904C73.4036 61.4231 74.361 60.5554 74.9525 59.4487C75.5441 58.342 75.7332 57.0646 75.4878 55.8342C75.2424 54.6037 74.5776 53.4965 73.6065 52.7007C72.6355 51.905 71.4183 51.4698 70.1623 51.4698C69.4481 51.4694 68.7408 51.6101 68.081 51.8835C67.4213 52.1569 66.8223 52.5581 66.3181 53.0635ZM32.9536 21.3766C32.6814 21.3763 32.4153 21.4566 32.1889 21.6074C31.9625 21.7583 31.7859 21.9729 31.6816 22.224C31.5772 22.4751 31.5498 22.7512 31.6027 23.0179C31.6557 23.2846 31.7866 23.5297 31.9789 23.722C32.1713 23.9143 32.4165 24.0456 32.6834 24.0987C32.9503 24.1518 33.2269 24.1245 33.4784 24.0206C33.7299 23.9166 33.9448 23.7406 34.0961 23.5145C34.2473 23.2885 34.328 23.0226 34.328 22.7508C34.328 22.3865 34.1832 22.0372 33.9255 21.7796C33.6678 21.5219 33.3182 21.377 32.9536 21.3766ZM64.2618 37.8319H37.4106C36.3217 37.8351 35.2782 38.2689 34.5083 39.0382C33.7384 39.8075 33.3047 40.8498 33.3019 41.9376V45.3235L48.3823 56.5289C49.0898 57.0592 49.9504 57.3458 50.8349 57.3458C51.7193 57.3458 52.5799 57.0592 53.2873 56.5289L68.3678 45.3235V41.9376C68.365 40.8498 67.9313 39.8075 67.1614 39.0382C66.3915 38.2689 65.3481 37.8351 64.2591 37.8319H64.2618ZM65.6309 43.9478V41.9376C65.6305 41.5748 65.4862 41.2272 65.2296 40.9706C64.9729 40.7139 64.6249 40.5693 64.2618 40.5686H37.4106C37.0474 40.5689 36.6991 40.7132 36.4424 40.9699C36.1857 41.2266 36.0414 41.5747 36.0414 41.9376V43.9478L50.0174 54.3313C50.2532 54.508 50.5401 54.6036 50.8349 54.6036C51.1297 54.6036 51.4165 54.508 51.6523 54.3313L65.6282 43.9478H65.6309ZM56.5001 66.291L56.5215 66.2631C56.8594 65.8079 57.2448 65.39 57.6713 65.0164C58.1639 64.5859 58.6872 64.1916 59.2371 63.837C59.3833 63.7441 59.5336 63.6499 59.6891 63.5556H37.4092C37.0461 63.5549 36.6981 63.4106 36.4414 63.154C36.1848 62.8974 36.0405 62.5494 36.0401 62.1867V50.7677L33.3006 48.7319V62.1854C33.3037 63.2729 33.7375 64.3151 34.5074 65.0841C35.2773 65.8531 36.3205 66.2866 37.4092 66.2897L56.5001 66.291ZM31.2441 48.3935H19.5466C19.1935 48.4045 18.8586 48.5524 18.6127 48.8058C18.3668 49.0592 18.2293 49.3982 18.2293 49.7511C18.2293 50.104 18.3668 50.443 18.6127 50.6964C18.8586 50.9498 19.1935 51.0977 19.5466 51.1087H31.2136V48.7332C31.2137 48.6193 31.223 48.5058 31.2415 48.3935H31.2441ZM51.0502 25.1117C51.0502 24.8489 50.9739 24.5917 50.8304 24.3713C50.6869 24.1509 50.4826 23.9768 50.242 23.8701L34.1712 16.7439C33.9974 16.6665 33.8092 16.6265 33.6188 16.6265C33.4285 16.6265 33.2404 16.6665 33.0666 16.7439L17.0636 23.8714C16.8239 23.9781 16.6202 24.1518 16.4772 24.3716C16.3343 24.5915 16.2581 24.8483 16.258 25.1104V28.7074C16.258 28.7194 16.258 28.7299 16.258 28.7418C16.258 28.7538 16.258 28.7645 16.258 28.7765C16.258 29.1364 16.4012 29.4816 16.656 29.736C16.9107 29.9905 17.2563 30.1335 17.6166 30.1335C17.7841 30.1397 17.9485 30.1806 18.0994 30.2537C18.2502 30.3269 18.3843 30.4305 18.4929 30.5581C18.6015 30.6857 18.6824 30.8346 18.7303 30.9951C18.7783 31.1556 18.7924 31.3243 18.7716 31.4905V44.151C18.7716 44.1789 18.7716 44.2068 18.7716 44.2346C18.7716 44.2625 18.7716 44.2904 18.7716 44.3183C18.7716 44.4966 18.8069 44.6732 18.8752 44.8379C18.9436 45.0027 19.0438 45.1525 19.1701 45.2785C19.2964 45.4045 19.4462 45.5044 19.6112 45.5725C19.7762 45.6406 19.953 45.6754 20.1315 45.6753H31.2428C31.2225 45.5577 31.2122 45.4389 31.2122 45.3196V41.9337C31.2115 40.6479 31.6141 39.3942 32.3634 38.3487V31.4956C32.3634 31.1356 32.5066 30.7904 32.7615 30.5358C33.0164 30.2812 33.3621 30.138 33.7225 30.138C34.083 30.138 34.4287 30.2812 34.6836 30.5358C34.9385 30.7904 35.0817 31.1356 35.0817 31.4956V36.2068C35.8193 35.9077 36.6079 35.7543 37.404 35.7553H37.8027V31.4956C37.8027 31.1356 37.946 30.7904 38.2008 30.5358C38.4557 30.2812 38.8015 30.138 39.1619 30.138C39.5224 30.138 39.8681 30.2812 40.123 30.5358C40.3779 30.7904 40.5211 31.1356 40.5211 31.4956V35.7553H43.2395V31.4956C43.2395 31.1356 43.3826 30.7904 43.6375 30.5358C43.8924 30.2812 44.2381 30.138 44.5986 30.138C44.9591 30.138 45.3048 30.2812 45.5597 30.5358C45.8146 30.7904 45.9578 31.1356 45.9578 31.4956V35.7553H48.6788V31.4956C48.6788 31.177 48.7519 30.1387 49.6984 30.1387C50.0587 30.1387 50.4042 29.9957 50.659 29.7412C50.9137 29.4867 51.0568 29.1416 51.0568 28.7817C51.0568 28.7697 51.0568 28.7589 51.0568 28.747C51.0568 28.735 51.0568 28.7246 51.0568 28.7126V25.1156L51.0502 25.1117ZM24.2203 42.9668V31.4956C24.2203 31.1356 24.0772 30.7904 23.8223 30.5358C23.5674 30.2812 23.2216 30.138 22.8612 30.138C22.5007 30.138 22.155 30.2812 21.9001 30.5358C21.6452 30.7904 21.502 31.1356 21.502 31.4956V42.9668H24.2203ZM29.657 42.9668V31.4956C29.657 31.1356 29.5138 30.7904 29.2589 30.5358C29.004 30.2812 28.6583 30.138 28.2978 30.138C27.9373 30.138 27.5916 30.2812 27.3367 30.5358C27.0818 30.7904 26.9387 31.1356 26.9387 31.4956V42.9668H29.657ZM48.3438 27.3543V25.9974L33.6329 19.4724L18.987 25.9961V27.3543H48.3438ZM83.2915 16.8061C75.6035 9.12656 65.4877 4.34747 54.6676 3.28294C43.8475 2.2184 32.9926 4.93434 23.9525 10.9681C14.9123 17.0018 8.24633 25.98 5.09014 36.3728C1.93396 46.7657 2.48291 57.9302 6.64349 67.9641C10.8041 77.9979 18.3189 86.2803 27.9074 91.4001C37.496 96.5199 48.565 98.1605 59.2286 96.0419C69.8922 93.9233 79.4904 88.1766 86.388 79.7814C93.2856 71.3863 97.0557 60.8619 97.056 50.0013C97.0632 43.8348 95.8502 37.7276 93.4869 32.0309C91.1236 26.3341 87.6565 21.16 83.2848 16.8061H83.2915Z" fill="url(#paint0_linear_197_1188)"/>
<defs>
<linearGradient id="paint0_linear_197_1188" x1="45.7494" y1="84.0001" x2="56.2383" y2="1.29713" gradientUnits="userSpaceOnUse">
<stop stop-color="#2B2892"/>
<stop offset="1" stop-color="#7773FB"/>
</linearGradient>
</defs>
</svg>
