<svg width="38" height="27" viewBox="0 0 38 27" fill="none" xmlns="http://www.w3.org/2000/svg">
<path opacity="0.4" d="M8.936 0.585952C14.792 0.585952 17.72 4.94195 17.72 13.654C17.72 17.854 16.988 21.046 15.524 23.23C14.06 25.414 11.912 26.506 9.08 26.506C3.224 26.506 0.296 22.198 0.296 13.582C0.296 9.33395 1.028 6.10595 2.492 3.89795C3.956 1.68995 6.104 0.585952 8.936 0.585952ZM8.972 4.04195C8.252 4.04195 7.628 4.18595 7.1 4.47395C6.572 4.73795 6.14 5.15795 5.804 5.73395C5.492 6.28595 5.24 6.84995 5.048 7.42595C4.856 7.97795 4.712 8.68595 4.616 9.54995C4.544 10.414 4.496 11.134 4.472 11.71C4.448 12.262 4.436 12.97 4.436 13.834C4.436 17.074 4.796 19.426 5.516 20.89C6.26 22.354 7.436 23.086 9.044 23.086C9.668 23.086 10.22 22.966 10.7 22.726C11.204 22.462 11.612 22.15 11.924 21.79C12.236 21.43 12.5 20.95 12.716 20.35C12.932 19.75 13.088 19.21 13.184 18.73C13.304 18.226 13.388 17.614 13.436 16.894C13.508 16.15 13.544 15.586 13.544 15.202C13.568 14.794 13.58 14.278 13.58 13.654C13.58 12.838 13.568 12.214 13.544 11.782C13.544 11.326 13.508 10.654 13.436 9.76595C13.364 8.85395 13.22 8.12195 13.004 7.56995C12.812 7.01795 12.548 6.44195 12.212 5.84195C11.9 5.24195 11.468 4.79795 10.916 4.50995C10.364 4.19795 9.716 4.04195 8.972 4.04195ZM20.5879 8.90195C20.6599 6.30995 21.4279 4.26995 22.8919 2.78195C24.3559 1.29395 26.3239 0.549953 28.7959 0.549953C31.1239 0.549953 33.0079 1.17395 34.4479 2.42195C35.8879 3.66995 36.6079 5.30195 36.6079 7.31795C36.6079 8.54195 36.2839 9.62195 35.6359 10.558C35.0119 11.47 34.1599 12.106 33.0799 12.466C34.4959 12.826 35.6119 13.534 36.4279 14.59C37.2439 15.622 37.6519 16.894 37.6519 18.406C37.6519 20.806 36.8239 22.762 35.1679 24.274C33.5119 25.786 31.3639 26.542 28.7239 26.542C26.1079 26.542 23.9959 25.786 22.3879 24.274C20.7799 22.762 19.9759 20.758 19.9759 18.262V17.722H23.9359C24.0559 21.25 25.6879 23.014 28.8319 23.014C30.2239 23.014 31.3279 22.618 32.1439 21.826C32.9599 21.01 33.3679 19.906 33.3679 18.514C33.3679 17.05 32.8999 15.982 31.9639 15.31C31.0279 14.638 29.8159 14.302 28.3279 14.302C27.8719 14.302 27.4399 14.314 27.0319 14.338V11.242H27.3919C28.1359 11.242 28.7719 11.206 29.2999 11.134C29.8279 11.038 30.3559 10.882 30.8839 10.666C31.4359 10.426 31.8559 10.054 32.1439 9.54995C32.4319 9.02195 32.5759 8.37395 32.5759 7.60595C32.5759 6.50195 32.2279 5.61395 31.5319 4.94195C30.8359 4.26995 29.8999 3.93395 28.7239 3.93395C26.0359 3.93395 24.6319 5.58995 24.5119 8.90195H20.5879Z" fill="#2D40D9"/>
</svg>
