<svg width="38" height="27" viewBox="0 0 38 27" fill="none" xmlns="http://www.w3.org/2000/svg">
<path opacity="0.4" d="M8.936 0.586929C14.792 0.586929 17.72 4.94293 17.72 13.6549C17.72 17.8549 16.988 21.0469 15.524 23.2309C14.06 25.4149 11.912 26.5069 9.08 26.5069C3.224 26.5069 0.296 22.1989 0.296 13.5829C0.296 9.33493 1.028 6.10693 2.492 3.89893C3.956 1.69093 6.104 0.586929 8.936 0.586929ZM8.972 4.04293C8.252 4.04293 7.628 4.18693 7.1 4.47493C6.572 4.73893 6.14 5.15893 5.804 5.73493C5.492 6.28693 5.24 6.85093 5.048 7.42693C4.856 7.97893 4.712 8.68693 4.616 9.55093C4.544 10.4149 4.496 11.1349 4.472 11.7109C4.448 12.2629 4.436 12.9709 4.436 13.8349C4.436 17.0749 4.796 19.4269 5.516 20.8909C6.26 22.3549 7.436 23.0869 9.044 23.0869C9.668 23.0869 10.22 22.9669 10.7 22.7269C11.204 22.4629 11.612 22.1509 11.924 21.7909C12.236 21.4309 12.5 20.9509 12.716 20.3509C12.932 19.7509 13.088 19.2109 13.184 18.7309C13.304 18.2269 13.388 17.6149 13.436 16.8949C13.508 16.1509 13.544 15.5869 13.544 15.2029C13.568 14.7949 13.58 14.2789 13.58 13.6549C13.58 12.8389 13.568 12.2149 13.544 11.7829C13.544 11.3269 13.508 10.6549 13.436 9.76693C13.364 8.85493 13.22 8.12293 13.004 7.57093C12.812 7.01893 12.548 6.44293 12.212 5.84293C11.9 5.24293 11.468 4.79893 10.916 4.51093C10.364 4.19893 9.716 4.04293 8.972 4.04293ZM37.7959 16.5709V20.0269H34.5919V26.0029H30.6319L30.5959 20.0269H19.9039V15.9589L30.7039 0.586929H34.5919V16.5709H37.7959ZM30.6679 16.5709V5.66293L23.2879 16.5709H30.6679Z" fill="#2D40D9"/>
</svg>
