<svg width="33" height="27" viewBox="0 0 33 27" fill="none" xmlns="http://www.w3.org/2000/svg">
<path opacity="0.4" d="M8.936 0.583999C14.792 0.583999 17.72 4.94 17.72 13.652C17.72 17.852 16.988 21.044 15.524 23.228C14.06 25.412 11.912 26.504 9.08 26.504C3.224 26.504 0.296 22.196 0.296 13.58C0.296 9.332 1.028 6.104 2.492 3.896C3.956 1.688 6.104 0.583999 8.936 0.583999ZM8.972 4.04C8.252 4.04 7.628 4.184 7.1 4.472C6.572 4.736 6.14 5.156 5.804 5.732C5.492 6.284 5.24 6.848 5.048 7.424C4.856 7.976 4.712 8.684 4.616 9.548C4.544 10.412 4.496 11.132 4.472 11.708C4.448 12.26 4.436 12.968 4.436 13.832C4.436 17.072 4.796 19.424 5.516 20.888C6.26 22.352 7.436 23.084 9.044 23.084C9.668 23.084 10.22 22.964 10.7 22.724C11.204 22.46 11.612 22.148 11.924 21.788C12.236 21.428 12.5 20.948 12.716 20.348C12.932 19.748 13.088 19.208 13.184 18.728C13.304 18.224 13.388 17.612 13.436 16.892C13.508 16.148 13.544 15.584 13.544 15.2C13.568 14.792 13.58 14.276 13.58 13.652C13.58 12.836 13.568 12.212 13.544 11.78C13.544 11.324 13.508 10.652 13.436 9.764C13.364 8.852 13.22 8.12 13.004 7.568C12.812 7.016 12.548 6.44 12.212 5.84C11.9 5.24 11.468 4.796 10.916 4.508C10.364 4.196 9.716 4.04 8.972 4.04ZM32.5759 0.655998V26H28.1839V8.576H21.9199V5.552C26.2879 5.552 28.7359 3.92 29.2639 0.655998H32.5759Z" fill="#2D40D9"/>
</svg>
