<svg width="104" height="104" viewBox="0 0 104 104" fill="none" xmlns="http://www.w3.org/2000/svg">
<path d="M88.9033 52.2188L102.178 53.2604L103.72 67.0711L66.9121 103.967L52.0949 89.1144L88.9033 52.2188Z" fill="url(#paint0_linear_787_8075)"/>
<path d="M14.8172 51.748L1.5253 50.7063L0 36.8956L36.8084 0L51.6256 14.8523L14.8172 51.748Z" fill="url(#paint1_linear_787_8075)"/>
<path d="M52.0949 14.8523L53.1341 1.54572L66.9121 0L103.72 36.8956L88.9033 51.748L52.0949 14.8523Z" fill="url(#paint2_linear_787_8075)"/>
<path d="M51.6256 89.1144L50.5864 102.438L36.8084 103.967L0 67.0711L14.8172 52.2188L51.6256 89.1144Z" fill="url(#paint3_linear_787_8075)"/>
<path d="M69.4766 55.2426C70.4991 55.7635 71.3204 56.5195 71.907 57.5108C72.4937 58.5021 72.7954 59.6446 72.7954 60.9215C72.7954 62.7696 72.0914 64.3153 70.7002 65.5922C69.309 66.8691 67.5993 67.5076 65.5879 67.5076H55.9165V43.9521H65.3868C67.3647 43.9521 68.9905 44.5234 70.2644 45.6827C71.5551 46.842 72.192 48.2869 72.192 50.0006C72.192 51.0255 71.9406 52.0336 71.4545 52.9744C70.9684 53.9489 70.2979 54.705 69.4766 55.2426ZM68.3704 50.5887C68.3704 49.6982 68.0687 48.9589 67.4485 48.3877C66.8283 47.8164 66.074 47.5308 65.1521 47.5308H59.7046V53.6633H65.1521C66.0908 53.6633 66.8618 53.3777 67.4652 52.7896C68.0687 52.2016 68.3704 51.4623 68.3704 50.5887ZM65.3365 63.8113C66.359 63.8113 67.2138 63.492 67.8675 62.8704C68.5212 62.2488 68.8564 61.4423 68.8564 60.4846C68.8564 59.5269 68.5212 58.7205 67.8675 58.0988C67.2138 57.4772 66.359 57.158 65.3365 57.158H59.7046V63.8281H65.3365V63.8113Z" fill="#35BFDC"/>
<path d="M46.4463 27.8398C38.4007 27.8398 31.8637 34.3923 31.8637 42.457C31.8637 46.002 33.1376 49.2615 35.2496 51.7985L26.5671 60.5016C25.5614 61.5096 25.5614 63.1562 26.5671 64.1642C27.5728 65.1723 29.2154 65.1723 30.2211 64.1642L39.222 55.1419C41.3508 56.3684 43.8147 57.0741 46.4463 57.0741C54.4918 57.0741 61.0288 50.5216 61.0288 42.457C61.0288 34.3923 54.4918 27.8398 46.4463 27.8398ZM46.4463 51.4625C41.5016 51.4625 37.4621 47.4302 37.4621 42.457C37.4621 37.4838 41.4848 33.4515 46.4463 33.4515C51.3909 33.4515 55.4305 37.4838 55.4305 42.457C55.4305 47.4302 51.3909 51.4625 46.4463 51.4625Z" fill="#35BFDC"/>
<defs>
<linearGradient id="paint0_linear_787_8075" x1="58.4314" y1="97.3091" x2="95.3098" y2="61.1009" gradientUnits="userSpaceOnUse">
<stop stop-color="white"/>
<stop offset="1" stop-color="#046873"/>
</linearGradient>
<linearGradient id="paint1_linear_787_8075" x1="45.2854" y1="6.66617" x2="8.40703" y2="42.8744" gradientUnits="userSpaceOnUse">
<stop stop-color="white"/>
<stop offset="1" stop-color="#046873"/>
</linearGradient>
<linearGradient id="paint2_linear_787_8075" x1="97.0723" y1="45.3988" x2="60.7756" y2="8.60491" gradientUnits="userSpaceOnUse">
<stop stop-color="white"/>
<stop offset="1" stop-color="#046873"/>
</linearGradient>
<linearGradient id="paint3_linear_787_8075" x1="6.64434" y1="58.5765" x2="42.9412" y2="95.3702" gradientUnits="userSpaceOnUse">
<stop stop-color="white"/>
<stop offset="1" stop-color="#046873"/>
</linearGradient>
</defs>
</svg>
