<svg width="48" height="48" viewBox="0 0 48 48" fill="none" xmlns="http://www.w3.org/2000/svg">
<g clip-path="url(#clip0_310_179)">
<rect width="48" height="48" rx="6" fill="#2D40D9"/>
<path d="M39.9995 34V10C39.9995 7.758 38.2415 6 35.9995 6C33.7575 6 31.9995 7.758 31.9995 10V34L35.9995 38L39.9995 34Z" stroke="white" stroke-width="3" stroke-linecap="round" stroke-linejoin="round"/>
<path d="M31.9995 14H39.9995" stroke="white" stroke-width="3" stroke-linecap="round" stroke-linejoin="round"/>
<path d="M36 38H10C8.93913 38 7.92172 37.5786 7.17157 36.8284C6.42143 36.0783 6 35.0609 6 34C6 32.9391 6.42143 31.9217 7.17157 31.1716C7.92172 30.4214 8.93913 30 10 30H18C19.0609 30 20.0783 29.5786 20.8284 28.8284C21.5786 28.0783 22 27.0609 22 26C22 24.9391 21.5786 23.9217 20.8284 23.1716C20.0783 22.4214 19.0609 22 18 22H12" stroke="white" stroke-width="3" stroke-linecap="round" stroke-linejoin="round"/>
</g>
<defs>
<clipPath id="clip0_310_179">
<rect width="48" height="48" rx="6" fill="white"/>
</clipPath>
</defs>
</svg>
