<svg width="20" height="20" viewBox="0 0 20 20" fill="none" xmlns="http://www.w3.org/2000/svg">
<path d="M11.9892 2.27118C15.16 2.27118 17.73 4.84119 17.73 8.01202M11.9892 5.22118C13.53 5.22118 14.78 6.47035 14.78 8.01202M8.00501 11.9712C8.75501 12.6904 9.63417 13.2754 10.6058 13.6904L11.0383 13.8745L12.3675 12.5245C12.6975 12.1895 13.175 12.0445 13.6358 12.1412L16.8558 12.8154C17.4008 12.9312 17.79 13.412 17.79 13.9687V16.287C17.79 17.1162 17.1183 17.7879 16.2892 17.7879H15.5767C12.2983 17.7879 9.06334 16.702 6.61667 14.5204C6.41501 14.3412 6.21917 14.1554 6.02834 13.9654L6.05917 13.9962C5.86834 13.8054 5.68334 13.6095 5.50417 13.4079C3.32167 10.962 2.23584 7.72702 2.23584 4.44868V3.73618C2.23584 2.90702 2.90751 2.23535 3.73667 2.23535H6.05501C6.61167 2.23535 7.09251 2.62452 7.20834 3.16952L7.88334 6.38952C7.97917 6.84952 7.83501 7.32785 7.50001 7.65785L6.15001 8.98702L6.33417 9.41952C6.74917 10.3904 7.28501 11.2212 8.00501 11.9712Z" stroke="#2D40D9" stroke-width="1.5" stroke-miterlimit="10" stroke-linecap="round" stroke-linejoin="round"/>
</svg>
