<svg width="32" height="32" viewBox="0 0 32 32" fill="none" xmlns="http://www.w3.org/2000/svg">
<rect width="32" height="32" rx="5" fill="white"/>
<path d="M23.3333 9.99987C22.6949 10.4502 21.9881 10.7946 21.24 11.0199C20.8385 10.5582 20.3049 10.231 19.7114 10.0825C19.1178 9.93397 18.493 9.97133 17.9214 10.1895C17.3498 10.4077 16.859 10.7961 16.5153 11.3023C16.1717 11.8086 15.9918 12.4081 16 13.0199V13.6865C14.8284 13.7169 13.6675 13.4571 12.6207 12.9302C11.5738 12.4033 10.6735 11.6256 10 10.6665C10 10.6665 7.33334 16.6665 13.3333 19.3332C11.9604 20.2652 10.3248 20.7325 8.66667 20.6665C14.6667 23.9999 22 20.6665 22 12.9999C21.9994 12.8142 21.9815 12.6289 21.9467 12.4465C22.6271 11.7755 23.1072 10.9283 23.3333 9.99987V9.99987Z" stroke="#2D40D9" stroke-width="1.33333" stroke-linecap="round" stroke-linejoin="round"/>
</svg>
