<svg width="16" height="16" viewBox="0 0 16 16" fill="none" xmlns="http://www.w3.org/2000/svg">
<path d="M15.0267 4.27984C14.9475 3.96344 14.7862 3.67355 14.5591 3.43944C14.332 3.20533 14.0472 3.03529 13.7333 2.9465C12.5867 2.6665 8 2.6665 8 2.6665C8 2.6665 3.41334 2.6665 2.26667 2.97317C1.95284 3.06196 1.66799 3.232 1.4409 3.46611C1.21382 3.70022 1.05253 3.99011 0.973338 4.3065C0.763481 5.47021 0.660829 6.65071 0.666671 7.83317C0.659191 9.02453 0.76185 10.214 0.973338 11.3865C1.06064 11.6931 1.22554 11.9719 1.4521 12.1962C1.67866 12.4204 1.95922 12.5824 2.26667 12.6665C3.41334 12.9732 8 12.9732 8 12.9732C8 12.9732 12.5867 12.9732 13.7333 12.6665C14.0472 12.5777 14.332 12.4077 14.5591 12.1736C14.7862 11.9395 14.9475 11.6496 15.0267 11.3332C15.2349 10.1782 15.3376 9.00673 15.3333 7.83317C15.3408 6.64181 15.2382 5.4523 15.0267 4.27984V4.27984Z" stroke="#2D40D9" stroke-width="1.33333" stroke-linecap="round" stroke-linejoin="round"/>
<path d="M6.5 10.0133L10.3333 7.83332L6.5 5.65332V10.0133Z" stroke="#2D40D9" stroke-width="1.33333" stroke-linecap="round" stroke-linejoin="round"/>
</svg>
