<svg width="32" height="32" viewBox="0 0 32 32" fill="none" xmlns="http://www.w3.org/2000/svg">
<rect width="32" height="32" rx="5" fill="white"/>
<path d="M23.0267 12.2798C22.9475 11.9634 22.7862 11.6736 22.5591 11.4394C22.332 11.2053 22.0472 11.0353 21.7333 10.9465C20.5867 10.6665 16 10.6665 16 10.6665C16 10.6665 11.4133 10.6665 10.2667 10.9732C9.95284 11.062 9.66799 11.232 9.4409 11.4661C9.21382 11.7002 9.05253 11.9901 8.97334 12.3065C8.76348 13.4702 8.66083 14.6507 8.66667 15.8332C8.65919 17.0245 8.76185 18.214 8.97334 19.3865C9.06064 19.6931 9.22554 19.9719 9.4521 20.1962C9.67866 20.4204 9.95922 20.5824 10.2667 20.6665C11.4133 20.9732 16 20.9732 16 20.9732C16 20.9732 20.5867 20.9732 21.7333 20.6665C22.0472 20.5777 22.332 20.4077 22.5591 20.1736C22.7862 19.9395 22.9475 19.6496 23.0267 19.3332C23.2349 18.1782 23.3376 17.0067 23.3333 15.8332C23.3408 14.6418 23.2382 13.4523 23.0267 12.2798V12.2798Z" stroke="#2D40D9" stroke-width="1.33333" stroke-linecap="round" stroke-linejoin="round"/>
<path d="M14.5 18.0133L18.3333 15.8333L14.5 13.6533V18.0133Z" stroke="#2D40D9" stroke-width="1.33333" stroke-linecap="round" stroke-linejoin="round"/>
</svg>
