<svg width="49" height="48" viewBox="0 0 49 48" fill="none" xmlns="http://www.w3.org/2000/svg">
<g clip-path="url(#clip0_151_8359)">
<rect x="0.5" width="48" height="48" rx="4" fill="#2D40D9"/>
<path d="M35.0303 16.9824C36.4267 16.9824 37.7659 17.5371 38.7533 18.5246C39.7407 19.512 40.2954 20.8512 40.2954 22.2476C40.2954 23.644 39.7407 24.9832 38.7533 25.9706C37.7659 26.958 36.4267 27.5128 35.0303 27.5128" stroke="white" stroke-width="2.25" stroke-linecap="round" stroke-linejoin="round"/>
<path d="M20.9898 16.9824V36.2881C20.9898 36.7535 20.8049 37.1999 20.4757 37.5291C20.1466 37.8582 19.7002 38.0431 19.2347 38.0431H17.4797C17.0142 38.0431 16.5678 37.8582 16.2387 37.5291C15.9095 37.1999 15.7246 36.7535 15.7246 36.2881V27.5128" stroke="white" stroke-width="2.25" stroke-linecap="round" stroke-linejoin="round"/>
<path d="M24.5001 16.9824L32.44 10.3659C32.6707 10.1737 32.9514 10.0513 33.2492 10.0129C33.547 9.97459 33.8496 10.0219 34.1214 10.1494C34.3933 10.2768 34.6232 10.4791 34.7842 10.7326C34.9452 10.986 35.0306 11.2801 35.0305 11.5804V32.9148C35.0306 33.2151 34.9452 33.5092 34.7842 33.7626C34.6232 34.0161 34.3933 34.2184 34.1214 34.3458C33.8496 34.4733 33.547 34.5206 33.2492 34.4823C32.9514 34.4439 32.6707 34.3215 32.44 34.1293L24.5001 27.5128H10.4596C9.99418 27.5128 9.54777 27.3279 9.21863 26.9987C8.8895 26.6696 8.70459 26.2232 8.70459 25.7577V18.7375C8.70459 18.272 8.8895 17.8256 9.21863 17.4965C9.54777 17.1673 9.99418 16.9824 10.4596 16.9824H24.5001" stroke="white" stroke-width="2.25" stroke-linecap="round" stroke-linejoin="round"/>
</g>
<defs>
<clipPath id="clip0_151_8359">
<rect x="0.5" width="48" height="48" rx="4" fill="white"/>
</clipPath>
</defs>
</svg>
