<svg width="32" height="32" viewBox="0 0 32 32" fill="none" xmlns="http://www.w3.org/2000/svg">
<path d="M27.6823 4.31305H4.35942V27.636H27.6823V4.31305Z" fill="#3897F0"/>
<path d="M31.9488 11.7057L11.7512 0.0442505L0.0897245 20.2419L20.2874 31.9033L31.9488 11.7057Z" fill="#3897F0"/>
<path d="M31.949 20.2411L20.2875 0.043457L0.0898741 11.7049L11.7513 31.9025L31.949 20.2411Z" fill="#3897F0"/>
<path d="M14.9009 22.0568L12.7212 19.738L22.0754 11.2927C22.1588 11.2185 22.2841 11.2232 22.3629 11.3066L24.2597 13.324C24.3386 13.4075 24.3339 13.5374 24.2458 13.6162L14.9009 22.0568Z" fill="white"/>
<path d="M14.933 22.0289L17.3307 19.8678L11.6217 14.4602C11.5429 14.386 11.4269 14.386 11.3481 14.4556L9.2704 16.2921C9.18229 16.371 9.17765 16.5101 9.26576 16.5936L14.933 22.0289Z" fill="white"/>
</svg>
