<svg width="38" height="27" viewBox="0 0 38 27" fill="none" xmlns="http://www.w3.org/2000/svg">
<path opacity="0.4" d="M8.936 0.0849755C14.792 0.0849755 17.72 4.44098 17.72 13.153C17.72 17.353 16.988 20.545 15.524 22.729C14.06 24.913 11.912 26.005 9.08 26.005C3.224 26.005 0.296 21.697 0.296 13.081C0.296 8.83298 1.028 5.60498 2.492 3.39698C3.956 1.18898 6.104 0.0849755 8.936 0.0849755ZM8.972 3.54098C8.252 3.54098 7.628 3.68498 7.1 3.97297C6.572 4.23698 6.14 4.65698 5.804 5.23298C5.492 5.78498 5.24 6.34898 5.048 6.92498C4.856 7.47698 4.712 8.18498 4.616 9.04898C4.544 9.91298 4.496 10.633 4.472 11.209C4.448 11.761 4.436 12.469 4.436 13.333C4.436 16.573 4.796 18.925 5.516 20.389C6.26 21.853 7.436 22.585 9.044 22.585C9.668 22.585 10.22 22.465 10.7 22.225C11.204 21.961 11.612 21.649 11.924 21.289C12.236 20.929 12.5 20.449 12.716 19.849C12.932 19.249 13.088 18.709 13.184 18.229C13.304 17.725 13.388 17.113 13.436 16.393C13.508 15.649 13.544 15.085 13.544 14.701C13.568 14.293 13.58 13.777 13.58 13.153C13.58 12.337 13.568 11.713 13.544 11.281C13.544 10.825 13.508 10.153 13.436 9.26498C13.364 8.35298 13.22 7.62098 13.004 7.06898C12.812 6.51698 12.548 5.94098 12.212 5.34098C11.9 4.74098 11.468 4.29698 10.916 4.00898C10.364 3.69698 9.716 3.54098 8.972 3.54098ZM37.0399 21.865V25.501H19.8319C19.8559 24.373 20.0119 23.341 20.2999 22.405C20.5879 21.469 20.9119 20.677 21.2719 20.029C21.6559 19.357 22.2079 18.685 22.9279 18.013C23.6719 17.317 24.3319 16.753 24.9079 16.321C25.5079 15.865 26.3239 15.289 27.3559 14.593C27.4279 14.545 27.7759 14.317 28.3999 13.909C29.0479 13.477 29.4439 13.213 29.5879 13.117C29.7319 12.997 30.0559 12.745 30.5599 12.361C31.0639 11.953 31.3879 11.629 31.5319 11.389C31.6999 11.149 31.9159 10.825 32.1799 10.417C32.4679 10.009 32.6599 9.60098 32.7559 9.19298C32.8519 8.76098 32.8999 8.30498 32.8999 7.82498C32.8999 6.50498 32.5279 5.47298 31.7839 4.72898C31.0639 3.96098 30.0799 3.57698 28.8319 3.57698C28.1119 3.57698 27.4879 3.69698 26.9599 3.93698C26.4319 4.15298 26.0119 4.44098 25.6999 4.80097C25.4119 5.16098 25.1719 5.62898 24.9799 6.20498C24.7879 6.75698 24.6559 7.28498 24.5839 7.78898C24.5359 8.29298 24.4999 8.88098 24.4759 9.55298H20.4799V8.90498C20.4799 6.19298 21.2359 4.04498 22.7479 2.46097C24.2839 0.852976 26.3479 0.0489759 28.9399 0.0489759C31.3879 0.0489759 33.3559 0.744976 34.8439 2.13697C36.3319 3.50498 37.0759 5.32898 37.0759 7.60898C37.0759 8.52098 36.9319 9.38498 36.6439 10.201C36.3559 11.017 36.0439 11.677 35.7079 12.181C35.3959 12.685 34.8439 13.273 34.0519 13.945C33.2599 14.617 32.6719 15.085 32.2879 15.349C31.9039 15.613 31.1959 16.093 30.1639 16.789C27.1639 18.733 25.3639 20.425 24.7639 21.865H37.0399Z" fill="#2D40D9"/>
</svg>
