<svg width="24" height="24" viewBox="0 0 24 24" fill="none" xmlns="http://www.w3.org/2000/svg">
<path d="M14.9999 6.7204L8.49995 12.9604C8.10212 13.3423 7.87863 13.8603 7.87863 14.4004C7.87863 14.9405 8.10212 15.4585 8.49995 15.8404C8.89777 16.2223 9.43734 16.4369 9.99995 16.4369C10.5626 16.4369 11.1021 16.2223 11.4999 15.8404L17.9999 9.6004C18.7956 8.83657 19.2426 7.80061 19.2426 6.7204C19.2426 5.64019 18.7956 4.60422 17.9999 3.8404C17.2043 3.07657 16.1252 2.64746 14.9999 2.64746C13.8747 2.64746 12.7956 3.07657 11.9999 3.8404L5.49995 10.0804C4.30647 11.2261 3.63599 12.7801 3.63599 14.4004C3.63599 16.0207 4.30647 17.5747 5.49995 18.7204C6.69342 19.8661 8.31212 20.5098 9.99995 20.5098C11.6878 20.5098 13.3065 19.8661 14.4999 18.7204L20.9999 12.4804" stroke="#2D40D9" stroke-width="2" stroke-linecap="round" stroke-linejoin="round"/>
</svg>
